<?xml version="1.0" encoding="UTF-8"?>
<svg xmlns="http://www.w3.org/2000/svg" xmlns:xlink="http://www.w3.org/1999/xlink" width="1950" height="870" viewBox="0 0 390 174">
<defs>
<g>
<g id="glyph-0-0">
<path d="M 0.34375 -6.8125 L 0.34375 -6.5 L 0.59375 -6.5 C 1.359375 -6.5 1.375 -6.390625 1.375 -6.03125 L 1.375 -0.78125 C 1.375 -0.421875 1.359375 -0.3125 0.59375 -0.3125 L 0.34375 -0.3125 L 0.34375 0 L 4 0 C 5.671875 0 7.046875 -1.46875 7.046875 -3.34375 C 7.046875 -5.25 5.703125 -6.8125 4 -6.8125 Z M 2.71875 -0.3125 C 2.25 -0.3125 2.234375 -0.375 2.234375 -0.703125 L 2.234375 -6.09375 C 2.234375 -6.4375 2.25 -6.5 2.71875 -6.5 L 3.71875 -6.5 C 4.34375 -6.5 5.03125 -6.28125 5.53125 -5.578125 C 5.96875 -4.984375 6.046875 -4.125 6.046875 -3.34375 C 6.046875 -2.25 5.859375 -1.640625 5.5 -1.15625 C 5.296875 -0.890625 4.734375 -0.3125 3.734375 -0.3125 Z M 2.71875 -0.3125 "/>
</g>
<g id="glyph-0-1">
<path d="M 3.484375 -3.875 L 2.203125 -4.171875 C 1.578125 -4.328125 1.203125 -4.859375 1.203125 -5.4375 C 1.203125 -6.140625 1.734375 -6.75 2.515625 -6.75 C 4.171875 -6.75 4.390625 -5.109375 4.453125 -4.671875 C 4.46875 -4.609375 4.46875 -4.546875 4.578125 -4.546875 C 4.703125 -4.546875 4.703125 -4.59375 4.703125 -4.78125 L 4.703125 -6.78125 C 4.703125 -6.953125 4.703125 -7.03125 4.59375 -7.03125 C 4.53125 -7.03125 4.515625 -7.015625 4.453125 -6.890625 L 4.09375 -6.328125 C 3.796875 -6.625 3.390625 -7.03125 2.5 -7.03125 C 1.390625 -7.03125 0.5625 -6.15625 0.5625 -5.09375 C 0.5625 -4.265625 1.09375 -3.53125 1.859375 -3.265625 C 1.96875 -3.234375 2.484375 -3.109375 3.1875 -2.9375 C 3.453125 -2.875 3.75 -2.796875 4.03125 -2.4375 C 4.234375 -2.171875 4.34375 -1.84375 4.34375 -1.515625 C 4.34375 -0.8125 3.84375 -0.09375 3 -0.09375 C 2.71875 -0.09375 1.953125 -0.140625 1.421875 -0.625 C 0.84375 -1.171875 0.8125 -1.796875 0.8125 -2.15625 C 0.796875 -2.265625 0.71875 -2.265625 0.6875 -2.265625 C 0.5625 -2.265625 0.5625 -2.1875 0.5625 -2.015625 L 0.5625 -0.015625 C 0.5625 0.15625 0.5625 0.21875 0.671875 0.21875 C 0.734375 0.21875 0.75 0.203125 0.8125 0.09375 C 0.8125 0.078125 0.84375 0.046875 1.171875 -0.484375 C 1.484375 -0.140625 2.125 0.21875 3.015625 0.21875 C 4.171875 0.21875 4.96875 -0.75 4.96875 -1.859375 C 4.96875 -2.84375 4.3125 -3.671875 3.484375 -3.875 Z M 3.484375 -3.875 "/>
</g>
<g id="glyph-0-2">
<path d="M 2.265625 -3.15625 L 3.953125 -3.15625 C 5.140625 -3.15625 6.21875 -3.953125 6.21875 -4.953125 C 6.21875 -5.9375 5.234375 -6.8125 3.875 -6.8125 L 0.34375 -6.8125 L 0.34375 -6.5 L 0.59375 -6.5 C 1.359375 -6.5 1.375 -6.390625 1.375 -6.03125 L 1.375 -0.78125 C 1.375 -0.421875 1.359375 -0.3125 0.59375 -0.3125 L 0.34375 -0.3125 L 0.34375 0 C 0.703125 -0.03125 1.4375 -0.03125 1.8125 -0.03125 C 2.1875 -0.03125 2.9375 -0.03125 3.296875 0 L 3.296875 -0.3125 L 3.046875 -0.3125 C 2.28125 -0.3125 2.265625 -0.421875 2.265625 -0.78125 Z M 2.234375 -3.40625 L 2.234375 -6.09375 C 2.234375 -6.4375 2.25 -6.5 2.71875 -6.5 L 3.609375 -6.5 C 5.1875 -6.5 5.1875 -5.4375 5.1875 -4.953125 C 5.1875 -4.484375 5.1875 -3.40625 3.609375 -3.40625 Z M 2.234375 -3.40625 "/>
</g>
<g id="glyph-1-0">
<path d="M -3.15625 -2.265625 L -3.15625 -3.953125 C -3.15625 -5.140625 -3.953125 -6.21875 -4.953125 -6.21875 C -5.9375 -6.21875 -6.8125 -5.234375 -6.8125 -3.875 L -6.8125 -0.34375 L -6.5 -0.34375 L -6.5 -0.59375 C -6.5 -1.359375 -6.390625 -1.375 -6.03125 -1.375 L -0.78125 -1.375 C -0.421875 -1.375 -0.3125 -1.359375 -0.3125 -0.59375 L -0.3125 -0.34375 L 0 -0.34375 C -0.03125 -0.703125 -0.03125 -1.4375 -0.03125 -1.8125 C -0.03125 -2.1875 -0.03125 -2.9375 0 -3.296875 L -0.3125 -3.296875 L -0.3125 -3.046875 C -0.3125 -2.28125 -0.421875 -2.265625 -0.78125 -2.265625 Z M -3.40625 -2.234375 L -6.09375 -2.234375 C -6.4375 -2.234375 -6.5 -2.25 -6.5 -2.71875 L -6.5 -3.609375 C -6.5 -5.1875 -5.4375 -5.1875 -4.953125 -5.1875 C -4.484375 -5.1875 -3.40625 -5.1875 -3.40625 -3.609375 Z M -3.40625 -2.234375 "/>
</g>
<g id="glyph-1-1">
<path d="M -2.140625 -4.6875 C -3.40625 -4.6875 -4.46875 -3.703125 -4.46875 -2.5 C -4.46875 -1.25 -3.375 -0.28125 -2.140625 -0.28125 C -0.84375 -0.28125 0.109375 -1.3125 0.109375 -2.484375 C 0.109375 -3.6875 -0.875 -4.6875 -2.140625 -4.6875 Z M -0.140625 -2.5 C -0.140625 -2.0625 -0.34375 -1.625 -0.8125 -1.359375 C -1.25 -1.109375 -1.859375 -1.109375 -2.21875 -1.109375 C -2.609375 -1.109375 -3.140625 -1.109375 -3.578125 -1.34375 C -4.03125 -1.609375 -4.25 -2.078125 -4.25 -2.484375 C -4.25 -2.921875 -4.03125 -3.34375 -3.59375 -3.609375 C -3.171875 -3.875 -2.59375 -3.875 -2.21875 -3.875 C -1.859375 -3.875 -1.3125 -3.875 -0.875 -3.65625 C -0.421875 -3.421875 -0.140625 -2.984375 -0.140625 -2.5 Z M -0.140625 -2.5 "/>
</g>
<g id="glyph-1-2">
<path d="M -3.3125 -1.671875 L -4.40625 -1.671875 L -4.296875 -0.28125 L -3.984375 -0.28125 C -3.984375 -0.984375 -3.921875 -1.0625 -3.421875 -1.0625 L -0.75 -1.0625 C -0.3125 -1.0625 -0.3125 -0.953125 -0.3125 -0.28125 L 0 -0.28125 C -0.015625 -0.671875 -0.03125 -1.140625 -0.03125 -1.421875 C -0.03125 -1.8125 -0.03125 -2.28125 0 -2.6875 L -0.3125 -2.6875 L -0.3125 -2.46875 C -0.3125 -1.734375 -0.421875 -1.71875 -0.78125 -1.71875 L -2.3125 -1.71875 C -3.296875 -1.71875 -4.1875 -2.140625 -4.1875 -2.890625 C -4.1875 -2.953125 -4.1875 -2.984375 -4.171875 -3 C -4.171875 -2.96875 -4.046875 -2.765625 -3.78125 -2.765625 C -3.515625 -2.765625 -3.359375 -2.984375 -3.359375 -3.203125 C -3.359375 -3.375 -3.484375 -3.625 -3.796875 -3.625 C -4.109375 -3.625 -4.40625 -3.3125 -4.40625 -2.890625 C -4.40625 -2.15625 -3.734375 -1.796875 -3.3125 -1.671875 Z M -3.3125 -1.671875 "/>
</g>
<g id="glyph-1-3">
<path d="M -3.984375 -1.71875 L -3.984375 -3.15625 L -4.296875 -3.15625 L -4.296875 -1.71875 L -6.125 -1.71875 L -6.125 -1.46875 C -5.3125 -1.46875 -4.25 -1.171875 -4.203125 -0.1875 L -3.984375 -0.1875 L -3.984375 -1.03125 L -1.234375 -1.03125 C -0.015625 -1.03125 0.109375 -1.96875 0.109375 -2.328125 C 0.109375 -3.03125 -0.59375 -3.3125 -1.234375 -3.3125 L -1.796875 -3.3125 L -1.796875 -3.0625 L -1.25 -3.0625 C -0.515625 -3.0625 -0.140625 -2.765625 -0.140625 -2.390625 C -0.140625 -1.71875 -1.046875 -1.71875 -1.21875 -1.71875 Z M -3.984375 -1.71875 "/>
</g>
<g id="glyph-1-4">
<path d="M -6.9375 -3.96875 C -7.0625 -3.921875 -7.140625 -3.890625 -7.140625 -3.734375 C -7.140625 -3.578125 -7.078125 -3.546875 -6.9375 -3.5 L -0.984375 -1.4375 C -0.46875 -1.25 -0.3125 -0.859375 -0.3125 -0.3125 L 0 -0.3125 C -0.015625 -0.546875 -0.03125 -0.984375 -0.03125 -1.328125 C -0.03125 -1.640625 -0.015625 -2.15625 0 -2.484375 L -0.3125 -2.484375 C -0.3125 -1.984375 -0.5625 -1.734375 -0.8125 -1.734375 C -0.84375 -1.734375 -0.953125 -1.75 -0.96875 -1.75 L -2.265625 -2.21875 L -2.265625 -4.671875 L -0.75 -5.203125 C -0.703125 -5.21875 -0.640625 -5.234375 -0.609375 -5.234375 C -0.3125 -5.234375 -0.3125 -4.671875 -0.3125 -4.40625 L 0 -4.40625 C -0.03125 -4.765625 -0.03125 -5.46875 -0.03125 -5.84375 C -0.03125 -6.265625 -0.015625 -6.734375 0 -7.140625 L -0.3125 -7.140625 L -0.3125 -6.96875 C -0.3125 -6.375 -0.375 -6.234375 -0.703125 -6.125 Z M -5.828125 -3.4375 L -2.578125 -4.5625 L -2.578125 -2.328125 Z M -5.828125 -3.4375 "/>
</g>
<g id="glyph-1-5">
<path d="M -3.65625 -2.21875 L -6.09375 -2.21875 C -6.4375 -2.21875 -6.5 -2.234375 -6.5 -2.703125 L -6.5 -3.9375 C -6.5 -4.90625 -5.65625 -5.25 -5.125 -5.25 C -4.484375 -5.25 -3.65625 -4.765625 -3.65625 -3.65625 Z M -3.5625 -4.5625 C -3.75 -5.53125 -4.390625 -6.21875 -5.125 -6.21875 C -5.984375 -6.21875 -6.8125 -5.296875 -6.8125 -4 L -6.8125 -0.359375 L -6.5 -0.359375 L -6.5 -0.59375 C -6.5 -1.359375 -6.390625 -1.390625 -6.03125 -1.390625 L -0.78125 -1.390625 C -0.421875 -1.390625 -0.3125 -1.359375 -0.3125 -0.59375 L -0.3125 -0.359375 L 0 -0.359375 L 0 -4.265625 C 0 -5.59375 -0.890625 -6.484375 -1.828125 -6.484375 C -2.6875 -6.484375 -3.4375 -5.671875 -3.5625 -4.5625 Z M -0.3125 -3.953125 L -0.3125 -2.703125 C -0.3125 -2.234375 -0.375 -2.21875 -0.703125 -2.21875 L -3.421875 -2.21875 L -3.421875 -4.09375 C -3.421875 -5.078125 -2.5 -5.5 -1.828125 -5.5 C -1.125 -5.5 -0.3125 -4.96875 -0.3125 -3.953125 Z M -0.3125 -3.953125 "/>
</g>
<g id="glyph-2-0">
<path d="M 4.9375 -5.421875 L 0.34375 -5.421875 L 0.34375 -5.15625 L 0.53125 -5.15625 C 1.140625 -5.15625 1.15625 -5.0625 1.15625 -4.765625 L 1.15625 -0.640625 C 1.15625 -0.34375 1.140625 -0.265625 0.53125 -0.265625 L 0.34375 -0.265625 L 0.34375 0 C 1.03125 -0.03125 1.046875 -0.03125 1.578125 -0.03125 C 1.953125 -0.03125 2.53125 -0.03125 2.890625 0 L 2.890625 -0.265625 L 2.640625 -0.265625 C 1.890625 -0.265625 1.890625 -0.375 1.890625 -0.65625 L 1.890625 -2.578125 L 2.625 -2.578125 C 3.40625 -2.578125 3.5 -2.328125 3.5 -1.65625 L 3.75 -1.65625 L 3.75 -3.78125 L 3.5 -3.78125 C 3.5 -3.09375 3.40625 -2.84375 2.625 -2.84375 L 1.890625 -2.84375 L 1.890625 -4.828125 C 1.890625 -5.09375 1.90625 -5.15625 2.265625 -5.15625 L 3.328125 -5.15625 C 4.625 -5.15625 4.78125 -4.65625 4.921875 -3.609375 L 5.15625 -3.609375 Z M 4.9375 -5.421875 "/>
</g>
<g id="glyph-2-1">
<path d="M 1.546875 -4.90625 C 1.546875 -5.140625 1.375 -5.359375 1.109375 -5.359375 C 0.875 -5.359375 0.671875 -5.171875 0.671875 -4.921875 C 0.671875 -4.640625 0.90625 -4.46875 1.109375 -4.46875 C 1.390625 -4.46875 1.546875 -4.703125 1.546875 -4.90625 Z M 0.359375 -3.421875 L 0.359375 -3.15625 C 0.875 -3.15625 0.9375 -3.109375 0.9375 -2.71875 L 0.9375 -0.625 C 0.9375 -0.265625 0.84375 -0.265625 0.328125 -0.265625 L 0.328125 0 C 0.640625 -0.03125 1.09375 -0.03125 1.21875 -0.03125 C 1.3125 -0.03125 1.796875 -0.03125 2.078125 0 L 2.078125 -0.265625 C 1.546875 -0.265625 1.515625 -0.296875 1.515625 -0.609375 L 1.515625 -3.515625 Z M 0.359375 -3.421875 "/>
</g>
<g id="glyph-2-2">
<path d="M 1.515625 -5.53125 L 0.328125 -5.4375 L 0.328125 -5.171875 C 0.875 -5.171875 0.9375 -5.125 0.9375 -4.734375 L 0.9375 -0.625 C 0.9375 -0.265625 0.84375 -0.265625 0.328125 -0.265625 L 0.328125 0 C 0.640625 -0.03125 1.09375 -0.03125 1.234375 -0.03125 C 1.390625 -0.03125 1.8125 -0.03125 2.125 0 L 2.125 -0.265625 C 1.625 -0.265625 1.515625 -0.265625 1.515625 -0.625 Z M 1.515625 -5.53125 "/>
</g>
<g id="glyph-2-3">
<path d="M 1.484375 -3.171875 L 2.671875 -3.171875 L 2.671875 -3.4375 L 1.484375 -3.4375 L 1.484375 -4.90625 L 1.234375 -4.90625 C 1.234375 -4.171875 0.90625 -3.421875 0.15625 -3.390625 L 0.15625 -3.171875 L 0.875 -3.171875 L 0.875 -1 C 0.875 -0.0625 1.59375 0.078125 1.953125 0.078125 C 2.5 0.078125 2.8125 -0.390625 2.8125 -1 L 2.8125 -1.4375 L 2.5625 -1.4375 L 2.5625 -1.015625 C 2.5625 -0.46875 2.3125 -0.171875 2.015625 -0.171875 C 1.484375 -0.171875 1.484375 -0.859375 1.484375 -0.984375 Z M 1.484375 -3.171875 "/>
</g>
<g id="glyph-2-4">
<path d="M 3.296875 -1.8125 C 3.46875 -1.8125 3.515625 -1.8125 3.515625 -2 C 3.515625 -2.703125 3.125 -3.546875 2 -3.546875 C 1.015625 -3.546875 0.234375 -2.734375 0.234375 -1.75 C 0.234375 -0.71875 1.09375 0.078125 2.109375 0.078125 C 3.109375 0.078125 3.515625 -0.765625 3.515625 -0.953125 C 3.515625 -0.984375 3.484375 -1.0625 3.390625 -1.0625 C 3.296875 -1.0625 3.28125 -1.015625 3.265625 -0.96875 C 2.984375 -0.1875 2.296875 -0.171875 2.15625 -0.171875 C 1.796875 -0.171875 1.421875 -0.328125 1.1875 -0.703125 C 0.953125 -1.0625 0.953125 -1.578125 0.953125 -1.8125 Z M 0.953125 -2.03125 C 1.03125 -3.140625 1.703125 -3.328125 2 -3.328125 C 2.9375 -3.328125 2.96875 -2.203125 2.96875 -2.03125 Z M 0.953125 -2.03125 "/>
</g>
<g id="glyph-2-5">
<path d="M 1.46875 -1.8125 C 1.46875 -2.421875 1.71875 -3.28125 2.484375 -3.296875 C 2.4375 -3.265625 2.34375 -3.203125 2.34375 -3.015625 C 2.34375 -2.765625 2.546875 -2.65625 2.703125 -2.65625 C 2.890625 -2.65625 3.0625 -2.78125 3.0625 -3.015625 C 3.0625 -3.296875 2.8125 -3.515625 2.453125 -3.515625 C 1.9375 -3.515625 1.578125 -3.125 1.421875 -2.671875 L 1.40625 -2.671875 L 1.40625 -3.515625 L 0.28125 -3.421875 L 0.28125 -3.15625 C 0.828125 -3.15625 0.890625 -3.109375 0.890625 -2.71875 L 0.890625 -0.625 C 0.890625 -0.265625 0.78125 -0.265625 0.28125 -0.265625 L 0.28125 0 C 0.59375 -0.03125 1.03125 -0.03125 1.21875 -0.03125 C 1.6875 -0.03125 1.703125 -0.03125 2.21875 0 L 2.21875 -0.265625 L 2.0625 -0.265625 C 1.484375 -0.265625 1.46875 -0.34375 1.46875 -0.640625 Z M 1.46875 -1.8125 "/>
</g>
<g id="glyph-3-0">
<path d="M 4.28125 -3.375 C 4.28125 -3.453125 4.28125 -3.515625 4.203125 -3.515625 C 4.15625 -3.515625 4.140625 -3.5 4.109375 -3.453125 L 3.8125 -3.078125 C 3.515625 -3.328125 3.125 -3.515625 2.640625 -3.515625 C 1.4375 -3.515625 0.484375 -2.6875 0.484375 -1.703125 C 0.484375 -0.71875 1.4375 0.109375 2.640625 0.109375 C 3.609375 0.109375 4.28125 -0.5 4.28125 -1.171875 C 4.28125 -1.25 4.265625 -1.265625 4.1875 -1.265625 C 4.125 -1.265625 4.078125 -1.265625 4.078125 -1.1875 C 4.03125 -0.421875 3.3125 -0.109375 2.734375 -0.109375 C 2.03125 -0.109375 1.0625 -0.5 1.0625 -1.703125 C 1.0625 -2.890625 2 -3.296875 2.71875 -3.296875 C 3.171875 -3.296875 3.90625 -3.0625 4.0625 -2.125 C 4.078125 -2.0625 4.140625 -2.0625 4.171875 -2.0625 C 4.28125 -2.0625 4.28125 -2.109375 4.28125 -2.203125 Z M 4.28125 -3.375 "/>
</g>
<g id="glyph-3-1">
<path d="M 4.296875 -3.359375 L 0.484375 -3.359375 L 0.359375 -2.171875 L 0.578125 -2.171875 C 0.65625 -3.078125 0.84375 -3.140625 1.65625 -3.140625 C 1.765625 -3.140625 1.9375 -3.140625 1.96875 -3.140625 C 2.109375 -3.125 2.125 -3.109375 2.125 -2.953125 L 2.125 -0.421875 C 2.125 -0.265625 2.125 -0.21875 1.59375 -0.21875 L 1.34375 -0.21875 L 1.34375 0 C 1.59375 -0.015625 2.109375 -0.015625 2.390625 -0.015625 C 2.65625 -0.015625 3.1875 -0.015625 3.4375 0 L 3.4375 -0.21875 L 3.1875 -0.21875 C 2.65625 -0.21875 2.65625 -0.265625 2.65625 -0.421875 L 2.65625 -2.953125 C 2.65625 -3.09375 2.65625 -3.125 2.796875 -3.140625 C 2.84375 -3.140625 3 -3.140625 3.109375 -3.140625 C 3.921875 -3.140625 4.109375 -3.09375 4.203125 -2.171875 L 4.40625 -2.171875 Z M 4.296875 -3.359375 "/>
</g>
<g id="glyph-3-2">
<path d="M 3.078125 -0.8125 L 3.078125 -1.03125 L 2.453125 -1.03125 L 2.453125 -3.21875 C 2.453125 -3.34375 2.453125 -3.375 2.3125 -3.375 C 2.21875 -3.375 2.21875 -3.375 2.15625 -3.296875 L 0.3125 -1.03125 L 0.3125 -0.8125 L 1.96875 -0.8125 L 1.96875 -0.421875 C 1.96875 -0.265625 1.96875 -0.21875 1.546875 -0.21875 L 1.359375 -0.21875 L 1.359375 0 C 1.59375 -0.015625 1.921875 -0.015625 2.21875 -0.015625 C 2.5 -0.015625 2.828125 -0.015625 3.0625 0 L 3.0625 -0.21875 L 2.890625 -0.21875 C 2.453125 -0.21875 2.453125 -0.265625 2.453125 -0.421875 L 2.453125 -0.8125 Z M 2.015625 -2.84375 L 2.015625 -1.03125 L 0.546875 -1.03125 Z M 2.015625 -2.84375 "/>
</g>
<g id="glyph-3-3">
<path d="M 1.984375 -3.171875 C 1.984375 -3.3125 1.96875 -3.3125 1.796875 -3.3125 C 1.453125 -3 0.890625 -3 0.796875 -3 L 0.71875 -3 L 0.71875 -2.78125 L 0.796875 -2.78125 C 0.90625 -2.78125 1.234375 -2.796875 1.53125 -2.921875 L 1.53125 -0.421875 C 1.53125 -0.28125 1.53125 -0.21875 1 -0.21875 L 0.75 -0.21875 L 0.75 0 C 1.015625 -0.015625 1.46875 -0.015625 1.75 -0.015625 C 2.046875 -0.015625 2.484375 -0.015625 2.765625 0 L 2.765625 -0.21875 L 2.515625 -0.21875 C 1.984375 -0.21875 1.984375 -0.28125 1.984375 -0.421875 Z M 1.984375 -3.171875 "/>
</g>
<g id="glyph-3-4">
<path d="M 3.109375 -2.984375 C 3.15625 -3.03125 3.15625 -3.046875 3.171875 -3.078125 L 3.171875 -3.203125 L 1.953125 -3.203125 C 1.828125 -3.203125 1.09375 -3.234375 1.015625 -3.25 C 0.890625 -3.265625 0.890625 -3.3125 0.875 -3.375 L 0.671875 -3.375 L 0.484375 -2.25 L 0.6875 -2.25 C 0.703125 -2.328125 0.75 -2.640625 0.84375 -2.703125 C 0.875 -2.71875 1.34375 -2.734375 1.421875 -2.734375 L 2.609375 -2.734375 C 2.390625 -2.484375 2.125 -2.21875 1.921875 -1.96875 C 1.328125 -1.21875 1.265625 -0.5 1.265625 -0.1875 C 1.265625 0.078125 1.4375 0.109375 1.53125 0.109375 C 1.796875 0.109375 1.796875 -0.140625 1.796875 -0.203125 L 1.796875 -0.296875 C 1.796875 -1.1875 1.984375 -1.734375 2.28125 -2.0625 Z M 3.109375 -2.984375 "/>
</g>
<g id="glyph-3-5">
<path d="M 2.609375 -3.4375 C 2.578125 -3.53125 2.5625 -3.5625 2.4375 -3.5625 C 2.359375 -3.5625 2.3125 -3.546875 2.265625 -3.453125 L 0.984375 -0.515625 C 0.875 -0.265625 0.609375 -0.21875 0.359375 -0.21875 L 0.359375 0 C 0.53125 -0.015625 0.75 -0.015625 0.9375 -0.015625 C 1 -0.015625 1.34375 -0.015625 1.578125 0 L 1.578125 -0.21875 C 1.296875 -0.21875 1.203125 -0.34375 1.203125 -0.4375 C 1.203125 -0.46875 1.21875 -0.484375 1.21875 -0.515625 L 1.484375 -1.109375 L 3.078125 -1.109375 L 3.390625 -0.40625 C 3.421875 -0.359375 3.421875 -0.34375 3.421875 -0.34375 C 3.421875 -0.21875 3.140625 -0.21875 2.984375 -0.21875 L 2.984375 0 C 3.1875 0 3.5625 -0.015625 3.796875 -0.015625 C 4.046875 -0.015625 4.328125 -0.015625 4.53125 0 L 4.53125 -0.21875 L 4.40625 -0.21875 C 4.09375 -0.21875 4.015625 -0.25 3.953125 -0.390625 Z M 2.28125 -2.9375 L 2.984375 -1.328125 L 1.578125 -1.328125 Z M 2.28125 -2.9375 "/>
</g>
<g id="glyph-3-6">
<path d="M 0.984375 -0.4375 C 0.984375 -0.3125 0.984375 -0.25 0.796875 -0.234375 C 0.6875 -0.21875 0.53125 -0.21875 0.421875 -0.21875 L 0.421875 0 L 2.609375 0 C 3.671875 0 4.515625 -0.75 4.515625 -1.671875 C 4.515625 -2.609375 3.6875 -3.40625 2.609375 -3.40625 L 0.421875 -3.40625 L 0.421875 -3.1875 C 0.546875 -3.1875 0.6875 -3.1875 0.796875 -3.171875 C 0.984375 -3.15625 0.984375 -3.09375 0.984375 -2.96875 Z M 1.734375 -0.21875 C 1.484375 -0.21875 1.484375 -0.25 1.484375 -0.421875 L 1.484375 -2.984375 C 1.484375 -3.15625 1.484375 -3.1875 1.734375 -3.1875 L 2.46875 -3.1875 C 3.0625 -3.1875 3.421875 -2.9375 3.546875 -2.8125 C 3.734375 -2.625 3.953125 -2.328125 3.953125 -1.671875 C 3.953125 -1.234375 3.859375 -0.875 3.5625 -0.59375 C 3.40625 -0.4375 3.046875 -0.21875 2.46875 -0.21875 Z M 1.734375 -0.21875 "/>
</g>
<g id="glyph-3-7">
<path d="M 2.578125 -1.125 C 2.6875 -1.125 2.71875 -1.125 2.71875 -1.234375 C 2.71875 -1.578125 2.546875 -2.234375 1.609375 -2.234375 C 0.859375 -2.234375 0.328125 -1.6875 0.328125 -1.09375 C 0.328125 -0.46875 0.9375 0.0625 1.6875 0.0625 C 2.484375 0.0625 2.71875 -0.5 2.71875 -0.59375 C 2.71875 -0.671875 2.640625 -0.671875 2.625 -0.671875 C 2.546875 -0.671875 2.53125 -0.65625 2.5 -0.59375 C 2.375 -0.25 2 -0.125 1.71875 -0.125 C 1.3125 -0.125 1.09375 -0.34375 1.015625 -0.4375 C 0.828125 -0.671875 0.828125 -0.984375 0.828125 -1.125 Z M 0.828125 -1.28125 C 0.890625 -1.9375 1.375 -2.0625 1.609375 -2.0625 C 2.296875 -2.0625 2.34375 -1.421875 2.34375 -1.28125 Z M 0.828125 -1.28125 "/>
</g>
<g id="glyph-3-8">
<path d="M 1.5 -1.515625 L 2.59375 -1.515625 C 3.265625 -1.515625 4 -1.890625 4 -2.453125 C 4 -2.96875 3.34375 -3.40625 2.546875 -3.40625 L 0.421875 -3.40625 L 0.421875 -3.1875 L 0.578125 -3.1875 C 0.984375 -3.1875 0.984375 -3.140625 0.984375 -2.984375 L 0.984375 -0.421875 C 0.984375 -0.265625 0.984375 -0.21875 0.578125 -0.21875 L 0.421875 -0.21875 L 0.421875 0 C 0.640625 -0.015625 0.953125 -0.015625 1.234375 -0.015625 C 1.53125 -0.015625 1.828125 -0.015625 2.0625 0 L 2.0625 -0.21875 L 1.90625 -0.21875 C 1.5 -0.21875 1.5 -0.265625 1.5 -0.421875 Z M 2.421875 -3.1875 C 3.234375 -3.1875 3.421875 -2.84375 3.421875 -2.453125 C 3.421875 -2.03125 3.21875 -1.703125 2.421875 -1.703125 L 1.484375 -1.703125 L 1.484375 -3 C 1.484375 -3.15625 1.484375 -3.1875 1.734375 -3.1875 Z M 2.421875 -3.1875 "/>
</g>
<g id="glyph-3-9">
<path d="M 5.796875 -2.875 C 5.84375 -2.984375 5.921875 -3.1875 6.34375 -3.1875 L 6.34375 -3.40625 C 6.109375 -3.390625 5.828125 -3.390625 5.8125 -3.390625 C 5.59375 -3.390625 5.296875 -3.390625 5.140625 -3.40625 L 5.140625 -3.1875 C 5.390625 -3.1875 5.578125 -3.09375 5.578125 -2.953125 C 5.578125 -2.921875 5.5625 -2.859375 5.5625 -2.859375 L 4.640625 -0.578125 L 3.671875 -2.984375 C 3.65625 -3.03125 3.65625 -3.046875 3.65625 -3.0625 C 3.65625 -3.1875 3.953125 -3.1875 4.09375 -3.1875 L 4.09375 -3.40625 C 3.90625 -3.40625 3.53125 -3.390625 3.296875 -3.390625 C 3.078125 -3.390625 2.84375 -3.390625 2.609375 -3.40625 L 2.609375 -3.1875 L 2.71875 -3.1875 C 2.984375 -3.1875 3.03125 -3.15625 3.0625 -3.109375 C 3.09375 -3.09375 3.15625 -2.921875 3.1875 -2.828125 L 3.171875 -2.765625 L 2.296875 -0.578125 L 1.328125 -3 C 1.3125 -3.046875 1.3125 -3.046875 1.3125 -3.0625 C 1.3125 -3.1875 1.609375 -3.1875 1.75 -3.1875 L 1.75 -3.40625 C 1.5625 -3.40625 1.171875 -3.390625 0.953125 -3.390625 C 0.71875 -3.390625 0.5 -3.390625 0.265625 -3.40625 L 0.265625 -3.1875 L 0.375 -3.1875 C 0.703125 -3.1875 0.71875 -3.140625 0.765625 -3 L 1.96875 -0.015625 C 2 0.0625 2.015625 0.109375 2.140625 0.109375 C 2.25 0.109375 2.265625 0.0625 2.296875 -0.015625 L 3.296875 -2.546875 L 4.328125 -0.015625 C 4.34375 0.0625 4.375 0.109375 4.484375 0.109375 C 4.59375 0.109375 4.609375 0.0625 4.640625 -0.015625 Z M 5.796875 -2.875 "/>
</g>
<g id="glyph-3-10">
<path d="M 1.625 -3.28125 C 1.5625 -3.40625 1.515625 -3.40625 1.40625 -3.40625 L 0.4375 -3.40625 L 0.4375 -3.1875 L 0.59375 -3.1875 C 1 -3.1875 1 -3.140625 1 -2.984375 L 1 -0.546875 C 1 -0.421875 1 -0.21875 0.4375 -0.21875 L 0.4375 0 C 0.671875 -0.015625 0.890625 -0.015625 1.109375 -0.015625 C 1.25 -0.015625 1.578125 -0.015625 1.78125 0 L 1.78125 -0.21875 C 1.21875 -0.21875 1.21875 -0.421875 1.21875 -0.546875 L 1.21875 -3.15625 L 1.234375 -3.15625 L 2.671875 -0.125 C 2.71875 -0.03125 2.765625 0 2.828125 0 C 2.921875 0 2.953125 -0.0625 2.984375 -0.109375 L 4.453125 -3.1875 L 4.453125 -0.421875 C 4.453125 -0.265625 4.453125 -0.21875 4.046875 -0.21875 L 3.90625 -0.21875 L 3.90625 0 C 4.125 -0.015625 4.421875 -0.015625 4.6875 -0.015625 C 4.953125 -0.015625 5.25 -0.015625 5.484375 0 L 5.484375 -0.21875 L 5.328125 -0.21875 C 4.921875 -0.21875 4.921875 -0.265625 4.921875 -0.421875 L 4.921875 -2.984375 C 4.921875 -3.140625 4.921875 -3.1875 5.328125 -3.1875 L 5.484375 -3.1875 L 5.484375 -3.40625 L 4.515625 -3.40625 C 4.40625 -3.40625 4.359375 -3.40625 4.3125 -3.296875 L 2.953125 -0.46875 Z M 1.625 -3.28125 "/>
</g>
<g id="glyph-3-11">
<path d="M 3.546875 -3.171875 C 3.59375 -3.21875 3.59375 -3.234375 3.59375 -3.296875 C 3.59375 -3.40625 3.546875 -3.40625 3.4375 -3.40625 L 0.640625 -3.40625 L 0.578125 -2.21875 L 0.78125 -2.21875 C 0.84375 -3.015625 1.296875 -3.1875 1.921875 -3.1875 L 2.921875 -3.1875 L 0.53125 -0.25 C 0.484375 -0.1875 0.484375 -0.171875 0.484375 -0.125 C 0.484375 0 0.53125 0 0.640625 0 L 3.53125 0 L 3.625 -1.390625 L 3.421875 -1.390625 C 3.359375 -0.625 3.15625 -0.234375 2.203125 -0.234375 L 1.15625 -0.234375 Z M 3.546875 -3.171875 "/>
</g>
<g id="glyph-3-12">
<path d="M 3.078125 -3.375 C 3.078125 -3.453125 3.078125 -3.515625 3 -3.515625 C 2.96875 -3.515625 2.9375 -3.515625 2.890625 -3.453125 L 2.703125 -3.15625 C 2.46875 -3.375 2.15625 -3.515625 1.703125 -3.515625 C 0.984375 -3.515625 0.484375 -3.078125 0.484375 -2.578125 C 0.484375 -2.296875 0.640625 -2.078125 0.78125 -1.953125 C 1.046875 -1.734375 1.296875 -1.6875 1.515625 -1.640625 C 1.609375 -1.625 2.265625 -1.484375 2.3125 -1.484375 C 2.640625 -1.40625 2.953125 -1.15625 2.953125 -0.8125 C 2.953125 -0.46875 2.59375 -0.109375 2.015625 -0.109375 C 1.796875 -0.109375 1.375 -0.140625 1.0625 -0.34375 C 0.828125 -0.5 0.703125 -0.71875 0.6875 -1.015625 C 0.6875 -1.09375 0.6875 -1.125 0.59375 -1.125 C 0.484375 -1.125 0.484375 -1.09375 0.484375 -0.984375 L 0.484375 -0.03125 C 0.484375 0.0625 0.484375 0.109375 0.5625 0.109375 C 0.609375 0.109375 0.625 0.09375 0.65625 0.046875 C 0.671875 0.015625 0.84375 -0.21875 0.84375 -0.234375 C 1.21875 0.046875 1.6875 0.109375 2.015625 0.109375 C 2.765625 0.109375 3.25 -0.390625 3.25 -0.90625 C 3.25 -1.28125 3.015625 -1.5 2.9375 -1.578125 C 2.703125 -1.8125 2.421875 -1.859375 2.015625 -1.9375 C 1.734375 -2 1.453125 -2.046875 1.40625 -2.0625 C 1.203125 -2.109375 0.78125 -2.28125 0.78125 -2.671875 C 0.78125 -3 1.15625 -3.3125 1.703125 -3.3125 C 2.59375 -3.3125 2.8125 -2.71875 2.859375 -2.359375 C 2.875 -2.28125 2.890625 -2.265625 2.96875 -2.265625 C 3.078125 -2.265625 3.078125 -2.3125 3.078125 -2.40625 Z M 3.078125 -3.375 "/>
</g>
<g id="glyph-4-0">
<path d="M 1.640625 -1.65625 C 2.109375 -1.65625 2.40625 -1.359375 2.40625 -0.875 C 2.40625 -0.359375 2.09375 -0.09375 1.65625 -0.09375 C 1.59375 -0.09375 1 -0.09375 0.75 -0.359375 C 0.953125 -0.390625 1.015625 -0.53125 1.015625 -0.65625 C 1.015625 -0.84375 0.875 -0.96875 0.703125 -0.96875 C 0.546875 -0.96875 0.40625 -0.859375 0.40625 -0.640625 C 0.40625 -0.125 0.984375 0.109375 1.671875 0.109375 C 2.484375 0.109375 2.984375 -0.390625 2.984375 -0.875 C 2.984375 -1.28125 2.625 -1.625 2.0625 -1.75 C 2.65625 -1.953125 2.8125 -2.328125 2.8125 -2.609375 C 2.8125 -3.015625 2.3125 -3.3125 1.6875 -3.3125 C 1.0625 -3.3125 0.578125 -3.0625 0.578125 -2.609375 C 0.578125 -2.375 0.765625 -2.3125 0.859375 -2.3125 C 1 -2.3125 1.140625 -2.421875 1.140625 -2.609375 C 1.140625 -2.71875 1.078125 -2.859375 0.90625 -2.890625 C 1.109375 -3.109375 1.5625 -3.125 1.671875 -3.125 C 2.03125 -3.125 2.28125 -2.953125 2.28125 -2.609375 C 2.28125 -2.3125 2.09375 -1.859375 1.578125 -1.828125 C 1.4375 -1.828125 1.421875 -1.828125 1.28125 -1.8125 C 1.234375 -1.8125 1.171875 -1.8125 1.171875 -1.734375 C 1.171875 -1.65625 1.21875 -1.65625 1.3125 -1.65625 Z M 1.640625 -1.65625 "/>
</g>
<g id="glyph-4-1">
<path d="M 3.109375 -2.984375 C 3.15625 -3.03125 3.15625 -3.046875 3.171875 -3.078125 L 3.171875 -3.203125 L 1.953125 -3.203125 C 1.828125 -3.203125 1.09375 -3.234375 1.015625 -3.25 C 0.890625 -3.265625 0.890625 -3.3125 0.875 -3.375 L 0.671875 -3.375 L 0.484375 -2.25 L 0.6875 -2.25 C 0.703125 -2.328125 0.75 -2.640625 0.84375 -2.703125 C 0.875 -2.71875 1.34375 -2.734375 1.421875 -2.734375 L 2.609375 -2.734375 C 2.390625 -2.484375 2.125 -2.21875 1.921875 -1.96875 C 1.328125 -1.21875 1.265625 -0.5 1.265625 -0.1875 C 1.265625 0.078125 1.4375 0.109375 1.53125 0.109375 C 1.796875 0.109375 1.796875 -0.140625 1.796875 -0.203125 L 1.796875 -0.296875 C 1.796875 -1.1875 1.984375 -1.734375 2.28125 -2.0625 Z M 3.109375 -2.984375 "/>
</g>
<g id="glyph-4-2">
<path d="M 3 -1.59375 C 3 -1.953125 3 -3.3125 1.6875 -3.3125 C 0.390625 -3.3125 0.390625 -1.953125 0.390625 -1.59375 C 0.390625 -1.234375 0.390625 0.109375 1.6875 0.109375 C 3 0.109375 3 -1.234375 3 -1.59375 Z M 1.6875 -0.0625 C 1.515625 -0.0625 1.09375 -0.125 0.96875 -0.625 C 0.890625 -0.890625 0.890625 -1.25 0.890625 -1.65625 C 0.890625 -2.03125 0.890625 -2.375 0.96875 -2.65625 C 1.09375 -3.078125 1.484375 -3.15625 1.6875 -3.15625 C 2.0625 -3.15625 2.328125 -2.96875 2.421875 -2.609375 C 2.5 -2.359375 2.5 -1.953125 2.5 -1.65625 C 2.5 -1.3125 2.5 -0.90625 2.421875 -0.609375 C 2.296875 -0.125 1.890625 -0.0625 1.6875 -0.0625 Z M 1.6875 -0.0625 "/>
</g>
<g id="glyph-4-3">
<path d="M 3.078125 -0.8125 L 3.078125 -1.03125 L 2.453125 -1.03125 L 2.453125 -3.21875 C 2.453125 -3.34375 2.453125 -3.375 2.3125 -3.375 C 2.21875 -3.375 2.21875 -3.375 2.15625 -3.296875 L 0.3125 -1.03125 L 0.3125 -0.8125 L 1.96875 -0.8125 L 1.96875 -0.421875 C 1.96875 -0.265625 1.96875 -0.21875 1.546875 -0.21875 L 1.359375 -0.21875 L 1.359375 0 C 1.59375 -0.015625 1.921875 -0.015625 2.21875 -0.015625 C 2.5 -0.015625 2.828125 -0.015625 3.0625 0 L 3.0625 -0.21875 L 2.890625 -0.21875 C 2.453125 -0.21875 2.453125 -0.265625 2.453125 -0.421875 L 2.453125 -0.8125 Z M 2.015625 -2.84375 L 2.015625 -1.03125 L 0.546875 -1.03125 Z M 2.015625 -2.84375 "/>
</g>
<g id="glyph-4-4">
<path d="M 2.9375 -0.96875 L 2.71875 -0.96875 C 2.71875 -0.875 2.65625 -0.5625 2.578125 -0.515625 C 2.546875 -0.484375 2.125 -0.484375 2.046875 -0.484375 L 1.078125 -0.484375 C 1.40625 -0.71875 1.765625 -1 2.0625 -1.203125 C 2.515625 -1.515625 2.9375 -1.796875 2.9375 -2.328125 C 2.9375 -2.96875 2.328125 -3.3125 1.625 -3.3125 C 0.953125 -3.3125 0.453125 -2.9375 0.453125 -2.4375 C 0.453125 -2.1875 0.671875 -2.140625 0.75 -2.140625 C 0.875 -2.140625 1.03125 -2.234375 1.03125 -2.4375 C 1.03125 -2.609375 0.90625 -2.71875 0.75 -2.71875 C 0.890625 -2.953125 1.1875 -3.09375 1.515625 -3.09375 C 2 -3.09375 2.40625 -2.8125 2.40625 -2.328125 C 2.40625 -1.90625 2.109375 -1.578125 1.734375 -1.265625 L 0.515625 -0.234375 C 0.46875 -0.1875 0.453125 -0.1875 0.453125 -0.15625 L 0.453125 0 L 2.765625 0 Z M 2.9375 -0.96875 "/>
</g>
</g>
<clipPath id="clip-0">
<path clip-rule="nonzero" d="M 193.039062 141.59375 L 212.964844 141.59375 L 212.964844 148.402344 L 193.039062 148.402344 Z M 193.039062 141.59375 "/>
</clipPath>
<clipPath id="clip-1">
<path clip-rule="nonzero" d="M 6.191406 42 L 13 42 L 13 72 L 6.191406 72 Z M 6.191406 42 "/>
</clipPath>
<clipPath id="clip-2">
<path clip-rule="nonzero" d="M 91 74.230469 L 111.300781 74.230469 L 111.300781 79.765625 L 91 79.765625 Z M 91 74.230469 "/>
</clipPath>
<clipPath id="clip-3">
<path clip-rule="nonzero" d="M 279 74.230469 L 299.300781 74.230469 L 299.300781 79.765625 L 279 79.765625 Z M 279 74.230469 "/>
</clipPath>
<clipPath id="clip-4">
<path clip-rule="nonzero" d="M 377 42.179688 L 383.808594 42.179688 L 383.808594 71.820312 L 377 71.820312 Z M 377 42.179688 "/>
</clipPath>
<clipPath id="clip-5">
<path clip-rule="nonzero" d="M 203.136719 55.304688 L 222.855469 55.304688 L 222.855469 58.691406 L 203.136719 58.691406 Z M 203.136719 55.304688 "/>
</clipPath>
<clipPath id="clip-6">
<path clip-rule="nonzero" d="M 198 125.304688 L 212 125.304688 L 212 128.691406 L 198 128.691406 Z M 198 125.304688 "/>
</clipPath>
<clipPath id="clip-7">
<path clip-rule="nonzero" d="M 219 131.304688 L 239 131.304688 L 239 134.691406 L 219 134.691406 Z M 219 131.304688 "/>
</clipPath>
<clipPath id="clip-8">
<path clip-rule="nonzero" d="M 216.574219 123.304688 L 225 123.304688 L 225 126.691406 L 216.574219 126.691406 Z M 216.574219 123.304688 "/>
</clipPath>
<clipPath id="clip-9">
<path clip-rule="nonzero" d="M 162 127.304688 L 176 127.304688 L 176 130.691406 L 162 130.691406 Z M 162 127.304688 "/>
</clipPath>
<clipPath id="clip-10">
<path clip-rule="nonzero" d="M 230 143.304688 L 244 143.304688 L 244 146.691406 L 230 146.691406 Z M 230 143.304688 "/>
</clipPath>
<clipPath id="clip-11">
<path clip-rule="nonzero" d="M 230 159.304688 L 244 159.304688 L 244 162.691406 L 230 162.691406 Z M 230 159.304688 "/>
</clipPath>
<clipPath id="clip-12">
<path clip-rule="nonzero" d="M 162 159.304688 L 176 159.304688 L 176 162.691406 L 162 162.691406 Z M 162 159.304688 "/>
</clipPath>
<clipPath id="clip-13">
<path clip-rule="nonzero" d="M 46.382812 8.640625 L 59.605469 8.640625 L 59.605469 12.027344 L 46.382812 12.027344 Z M 46.382812 8.640625 "/>
</clipPath>
<clipPath id="clip-14">
<path clip-rule="nonzero" d="M 44.519531 14.0625 L 61.46875 14.0625 L 61.46875 17.273438 L 44.519531 17.273438 Z M 44.519531 14.0625 "/>
</clipPath>
<clipPath id="clip-15">
<path clip-rule="nonzero" d="M 330.382812 8.640625 L 343.605469 8.640625 L 343.605469 12.027344 L 330.382812 12.027344 Z M 330.382812 8.640625 "/>
</clipPath>
<clipPath id="clip-16">
<path clip-rule="nonzero" d="M 328.519531 14.0625 L 345.46875 14.0625 L 345.46875 17.273438 L 328.519531 17.273438 Z M 328.519531 14.0625 "/>
</clipPath>
</defs>
<path fill-rule="evenodd" fill="rgb(100%, 100%, 100%)" fill-opacity="1" d="M 1 1 L 1 173 L 389 173 L 389 1 Z M 1 1 "/>
<path fill-rule="evenodd" fill="rgb(100%, 100%, 100%)" fill-opacity="1" stroke-width="0.4" stroke-linecap="round" stroke-linejoin="round" stroke="rgb(0%, 0%, 0%)" stroke-opacity="1" stroke-miterlimit="10" d="M 280 436 L 280 388 L 196.003906 388 L 196.003906 436 Z M 280 436 " transform="matrix(1, 0, 0, -1, -35, 557)"/>
<g clip-path="url(#clip-0)">
<g fill="rgb(0%, 0%, 0%)" fill-opacity="1">
<use xlink:href="#glyph-0-0" x="193.039614" y="148.404"/>
<use xlink:href="#glyph-0-1" x="200.641077" y="148.404"/>
<use xlink:href="#glyph-0-2" x="206.17032" y="148.404"/>
</g>
</g>
<path fill="none" stroke-width="0.8" stroke-linecap="round" stroke-linejoin="round" stroke="rgb(0%, 0%, 0%)" stroke-opacity="1" stroke-miterlimit="10" d="M 68 455.996094 L 60 455.996094 L 60 543.996094 L 68 543.996094 " transform="matrix(1, 0, 0, -1, -35, 557)"/>
<path fill="none" stroke-width="0.8" stroke-linecap="round" stroke-linejoin="round" stroke="rgb(0%, 0%, 0%)" stroke-opacity="1" stroke-miterlimit="10" d="M 392 455.996094 L 400 455.996094 L 400 543.996094 L 392 543.996094 " transform="matrix(1, 0, 0, -1, -35, 557)"/>
<path fill="none" stroke-width="0.8" stroke-linecap="round" stroke-linejoin="round" stroke="rgb(0%, 0%, 0%)" stroke-opacity="1" stroke-miterlimit="10" d="M 67.996094 544 L 392.003906 544 " transform="matrix(1, 0, 0, -1, -35, 557)"/>
<path fill="none" stroke-width="0.8" stroke-linecap="round" stroke-linejoin="round" stroke="rgb(0%, 0%, 0%)" stroke-opacity="1" stroke-miterlimit="10" d="M 67.996094 456.003906 L 392.003906 456.003906 " transform="matrix(1, 0, 0, -1, -35, 557)"/>
<path fill-rule="evenodd" fill="rgb(100%, 100%, 100%)" fill-opacity="1" d="M 34.5 13 C 34.5 11 31.5 11 31.5 13 C 31.5 15 34.5 15 34.5 13 Z M 34.5 13 "/>
<path fill-rule="evenodd" fill="rgb(0%, 0%, 0%)" fill-opacity="1" d="M 34.800781 13 C 34.800781 10.597656 31.199219 10.597656 31.199219 13 C 31.199219 15.398438 34.800781 15.398438 34.800781 13 Z M 34.199219 13 C 34.199219 11.398438 31.800781 11.398438 31.800781 13 C 31.800781 14.597656 34.199219 14.597656 34.199219 13 Z M 34.199219 13 "/>
<path fill-rule="evenodd" fill="rgb(100%, 100%, 100%)" fill-opacity="1" d="M 34.5 101 C 34.5 99 31.5 99 31.5 101 C 31.5 103 34.5 103 34.5 101 Z M 34.5 101 "/>
<path fill-rule="evenodd" fill="rgb(0%, 0%, 0%)" fill-opacity="1" d="M 34.800781 101 C 34.800781 98.601562 31.199219 98.601562 31.199219 101 C 31.199219 103.402344 34.800781 103.402344 34.800781 101 Z M 34.199219 101 C 34.199219 99.402344 31.800781 99.402344 31.800781 101 C 31.800781 102.601562 34.199219 102.601562 34.199219 101 Z M 34.199219 101 "/>
<path fill-rule="evenodd" fill="rgb(100%, 100%, 100%)" fill-opacity="1" d="M 358.5 13 C 358.5 11 355.5 11 355.5 13 C 355.5 15 358.5 15 358.5 13 Z M 358.5 13 "/>
<path fill-rule="evenodd" fill="rgb(0%, 0%, 0%)" fill-opacity="1" d="M 358.796875 13 C 358.796875 10.597656 355.199219 10.597656 355.199219 13 C 355.199219 15.398438 358.796875 15.398438 358.796875 13 Z M 358.199219 13 C 358.199219 11.398438 355.796875 11.398438 355.796875 13 C 355.796875 14.597656 358.199219 14.597656 358.199219 13 Z M 358.199219 13 "/>
<path fill-rule="evenodd" fill="rgb(100%, 100%, 100%)" fill-opacity="1" d="M 358.5 101 C 358.5 99 355.5 99 355.5 101 C 355.5 103 358.5 103 358.5 101 Z M 358.5 101 "/>
<path fill-rule="evenodd" fill="rgb(0%, 0%, 0%)" fill-opacity="1" d="M 358.796875 101 C 358.796875 98.601562 355.199219 98.601562 355.199219 101 C 355.199219 103.402344 358.796875 103.402344 358.796875 101 Z M 358.199219 101 C 358.199219 99.402344 355.796875 99.402344 355.796875 101 C 355.796875 102.601562 358.199219 102.601562 358.199219 101 Z M 358.199219 101 "/>
<g clip-path="url(#clip-1)">
<g fill="rgb(0%, 0%, 0%)" fill-opacity="1">
<use xlink:href="#glyph-1-0" x="13" y="72.027"/>
<use xlink:href="#glyph-1-1" x="13" y="65.531385"/>
<use xlink:href="#glyph-1-2" x="13" y="60.550085"/>
<use xlink:href="#glyph-1-3" x="13" y="56.654708"/>
<use xlink:href="#glyph-1-4" x="13" y="49.471674"/>
</g>
</g>
<path fill="none" stroke-width="0.8" stroke-linecap="round" stroke-linejoin="round" stroke="rgb(0%, 0%, 0%)" stroke-opacity="1" stroke-miterlimit="10" d="M 180 500 L 280 500 " transform="matrix(1, 0, 0, -1, -35, 557)"/>
<path fill-rule="evenodd" fill="rgb(100%, 100%, 100%)" fill-opacity="1" d="M 193.011719 52.988281 L 161.011719 52.988281 L 161.011719 60.988281 L 193.011719 60.988281 Z M 193.011719 52.988281 "/>
<path fill="none" stroke-width="0.8" stroke-linecap="round" stroke-linejoin="round" stroke="rgb(0%, 0%, 0%)" stroke-opacity="1" stroke-miterlimit="10" d="M 221.609375 504.796875 C 218.410156 504.796875 216.808594 502.398438 216.808594 499.996094 " transform="matrix(1, 0, 0, -1, -35, 557)"/>
<path fill="none" stroke-width="0.8" stroke-linecap="round" stroke-linejoin="round" stroke="rgb(0%, 0%, 0%)" stroke-opacity="1" stroke-miterlimit="10" d="M 216.808594 499.996094 C 216.808594 497.863281 217.34375 496.796875 218.410156 496.796875 " transform="matrix(1, 0, 0, -1, -35, 557)"/>
<path fill="none" stroke-width="0.8" stroke-linecap="round" stroke-linejoin="round" stroke="rgb(0%, 0%, 0%)" stroke-opacity="1" stroke-miterlimit="10" d="M 218.410156 496.796875 C 219.476562 496.796875 220.007812 497.863281 220.007812 499.996094 " transform="matrix(1, 0, 0, -1, -35, 557)"/>
<path fill="none" stroke-width="0.8" stroke-linecap="round" stroke-linejoin="round" stroke="rgb(0%, 0%, 0%)" stroke-opacity="1" stroke-miterlimit="10" d="M 220.007812 499.996094 C 220.007812 502.398438 218.410156 504.796875 215.210938 504.796875 " transform="matrix(1, 0, 0, -1, -35, 557)"/>
<path fill="none" stroke-width="0.8" stroke-linecap="round" stroke-linejoin="round" stroke="rgb(0%, 0%, 0%)" stroke-opacity="1" stroke-miterlimit="10" d="M 215.210938 504.796875 C 212.011719 504.796875 210.410156 502.398438 210.410156 499.996094 " transform="matrix(1, 0, 0, -1, -35, 557)"/>
<path fill="none" stroke-width="0.8" stroke-linecap="round" stroke-linejoin="round" stroke="rgb(0%, 0%, 0%)" stroke-opacity="1" stroke-miterlimit="10" d="M 210.410156 499.996094 C 210.410156 497.863281 210.941406 496.796875 212.011719 496.796875 " transform="matrix(1, 0, 0, -1, -35, 557)"/>
<path fill="none" stroke-width="0.8" stroke-linecap="round" stroke-linejoin="round" stroke="rgb(0%, 0%, 0%)" stroke-opacity="1" stroke-miterlimit="10" d="M 212.011719 496.796875 C 213.078125 496.796875 213.609375 497.863281 213.609375 499.996094 " transform="matrix(1, 0, 0, -1, -35, 557)"/>
<path fill="none" stroke-width="0.8" stroke-linecap="round" stroke-linejoin="round" stroke="rgb(0%, 0%, 0%)" stroke-opacity="1" stroke-miterlimit="10" d="M 213.609375 499.996094 C 213.609375 502.398438 212.011719 504.796875 208.808594 504.796875 " transform="matrix(1, 0, 0, -1, -35, 557)"/>
<path fill="none" stroke-width="0.8" stroke-linecap="round" stroke-linejoin="round" stroke="rgb(0%, 0%, 0%)" stroke-opacity="1" stroke-miterlimit="10" d="M 208.808594 504.796875 C 205.609375 504.796875 204.011719 502.398438 204.011719 499.996094 " transform="matrix(1, 0, 0, -1, -35, 557)"/>
<path fill="none" stroke-width="0.8" stroke-linecap="round" stroke-linejoin="round" stroke="rgb(0%, 0%, 0%)" stroke-opacity="1" stroke-miterlimit="10" d="M 204.011719 499.996094 C 204.011719 497.863281 204.542969 496.796875 205.609375 496.796875 " transform="matrix(1, 0, 0, -1, -35, 557)"/>
<path fill="none" stroke-width="0.8" stroke-linecap="round" stroke-linejoin="round" stroke="rgb(0%, 0%, 0%)" stroke-opacity="1" stroke-miterlimit="10" d="M 205.609375 496.796875 C 206.675781 496.796875 207.210938 497.863281 207.210938 499.996094 " transform="matrix(1, 0, 0, -1, -35, 557)"/>
<path fill="none" stroke-width="0.8" stroke-linecap="round" stroke-linejoin="round" stroke="rgb(0%, 0%, 0%)" stroke-opacity="1" stroke-miterlimit="10" d="M 207.210938 499.996094 C 207.210938 502.398438 205.609375 504.796875 202.410156 504.796875 " transform="matrix(1, 0, 0, -1, -35, 557)"/>
<path fill="none" stroke-width="0.8" stroke-linecap="round" stroke-linejoin="round" stroke="rgb(0%, 0%, 0%)" stroke-opacity="1" stroke-miterlimit="10" d="M 226.410156 499.996094 C 226.410156 502.398438 224.808594 504.796875 221.609375 504.796875 " transform="matrix(1, 0, 0, -1, -35, 557)"/>
<path fill="none" stroke-width="0.8" stroke-linecap="round" stroke-linejoin="round" stroke="rgb(0%, 0%, 0%)" stroke-opacity="1" stroke-miterlimit="10" d="M 202.410156 504.796875 C 199.210938 504.796875 197.609375 502.398438 197.609375 499.996094 " transform="matrix(1, 0, 0, -1, -35, 557)"/>
<path fill="none" stroke-width="0.8" stroke-linecap="round" stroke-linejoin="round" stroke="rgb(0%, 0%, 0%)" stroke-opacity="1" stroke-miterlimit="10" d="M 226.410156 499.996094 L 228.007812 499.996094 " transform="matrix(1, 0, 0, -1, -35, 557)"/>
<path fill="none" stroke-width="0.8" stroke-linecap="round" stroke-linejoin="round" stroke="rgb(0%, 0%, 0%)" stroke-opacity="1" stroke-miterlimit="10" d="M 197.609375 499.996094 L 196.011719 499.996094 " transform="matrix(1, 0, 0, -1, -35, 557)"/>
<path fill-rule="evenodd" fill="rgb(0%, 0%, 0%)" fill-opacity="1" d="M 146.800781 57 C 146.800781 54.601562 143.199219 54.601562 143.199219 57 C 143.199219 59.398438 146.800781 59.398438 146.800781 57 Z M 146.800781 57 "/>
<path fill-rule="evenodd" fill="rgb(0%, 0%, 0%)" fill-opacity="1" d="M 246.800781 57 C 246.800781 54.601562 243.199219 54.601562 243.199219 57 C 243.199219 59.398438 246.800781 59.398438 246.800781 57 Z M 246.800781 57 "/>
<path fill-rule="evenodd" fill="rgb(100%, 100%, 100%)" fill-opacity="1" d="M 145 9 L 145 17 L 245 17 L 245 9 Z M 145 9 "/>
<path fill="none" stroke-width="0.8" stroke-linecap="round" stroke-linejoin="round" stroke="rgb(0%, 0%, 0%)" stroke-opacity="1" stroke-miterlimit="10" d="M 180 544 L 180 456 " transform="matrix(1, 0, 0, -1, -35, 557)"/>
<path fill-rule="evenodd" fill="rgb(100%, 100%, 100%)" fill-opacity="1" d="M 149.011719 49.015625 L 133.003906 49.015625 L 133.003906 25.015625 L 149.011719 25.015625 Z M 149.011719 49.015625 "/>
<path fill="none" stroke-width="0.8" stroke-linecap="round" stroke-linejoin="round" stroke="rgb(0%, 0%, 0%)" stroke-opacity="1" stroke-miterlimit="10" d="M 184.003906 524 L 192.007812 524 " transform="matrix(1, 0, 0, -1, -35, 557)"/>
<path fill-rule="evenodd" fill="rgb(0%, 0%, 0%)" fill-opacity="1" stroke-width="0.8" stroke-linecap="butt" stroke-linejoin="round" stroke="rgb(0%, 0%, 0%)" stroke-opacity="1" stroke-miterlimit="10" d="M 188.007812 524 L 192.007812 516 L 184.003906 516 L 188.007812 524 " transform="matrix(1, 0, 0, -1, -35, 557)"/>
<path fill="none" stroke-width="0.8" stroke-linecap="round" stroke-linejoin="round" stroke="rgb(0%, 0%, 0%)" stroke-opacity="1" stroke-miterlimit="10" d="M 188.007812 524 L 188.007812 532 " transform="matrix(1, 0, 0, -1, -35, 557)"/>
<path fill="none" stroke-width="0.8" stroke-linecap="round" stroke-linejoin="round" stroke="rgb(0%, 0%, 0%)" stroke-opacity="1" stroke-miterlimit="10" d="M 188.007812 516 L 188.007812 508 " transform="matrix(1, 0, 0, -1, -35, 557)"/>
<path fill="none" stroke-width="0.8" stroke-linecap="round" stroke-linejoin="round" stroke="rgb(0%, 0%, 0%)" stroke-opacity="1" stroke-miterlimit="10" d="M 188.007812 532 L 180.003906 532 " transform="matrix(1, 0, 0, -1, -35, 557)"/>
<path fill="none" stroke-width="0.8" stroke-linecap="round" stroke-linejoin="round" stroke="rgb(0%, 0%, 0%)" stroke-opacity="1" stroke-miterlimit="10" d="M 188.007812 508 L 180.003906 508 " transform="matrix(1, 0, 0, -1, -35, 557)"/>
<path fill="none" stroke-width="0.8" stroke-linecap="round" stroke-linejoin="round" stroke="rgb(0%, 0%, 0%)" stroke-opacity="1" stroke-miterlimit="10" d="M 180.003906 526.765625 L 180.003906 535.988281 " transform="matrix(1, 0, 0, -1, -35, 557)"/>
<path fill="none" stroke-width="0.8" stroke-linecap="round" stroke-linejoin="round" stroke="rgb(0%, 0%, 0%)" stroke-opacity="1" stroke-miterlimit="10" d="M 180.003906 504 L 180.003906 513.21875 " transform="matrix(1, 0, 0, -1, -35, 557)"/>
<path fill="none" stroke-width="0.8" stroke-linecap="round" stroke-linejoin="round" stroke="rgb(0%, 0%, 0%)" stroke-opacity="1" stroke-miterlimit="10" d="M 170.398438 520 L 164 520 " transform="matrix(1, 0, 0, -1, -35, 557)"/>
<path fill="none" stroke-width="1.2" stroke-linecap="round" stroke-linejoin="round" stroke="rgb(0%, 0%, 0%)" stroke-opacity="1" stroke-miterlimit="10" d="M 170.398438 526.765625 L 170.398438 513.214844 " transform="matrix(1, 0, 0, -1, -35, 557)"/>
<path fill="none" stroke-width="0.8" stroke-linecap="round" stroke-linejoin="round" stroke="rgb(0%, 0%, 0%)" stroke-opacity="1" stroke-miterlimit="10" d="M 173.601562 511.414062 L 173.601562 514.730469 " transform="matrix(1, 0, 0, -1, -35, 557)"/>
<path fill="none" stroke-width="0.8" stroke-linecap="round" stroke-linejoin="round" stroke="rgb(0%, 0%, 0%)" stroke-opacity="1" stroke-miterlimit="10" d="M 173.601562 525.175781 L 173.601562 528.636719 " transform="matrix(1, 0, 0, -1, -35, 557)"/>
<path fill="none" stroke-width="0.8" stroke-linecap="round" stroke-linejoin="round" stroke="rgb(0%, 0%, 0%)" stroke-opacity="1" stroke-miterlimit="10" d="M 180.003906 526.765625 L 173.601562 526.765625 " transform="matrix(1, 0, 0, -1, -35, 557)"/>
<path fill="none" stroke-width="0.8" stroke-linecap="round" stroke-linejoin="round" stroke="rgb(0%, 0%, 0%)" stroke-opacity="1" stroke-miterlimit="10" d="M 180.003906 519.988281 L 173.601562 519.988281 " transform="matrix(1, 0, 0, -1, -35, 557)"/>
<path fill="none" stroke-width="0.8" stroke-linecap="round" stroke-linejoin="round" stroke="rgb(0%, 0%, 0%)" stroke-opacity="1" stroke-miterlimit="10" d="M 173.632812 517.433594 L 173.632812 522.421875 " transform="matrix(1, 0, 0, -1, -35, 557)"/>
<path fill-rule="evenodd" fill="rgb(0%, 0%, 0%)" fill-opacity="1" stroke-width="0.8" stroke-linecap="round" stroke-linejoin="round" stroke="rgb(0%, 0%, 0%)" stroke-opacity="1" stroke-miterlimit="10" d="M 173.601562 519.996094 L 177.441406 521.578125 L 177.441406 518.410156 Z M 173.601562 519.996094 " transform="matrix(1, 0, 0, -1, -35, 557)"/>
<path fill="none" stroke-width="0.8" stroke-linecap="round" stroke-linejoin="round" stroke="rgb(0%, 0%, 0%)" stroke-opacity="1" stroke-miterlimit="10" d="M 173.601562 513.21875 L 180.003906 513.21875 " transform="matrix(1, 0, 0, -1, -35, 557)"/>
<path fill="none" stroke-width="0.8" stroke-linecap="round" stroke-linejoin="round" stroke="rgb(0%, 0%, 0%)" stroke-opacity="1" stroke-miterlimit="10" d="M 180.003906 519.988281 L 180.003906 513.210938 " transform="matrix(1, 0, 0, -1, -35, 557)"/>
<path fill-rule="evenodd" fill="rgb(100%, 100%, 100%)" fill-opacity="1" d="M 149.011719 89.015625 L 133.003906 89.015625 L 133.003906 65.015625 L 149.011719 65.015625 Z M 149.011719 89.015625 "/>
<path fill="none" stroke-width="0.8" stroke-linecap="round" stroke-linejoin="round" stroke="rgb(0%, 0%, 0%)" stroke-opacity="1" stroke-miterlimit="10" d="M 184.003906 484 L 192.007812 484 " transform="matrix(1, 0, 0, -1, -35, 557)"/>
<path fill-rule="evenodd" fill="rgb(0%, 0%, 0%)" fill-opacity="1" stroke-width="0.8" stroke-linecap="butt" stroke-linejoin="round" stroke="rgb(0%, 0%, 0%)" stroke-opacity="1" stroke-miterlimit="10" d="M 188.007812 484 L 192.007812 476 L 184.003906 476 L 188.007812 484 " transform="matrix(1, 0, 0, -1, -35, 557)"/>
<path fill="none" stroke-width="0.8" stroke-linecap="round" stroke-linejoin="round" stroke="rgb(0%, 0%, 0%)" stroke-opacity="1" stroke-miterlimit="10" d="M 188.007812 484 L 188.007812 492 " transform="matrix(1, 0, 0, -1, -35, 557)"/>
<path fill="none" stroke-width="0.8" stroke-linecap="round" stroke-linejoin="round" stroke="rgb(0%, 0%, 0%)" stroke-opacity="1" stroke-miterlimit="10" d="M 188.007812 476 L 188.007812 468 " transform="matrix(1, 0, 0, -1, -35, 557)"/>
<path fill="none" stroke-width="0.8" stroke-linecap="round" stroke-linejoin="round" stroke="rgb(0%, 0%, 0%)" stroke-opacity="1" stroke-miterlimit="10" d="M 188.007812 492 L 180.003906 492 " transform="matrix(1, 0, 0, -1, -35, 557)"/>
<path fill="none" stroke-width="0.8" stroke-linecap="round" stroke-linejoin="round" stroke="rgb(0%, 0%, 0%)" stroke-opacity="1" stroke-miterlimit="10" d="M 188.007812 468 L 180.003906 468 " transform="matrix(1, 0, 0, -1, -35, 557)"/>
<path fill="none" stroke-width="0.8" stroke-linecap="round" stroke-linejoin="round" stroke="rgb(0%, 0%, 0%)" stroke-opacity="1" stroke-miterlimit="10" d="M 180.003906 486.765625 L 180.003906 495.988281 " transform="matrix(1, 0, 0, -1, -35, 557)"/>
<path fill="none" stroke-width="0.8" stroke-linecap="round" stroke-linejoin="round" stroke="rgb(0%, 0%, 0%)" stroke-opacity="1" stroke-miterlimit="10" d="M 180.003906 464 L 180.003906 473.21875 " transform="matrix(1, 0, 0, -1, -35, 557)"/>
<path fill="none" stroke-width="0.8" stroke-linecap="round" stroke-linejoin="round" stroke="rgb(0%, 0%, 0%)" stroke-opacity="1" stroke-miterlimit="10" d="M 170.398438 480 L 164 480 " transform="matrix(1, 0, 0, -1, -35, 557)"/>
<path fill="none" stroke-width="1.2" stroke-linecap="round" stroke-linejoin="round" stroke="rgb(0%, 0%, 0%)" stroke-opacity="1" stroke-miterlimit="10" d="M 170.398438 486.765625 L 170.398438 473.214844 " transform="matrix(1, 0, 0, -1, -35, 557)"/>
<path fill="none" stroke-width="0.8" stroke-linecap="round" stroke-linejoin="round" stroke="rgb(0%, 0%, 0%)" stroke-opacity="1" stroke-miterlimit="10" d="M 173.601562 471.414062 L 173.601562 474.730469 " transform="matrix(1, 0, 0, -1, -35, 557)"/>
<path fill="none" stroke-width="0.8" stroke-linecap="round" stroke-linejoin="round" stroke="rgb(0%, 0%, 0%)" stroke-opacity="1" stroke-miterlimit="10" d="M 173.601562 485.175781 L 173.601562 488.636719 " transform="matrix(1, 0, 0, -1, -35, 557)"/>
<path fill="none" stroke-width="0.8" stroke-linecap="round" stroke-linejoin="round" stroke="rgb(0%, 0%, 0%)" stroke-opacity="1" stroke-miterlimit="10" d="M 180.003906 486.765625 L 173.601562 486.765625 " transform="matrix(1, 0, 0, -1, -35, 557)"/>
<path fill="none" stroke-width="0.8" stroke-linecap="round" stroke-linejoin="round" stroke="rgb(0%, 0%, 0%)" stroke-opacity="1" stroke-miterlimit="10" d="M 180.003906 479.988281 L 173.601562 479.988281 " transform="matrix(1, 0, 0, -1, -35, 557)"/>
<path fill="none" stroke-width="0.8" stroke-linecap="round" stroke-linejoin="round" stroke="rgb(0%, 0%, 0%)" stroke-opacity="1" stroke-miterlimit="10" d="M 173.632812 477.433594 L 173.632812 482.421875 " transform="matrix(1, 0, 0, -1, -35, 557)"/>
<path fill-rule="evenodd" fill="rgb(0%, 0%, 0%)" fill-opacity="1" stroke-width="0.8" stroke-linecap="round" stroke-linejoin="round" stroke="rgb(0%, 0%, 0%)" stroke-opacity="1" stroke-miterlimit="10" d="M 173.601562 479.996094 L 177.441406 481.578125 L 177.441406 478.410156 Z M 173.601562 479.996094 " transform="matrix(1, 0, 0, -1, -35, 557)"/>
<path fill="none" stroke-width="0.8" stroke-linecap="round" stroke-linejoin="round" stroke="rgb(0%, 0%, 0%)" stroke-opacity="1" stroke-miterlimit="10" d="M 173.601562 473.21875 L 180.003906 473.21875 " transform="matrix(1, 0, 0, -1, -35, 557)"/>
<path fill="none" stroke-width="0.8" stroke-linecap="round" stroke-linejoin="round" stroke="rgb(0%, 0%, 0%)" stroke-opacity="1" stroke-miterlimit="10" d="M 180.003906 479.988281 L 180.003906 473.210938 " transform="matrix(1, 0, 0, -1, -35, 557)"/>
<path fill="none" stroke-width="0.8" stroke-linecap="round" stroke-linejoin="round" stroke="rgb(0%, 0%, 0%)" stroke-opacity="1" stroke-miterlimit="10" d="M 280 544 L 280 456 " transform="matrix(1, 0, 0, -1, -35, 557)"/>
<path fill-rule="evenodd" fill="rgb(0%, 0%, 0%)" fill-opacity="1" d="M 146.800781 101 C 146.800781 98.601562 143.199219 98.601562 143.199219 101 C 143.199219 103.398438 146.800781 103.398438 146.800781 101 Z M 146.800781 101 "/>
<path fill-rule="evenodd" fill="rgb(0%, 0%, 0%)" fill-opacity="1" d="M 246.800781 101 C 246.800781 98.601562 243.199219 98.601562 243.199219 101 C 243.199219 103.398438 246.800781 103.398438 246.800781 101 Z M 246.800781 101 "/>
<path fill-rule="evenodd" fill="rgb(100%, 100%, 100%)" fill-opacity="1" stroke-width="0.4" stroke-linecap="round" stroke-linejoin="round" stroke="rgb(0%, 0%, 0%)" stroke-opacity="1" stroke-miterlimit="10" d="M 116.003906 452 L 116.003906 548 L 156.003906 548 L 156.003906 452 Z M 116.003906 452 " transform="matrix(1, 0, 0, -1, -35, 557)"/>
<g clip-path="url(#clip-2)">
<g fill="rgb(0%, 0%, 0%)" fill-opacity="1">
<use xlink:href="#glyph-2-0" x="90.716" y="79.764204"/>
<use xlink:href="#glyph-2-1" x="96.239279" y="79.764204"/>
<use xlink:href="#glyph-2-2" x="98.590459" y="79.764204"/>
<use xlink:href="#glyph-2-3" x="100.941638" y="79.764204"/>
<use xlink:href="#glyph-2-4" x="104.23329" y="79.764204"/>
<use xlink:href="#glyph-2-5" x="107.995177" y="79.764204"/>
</g>
</g>
<path fill-rule="evenodd" fill="rgb(100%, 100%, 100%)" fill-opacity="1" d="M 89.007812 42.5 L 97.007812 42.5 L 97.007812 63.5 L 89.007812 63.5 Z M 89.007812 42.5 "/>
<path fill="none" stroke-width="0.8" stroke-linecap="round" stroke-linejoin="round" stroke="rgb(0%, 0%, 0%)" stroke-opacity="1" stroke-miterlimit="10" d="M 123.207031 498 C 123.207031 501 125.609375 502.5 128.007812 502.5 " transform="matrix(1, 0, 0, -1, -35, 557)"/>
<path fill="none" stroke-width="0.8" stroke-linecap="round" stroke-linejoin="round" stroke="rgb(0%, 0%, 0%)" stroke-opacity="1" stroke-miterlimit="10" d="M 128.007812 502.5 C 130.140625 502.5 131.207031 502 131.207031 501 " transform="matrix(1, 0, 0, -1, -35, 557)"/>
<path fill="none" stroke-width="0.8" stroke-linecap="round" stroke-linejoin="round" stroke="rgb(0%, 0%, 0%)" stroke-opacity="1" stroke-miterlimit="10" d="M 131.207031 501 C 131.207031 500 130.140625 499.5 128.007812 499.5 " transform="matrix(1, 0, 0, -1, -35, 557)"/>
<path fill="none" stroke-width="0.8" stroke-linecap="round" stroke-linejoin="round" stroke="rgb(0%, 0%, 0%)" stroke-opacity="1" stroke-miterlimit="10" d="M 128.007812 499.5 C 125.609375 499.5 123.207031 501 123.207031 504 " transform="matrix(1, 0, 0, -1, -35, 557)"/>
<path fill="none" stroke-width="0.8" stroke-linecap="round" stroke-linejoin="round" stroke="rgb(0%, 0%, 0%)" stroke-opacity="1" stroke-miterlimit="10" d="M 123.207031 504 C 123.207031 507 125.609375 508.5 128.007812 508.5 " transform="matrix(1, 0, 0, -1, -35, 557)"/>
<path fill="none" stroke-width="0.8" stroke-linecap="round" stroke-linejoin="round" stroke="rgb(0%, 0%, 0%)" stroke-opacity="1" stroke-miterlimit="10" d="M 128.007812 508.5 C 130.140625 508.5 131.207031 508 131.207031 507 " transform="matrix(1, 0, 0, -1, -35, 557)"/>
<path fill="none" stroke-width="0.8" stroke-linecap="round" stroke-linejoin="round" stroke="rgb(0%, 0%, 0%)" stroke-opacity="1" stroke-miterlimit="10" d="M 131.207031 507 C 131.207031 506 130.140625 505.5 128.007812 505.5 " transform="matrix(1, 0, 0, -1, -35, 557)"/>
<path fill="none" stroke-width="0.8" stroke-linecap="round" stroke-linejoin="round" stroke="rgb(0%, 0%, 0%)" stroke-opacity="1" stroke-miterlimit="10" d="M 128.007812 505.5 C 125.609375 505.5 123.207031 507 123.207031 510 " transform="matrix(1, 0, 0, -1, -35, 557)"/>
<path fill="none" stroke-width="0.8" stroke-linecap="round" stroke-linejoin="round" stroke="rgb(0%, 0%, 0%)" stroke-opacity="1" stroke-miterlimit="10" d="M 123.207031 510 C 123.207031 513 125.609375 514.5 128.007812 514.5 " transform="matrix(1, 0, 0, -1, -35, 557)"/>
<path fill="none" stroke-width="0.8" stroke-linecap="round" stroke-linejoin="round" stroke="rgb(0%, 0%, 0%)" stroke-opacity="1" stroke-miterlimit="10" d="M 128.007812 493.5 C 125.609375 493.5 123.207031 495 123.207031 498 " transform="matrix(1, 0, 0, -1, -35, 557)"/>
<path fill="none" stroke-width="0.8" stroke-linecap="round" stroke-linejoin="round" stroke="rgb(0%, 0%, 0%)" stroke-opacity="1" stroke-miterlimit="10" d="M 128.007812 493.5 L 128.007812 492 " transform="matrix(1, 0, 0, -1, -35, 557)"/>
<path fill="none" stroke-width="0.8" stroke-linecap="round" stroke-linejoin="round" stroke="rgb(0%, 0%, 0%)" stroke-opacity="1" stroke-miterlimit="10" d="M 128.007812 514.5 L 128.007812 516 " transform="matrix(1, 0, 0, -1, -35, 557)"/>
<path fill="none" stroke-width="0.8" stroke-linecap="round" stroke-linejoin="round" stroke="rgb(0%, 0%, 0%)" stroke-opacity="1" stroke-miterlimit="10" d="M 144.007812 516 L 144.007812 492 " transform="matrix(1, 0, 0, -1, -35, 557)"/>
<path fill-rule="evenodd" fill="rgb(100%, 100%, 100%)" fill-opacity="1" d="M 103.152344 54.757812 L 103.152344 51.332031 L 115.039062 51.332031 L 115.039062 54.757812 Z M 103.152344 54.757812 "/>
<path fill="none" stroke-width="0.8" stroke-linecap="round" stroke-linejoin="round" stroke="rgb(0%, 0%, 0%)" stroke-opacity="1" stroke-miterlimit="10" d="M 144.007812 496 L 144.007812 501.753906 " transform="matrix(1, 0, 0, -1, -35, 557)"/>
<path fill="none" stroke-width="0.8" stroke-linecap="round" stroke-linejoin="round" stroke="rgb(0%, 0%, 0%)" stroke-opacity="1" stroke-miterlimit="10" d="M 144.007812 512 L 144.007812 506.195312 " transform="matrix(1, 0, 0, -1, -35, 557)"/>
<path fill="none" stroke-width="1.2" stroke-linecap="round" stroke-linejoin="round" stroke="rgb(0%, 0%, 0%)" stroke-opacity="1" stroke-miterlimit="10" d="M 138.152344 502.242188 L 150.023438 502.242188 " transform="matrix(1, 0, 0, -1, -35, 557)"/>
<path fill="none" stroke-width="1.2" stroke-linecap="round" stroke-linejoin="round" stroke="rgb(0%, 0%, 0%)" stroke-opacity="1" stroke-miterlimit="10" d="M 138.167969 505.667969 L 150.039062 505.667969 " transform="matrix(1, 0, 0, -1, -35, 557)"/>
<path fill-rule="evenodd" fill="rgb(100%, 100%, 100%)" fill-opacity="1" stroke-width="0.4" stroke-linecap="round" stroke-linejoin="round" stroke="rgb(0%, 0%, 0%)" stroke-opacity="1" stroke-miterlimit="10" d="M 304.003906 452 L 304.003906 548 L 344.003906 548 L 344.003906 452 Z M 304.003906 452 " transform="matrix(1, 0, 0, -1, -35, 557)"/>
<g clip-path="url(#clip-3)">
<g fill="rgb(0%, 0%, 0%)" fill-opacity="1">
<use xlink:href="#glyph-2-0" x="278.716" y="79.764204"/>
<use xlink:href="#glyph-2-1" x="284.239279" y="79.764204"/>
<use xlink:href="#glyph-2-2" x="286.590459" y="79.764204"/>
<use xlink:href="#glyph-2-3" x="288.941638" y="79.764204"/>
<use xlink:href="#glyph-2-4" x="292.23329" y="79.764204"/>
<use xlink:href="#glyph-2-5" x="295.995177" y="79.764204"/>
</g>
</g>
<path fill-rule="evenodd" fill="rgb(100%, 100%, 100%)" fill-opacity="1" d="M 277.007812 42.5 L 285.007812 42.5 L 285.007812 63.5 L 277.007812 63.5 Z M 277.007812 42.5 "/>
<path fill="none" stroke-width="0.8" stroke-linecap="round" stroke-linejoin="round" stroke="rgb(0%, 0%, 0%)" stroke-opacity="1" stroke-miterlimit="10" d="M 311.207031 498 C 311.207031 501 313.609375 502.5 316.007812 502.5 " transform="matrix(1, 0, 0, -1, -35, 557)"/>
<path fill="none" stroke-width="0.8" stroke-linecap="round" stroke-linejoin="round" stroke="rgb(0%, 0%, 0%)" stroke-opacity="1" stroke-miterlimit="10" d="M 316.007812 502.5 C 318.140625 502.5 319.207031 502 319.207031 501 " transform="matrix(1, 0, 0, -1, -35, 557)"/>
<path fill="none" stroke-width="0.8" stroke-linecap="round" stroke-linejoin="round" stroke="rgb(0%, 0%, 0%)" stroke-opacity="1" stroke-miterlimit="10" d="M 319.207031 501 C 319.207031 500 318.140625 499.5 316.007812 499.5 " transform="matrix(1, 0, 0, -1, -35, 557)"/>
<path fill="none" stroke-width="0.8" stroke-linecap="round" stroke-linejoin="round" stroke="rgb(0%, 0%, 0%)" stroke-opacity="1" stroke-miterlimit="10" d="M 316.007812 499.5 C 313.609375 499.5 311.207031 501 311.207031 504 " transform="matrix(1, 0, 0, -1, -35, 557)"/>
<path fill="none" stroke-width="0.8" stroke-linecap="round" stroke-linejoin="round" stroke="rgb(0%, 0%, 0%)" stroke-opacity="1" stroke-miterlimit="10" d="M 311.207031 504 C 311.207031 507 313.609375 508.5 316.007812 508.5 " transform="matrix(1, 0, 0, -1, -35, 557)"/>
<path fill="none" stroke-width="0.8" stroke-linecap="round" stroke-linejoin="round" stroke="rgb(0%, 0%, 0%)" stroke-opacity="1" stroke-miterlimit="10" d="M 316.007812 508.5 C 318.140625 508.5 319.207031 508 319.207031 507 " transform="matrix(1, 0, 0, -1, -35, 557)"/>
<path fill="none" stroke-width="0.8" stroke-linecap="round" stroke-linejoin="round" stroke="rgb(0%, 0%, 0%)" stroke-opacity="1" stroke-miterlimit="10" d="M 319.207031 507 C 319.207031 506 318.140625 505.5 316.007812 505.5 " transform="matrix(1, 0, 0, -1, -35, 557)"/>
<path fill="none" stroke-width="0.8" stroke-linecap="round" stroke-linejoin="round" stroke="rgb(0%, 0%, 0%)" stroke-opacity="1" stroke-miterlimit="10" d="M 316.007812 505.5 C 313.609375 505.5 311.207031 507 311.207031 510 " transform="matrix(1, 0, 0, -1, -35, 557)"/>
<path fill="none" stroke-width="0.8" stroke-linecap="round" stroke-linejoin="round" stroke="rgb(0%, 0%, 0%)" stroke-opacity="1" stroke-miterlimit="10" d="M 311.207031 510 C 311.207031 513 313.609375 514.5 316.007812 514.5 " transform="matrix(1, 0, 0, -1, -35, 557)"/>
<path fill="none" stroke-width="0.8" stroke-linecap="round" stroke-linejoin="round" stroke="rgb(0%, 0%, 0%)" stroke-opacity="1" stroke-miterlimit="10" d="M 316.007812 493.5 C 313.609375 493.5 311.207031 495 311.207031 498 " transform="matrix(1, 0, 0, -1, -35, 557)"/>
<path fill="none" stroke-width="0.8" stroke-linecap="round" stroke-linejoin="round" stroke="rgb(0%, 0%, 0%)" stroke-opacity="1" stroke-miterlimit="10" d="M 316.007812 493.5 L 316.007812 492 " transform="matrix(1, 0, 0, -1, -35, 557)"/>
<path fill="none" stroke-width="0.8" stroke-linecap="round" stroke-linejoin="round" stroke="rgb(0%, 0%, 0%)" stroke-opacity="1" stroke-miterlimit="10" d="M 316.007812 514.5 L 316.007812 516 " transform="matrix(1, 0, 0, -1, -35, 557)"/>
<path fill="none" stroke-width="0.8" stroke-linecap="round" stroke-linejoin="round" stroke="rgb(0%, 0%, 0%)" stroke-opacity="1" stroke-miterlimit="10" d="M 332.007812 516 L 332.007812 492 " transform="matrix(1, 0, 0, -1, -35, 557)"/>
<path fill-rule="evenodd" fill="rgb(100%, 100%, 100%)" fill-opacity="1" d="M 291.152344 54.757812 L 291.152344 51.332031 L 303.039062 51.332031 L 303.039062 54.757812 Z M 291.152344 54.757812 "/>
<path fill="none" stroke-width="0.8" stroke-linecap="round" stroke-linejoin="round" stroke="rgb(0%, 0%, 0%)" stroke-opacity="1" stroke-miterlimit="10" d="M 332.007812 496 L 332.007812 501.753906 " transform="matrix(1, 0, 0, -1, -35, 557)"/>
<path fill="none" stroke-width="0.8" stroke-linecap="round" stroke-linejoin="round" stroke="rgb(0%, 0%, 0%)" stroke-opacity="1" stroke-miterlimit="10" d="M 332.007812 512 L 332.007812 506.195312 " transform="matrix(1, 0, 0, -1, -35, 557)"/>
<path fill="none" stroke-width="1.2" stroke-linecap="round" stroke-linejoin="round" stroke="rgb(0%, 0%, 0%)" stroke-opacity="1" stroke-miterlimit="10" d="M 326.152344 502.242188 L 338.023438 502.242188 " transform="matrix(1, 0, 0, -1, -35, 557)"/>
<path fill="none" stroke-width="1.2" stroke-linecap="round" stroke-linejoin="round" stroke="rgb(0%, 0%, 0%)" stroke-opacity="1" stroke-miterlimit="10" d="M 326.167969 505.667969 L 338.039062 505.667969 " transform="matrix(1, 0, 0, -1, -35, 557)"/>
<path fill-rule="evenodd" fill="rgb(100%, 100%, 100%)" fill-opacity="1" d="M 249.011719 49.015625 L 233.003906 49.015625 L 233.003906 25.015625 L 249.011719 25.015625 Z M 249.011719 49.015625 "/>
<path fill="none" stroke-width="0.8" stroke-linecap="round" stroke-linejoin="round" stroke="rgb(0%, 0%, 0%)" stroke-opacity="1" stroke-miterlimit="10" d="M 284.003906 524 L 292.007812 524 " transform="matrix(1, 0, 0, -1, -35, 557)"/>
<path fill-rule="evenodd" fill="rgb(0%, 0%, 0%)" fill-opacity="1" stroke-width="0.8" stroke-linecap="butt" stroke-linejoin="round" stroke="rgb(0%, 0%, 0%)" stroke-opacity="1" stroke-miterlimit="10" d="M 288.007812 524 L 292.007812 516 L 284.003906 516 L 288.007812 524 " transform="matrix(1, 0, 0, -1, -35, 557)"/>
<path fill="none" stroke-width="0.8" stroke-linecap="round" stroke-linejoin="round" stroke="rgb(0%, 0%, 0%)" stroke-opacity="1" stroke-miterlimit="10" d="M 288.007812 524 L 288.007812 532 " transform="matrix(1, 0, 0, -1, -35, 557)"/>
<path fill="none" stroke-width="0.8" stroke-linecap="round" stroke-linejoin="round" stroke="rgb(0%, 0%, 0%)" stroke-opacity="1" stroke-miterlimit="10" d="M 288.007812 516 L 288.007812 508 " transform="matrix(1, 0, 0, -1, -35, 557)"/>
<path fill="none" stroke-width="0.8" stroke-linecap="round" stroke-linejoin="round" stroke="rgb(0%, 0%, 0%)" stroke-opacity="1" stroke-miterlimit="10" d="M 288.007812 532 L 280.003906 532 " transform="matrix(1, 0, 0, -1, -35, 557)"/>
<path fill="none" stroke-width="0.8" stroke-linecap="round" stroke-linejoin="round" stroke="rgb(0%, 0%, 0%)" stroke-opacity="1" stroke-miterlimit="10" d="M 288.007812 508 L 280.003906 508 " transform="matrix(1, 0, 0, -1, -35, 557)"/>
<path fill="none" stroke-width="0.8" stroke-linecap="round" stroke-linejoin="round" stroke="rgb(0%, 0%, 0%)" stroke-opacity="1" stroke-miterlimit="10" d="M 280.003906 526.765625 L 280.003906 535.988281 " transform="matrix(1, 0, 0, -1, -35, 557)"/>
<path fill="none" stroke-width="0.8" stroke-linecap="round" stroke-linejoin="round" stroke="rgb(0%, 0%, 0%)" stroke-opacity="1" stroke-miterlimit="10" d="M 280.003906 504 L 280.003906 513.21875 " transform="matrix(1, 0, 0, -1, -35, 557)"/>
<path fill="none" stroke-width="0.8" stroke-linecap="round" stroke-linejoin="round" stroke="rgb(0%, 0%, 0%)" stroke-opacity="1" stroke-miterlimit="10" d="M 270.398438 520 L 264 520 " transform="matrix(1, 0, 0, -1, -35, 557)"/>
<path fill="none" stroke-width="1.2" stroke-linecap="round" stroke-linejoin="round" stroke="rgb(0%, 0%, 0%)" stroke-opacity="1" stroke-miterlimit="10" d="M 270.398438 526.765625 L 270.398438 513.214844 " transform="matrix(1, 0, 0, -1, -35, 557)"/>
<path fill="none" stroke-width="0.8" stroke-linecap="round" stroke-linejoin="round" stroke="rgb(0%, 0%, 0%)" stroke-opacity="1" stroke-miterlimit="10" d="M 273.601562 511.414062 L 273.601562 514.730469 " transform="matrix(1, 0, 0, -1, -35, 557)"/>
<path fill="none" stroke-width="0.8" stroke-linecap="round" stroke-linejoin="round" stroke="rgb(0%, 0%, 0%)" stroke-opacity="1" stroke-miterlimit="10" d="M 273.601562 525.175781 L 273.601562 528.636719 " transform="matrix(1, 0, 0, -1, -35, 557)"/>
<path fill="none" stroke-width="0.8" stroke-linecap="round" stroke-linejoin="round" stroke="rgb(0%, 0%, 0%)" stroke-opacity="1" stroke-miterlimit="10" d="M 280.003906 526.765625 L 273.601562 526.765625 " transform="matrix(1, 0, 0, -1, -35, 557)"/>
<path fill="none" stroke-width="0.8" stroke-linecap="round" stroke-linejoin="round" stroke="rgb(0%, 0%, 0%)" stroke-opacity="1" stroke-miterlimit="10" d="M 280.003906 519.988281 L 273.601562 519.988281 " transform="matrix(1, 0, 0, -1, -35, 557)"/>
<path fill="none" stroke-width="0.8" stroke-linecap="round" stroke-linejoin="round" stroke="rgb(0%, 0%, 0%)" stroke-opacity="1" stroke-miterlimit="10" d="M 273.632812 517.433594 L 273.632812 522.421875 " transform="matrix(1, 0, 0, -1, -35, 557)"/>
<path fill-rule="evenodd" fill="rgb(0%, 0%, 0%)" fill-opacity="1" stroke-width="0.8" stroke-linecap="round" stroke-linejoin="round" stroke="rgb(0%, 0%, 0%)" stroke-opacity="1" stroke-miterlimit="10" d="M 273.601562 519.996094 L 277.441406 521.578125 L 277.441406 518.410156 Z M 273.601562 519.996094 " transform="matrix(1, 0, 0, -1, -35, 557)"/>
<path fill="none" stroke-width="0.8" stroke-linecap="round" stroke-linejoin="round" stroke="rgb(0%, 0%, 0%)" stroke-opacity="1" stroke-miterlimit="10" d="M 273.601562 513.21875 L 280.003906 513.21875 " transform="matrix(1, 0, 0, -1, -35, 557)"/>
<path fill="none" stroke-width="0.8" stroke-linecap="round" stroke-linejoin="round" stroke="rgb(0%, 0%, 0%)" stroke-opacity="1" stroke-miterlimit="10" d="M 280.003906 519.988281 L 280.003906 513.210938 " transform="matrix(1, 0, 0, -1, -35, 557)"/>
<path fill-rule="evenodd" fill="rgb(100%, 100%, 100%)" fill-opacity="1" d="M 249.011719 89.015625 L 233.003906 89.015625 L 233.003906 65.015625 L 249.011719 65.015625 Z M 249.011719 89.015625 "/>
<path fill="none" stroke-width="0.8" stroke-linecap="round" stroke-linejoin="round" stroke="rgb(0%, 0%, 0%)" stroke-opacity="1" stroke-miterlimit="10" d="M 284.003906 484 L 292.007812 484 " transform="matrix(1, 0, 0, -1, -35, 557)"/>
<path fill-rule="evenodd" fill="rgb(0%, 0%, 0%)" fill-opacity="1" stroke-width="0.8" stroke-linecap="butt" stroke-linejoin="round" stroke="rgb(0%, 0%, 0%)" stroke-opacity="1" stroke-miterlimit="10" d="M 288.007812 484 L 292.007812 476 L 284.003906 476 L 288.007812 484 " transform="matrix(1, 0, 0, -1, -35, 557)"/>
<path fill="none" stroke-width="0.8" stroke-linecap="round" stroke-linejoin="round" stroke="rgb(0%, 0%, 0%)" stroke-opacity="1" stroke-miterlimit="10" d="M 288.007812 484 L 288.007812 492 " transform="matrix(1, 0, 0, -1, -35, 557)"/>
<path fill="none" stroke-width="0.8" stroke-linecap="round" stroke-linejoin="round" stroke="rgb(0%, 0%, 0%)" stroke-opacity="1" stroke-miterlimit="10" d="M 288.007812 476 L 288.007812 468 " transform="matrix(1, 0, 0, -1, -35, 557)"/>
<path fill="none" stroke-width="0.8" stroke-linecap="round" stroke-linejoin="round" stroke="rgb(0%, 0%, 0%)" stroke-opacity="1" stroke-miterlimit="10" d="M 288.007812 492 L 280.003906 492 " transform="matrix(1, 0, 0, -1, -35, 557)"/>
<path fill="none" stroke-width="0.8" stroke-linecap="round" stroke-linejoin="round" stroke="rgb(0%, 0%, 0%)" stroke-opacity="1" stroke-miterlimit="10" d="M 288.007812 468 L 280.003906 468 " transform="matrix(1, 0, 0, -1, -35, 557)"/>
<path fill="none" stroke-width="0.8" stroke-linecap="round" stroke-linejoin="round" stroke="rgb(0%, 0%, 0%)" stroke-opacity="1" stroke-miterlimit="10" d="M 280.003906 486.765625 L 280.003906 495.988281 " transform="matrix(1, 0, 0, -1, -35, 557)"/>
<path fill="none" stroke-width="0.8" stroke-linecap="round" stroke-linejoin="round" stroke="rgb(0%, 0%, 0%)" stroke-opacity="1" stroke-miterlimit="10" d="M 280.003906 464 L 280.003906 473.21875 " transform="matrix(1, 0, 0, -1, -35, 557)"/>
<path fill="none" stroke-width="0.8" stroke-linecap="round" stroke-linejoin="round" stroke="rgb(0%, 0%, 0%)" stroke-opacity="1" stroke-miterlimit="10" d="M 270.398438 480 L 264 480 " transform="matrix(1, 0, 0, -1, -35, 557)"/>
<path fill="none" stroke-width="1.2" stroke-linecap="round" stroke-linejoin="round" stroke="rgb(0%, 0%, 0%)" stroke-opacity="1" stroke-miterlimit="10" d="M 270.398438 486.765625 L 270.398438 473.214844 " transform="matrix(1, 0, 0, -1, -35, 557)"/>
<path fill="none" stroke-width="0.8" stroke-linecap="round" stroke-linejoin="round" stroke="rgb(0%, 0%, 0%)" stroke-opacity="1" stroke-miterlimit="10" d="M 273.601562 471.414062 L 273.601562 474.730469 " transform="matrix(1, 0, 0, -1, -35, 557)"/>
<path fill="none" stroke-width="0.8" stroke-linecap="round" stroke-linejoin="round" stroke="rgb(0%, 0%, 0%)" stroke-opacity="1" stroke-miterlimit="10" d="M 273.601562 485.175781 L 273.601562 488.636719 " transform="matrix(1, 0, 0, -1, -35, 557)"/>
<path fill="none" stroke-width="0.8" stroke-linecap="round" stroke-linejoin="round" stroke="rgb(0%, 0%, 0%)" stroke-opacity="1" stroke-miterlimit="10" d="M 280.003906 486.765625 L 273.601562 486.765625 " transform="matrix(1, 0, 0, -1, -35, 557)"/>
<path fill="none" stroke-width="0.8" stroke-linecap="round" stroke-linejoin="round" stroke="rgb(0%, 0%, 0%)" stroke-opacity="1" stroke-miterlimit="10" d="M 280.003906 479.988281 L 273.601562 479.988281 " transform="matrix(1, 0, 0, -1, -35, 557)"/>
<path fill="none" stroke-width="0.8" stroke-linecap="round" stroke-linejoin="round" stroke="rgb(0%, 0%, 0%)" stroke-opacity="1" stroke-miterlimit="10" d="M 273.632812 477.433594 L 273.632812 482.421875 " transform="matrix(1, 0, 0, -1, -35, 557)"/>
<path fill-rule="evenodd" fill="rgb(0%, 0%, 0%)" fill-opacity="1" stroke-width="0.8" stroke-linecap="round" stroke-linejoin="round" stroke="rgb(0%, 0%, 0%)" stroke-opacity="1" stroke-miterlimit="10" d="M 273.601562 479.996094 L 277.441406 481.578125 L 277.441406 478.410156 Z M 273.601562 479.996094 " transform="matrix(1, 0, 0, -1, -35, 557)"/>
<path fill="none" stroke-width="0.8" stroke-linecap="round" stroke-linejoin="round" stroke="rgb(0%, 0%, 0%)" stroke-opacity="1" stroke-miterlimit="10" d="M 273.601562 473.21875 L 280.003906 473.21875 " transform="matrix(1, 0, 0, -1, -35, 557)"/>
<path fill="none" stroke-width="0.8" stroke-linecap="round" stroke-linejoin="round" stroke="rgb(0%, 0%, 0%)" stroke-opacity="1" stroke-miterlimit="10" d="M 280.003906 479.988281 L 280.003906 473.210938 " transform="matrix(1, 0, 0, -1, -35, 557)"/>
<g clip-path="url(#clip-4)">
<g fill="rgb(0%, 0%, 0%)" fill-opacity="1">
<use xlink:href="#glyph-1-0" x="383.808" y="71.8195"/>
<use xlink:href="#glyph-1-1" x="383.808" y="65.323885"/>
<use xlink:href="#glyph-1-2" x="383.808" y="60.342585"/>
<use xlink:href="#glyph-1-3" x="383.808" y="56.447208"/>
<use xlink:href="#glyph-1-5" x="383.808" y="49.264174"/>
</g>
</g>
<path fill="none" stroke-width="0.8" stroke-linecap="butt" stroke-linejoin="round" stroke="rgb(0%, 0%, 0%)" stroke-opacity="1" stroke-miterlimit="10" d="M 60 484 L 60 484 " transform="matrix(1, 0, 0, -1, -35, 557)"/>
<path fill-rule="evenodd" fill="rgb(100%, 100%, 100%)" fill-opacity="1" stroke-width="0.8" stroke-linecap="butt" stroke-linejoin="round" stroke="rgb(0%, 0%, 0%)" stroke-opacity="1" stroke-miterlimit="10" d="M 68 500 C 68 504.417969 64.417969 508 60 508 C 55.582031 508 52 504.417969 52 500 C 52 495.582031 55.582031 492 60 492 C 64.417969 492 68 495.582031 68 500 " transform="matrix(1, 0, 0, -1, -35, 557)"/>
<path fill="none" stroke-width="0.8" stroke-linecap="round" stroke-linejoin="round" stroke="rgb(0%, 0%, 0%)" stroke-opacity="1" stroke-miterlimit="10" d="M 60 508 L 60 516 " transform="matrix(1, 0, 0, -1, -35, 557)"/>
<path fill="none" stroke-width="0.8" stroke-linecap="round" stroke-linejoin="round" stroke="rgb(0%, 0%, 0%)" stroke-opacity="1" stroke-miterlimit="10" d="M 60 492 L 60 484 " transform="matrix(1, 0, 0, -1, -35, 557)"/>
<path fill="none" stroke-width="0.4" stroke-linecap="round" stroke-linejoin="round" stroke="rgb(0%, 0%, 0%)" stroke-opacity="1" stroke-miterlimit="10" d="M 58 503 L 62 503 " transform="matrix(1, 0, 0, -1, -35, 557)"/>
<path fill="none" stroke-width="0.4" stroke-linecap="round" stroke-linejoin="round" stroke="rgb(0%, 0%, 0%)" stroke-opacity="1" stroke-miterlimit="10" d="M 60 501 L 60 505 " transform="matrix(1, 0, 0, -1, -35, 557)"/>
<path fill="none" stroke-width="0.4" stroke-linecap="round" stroke-linejoin="round" stroke="rgb(0%, 0%, 0%)" stroke-opacity="1" stroke-miterlimit="10" d="M 58.199219 496 L 61.800781 496 " transform="matrix(1, 0, 0, -1, -35, 557)"/>
<path fill="none" stroke-width="0.8" stroke-linecap="butt" stroke-linejoin="round" stroke="rgb(0%, 0%, 0%)" stroke-opacity="1" stroke-miterlimit="10" d="M 400 484 L 400 484 " transform="matrix(1, 0, 0, -1, -35, 557)"/>
<path fill-rule="evenodd" fill="rgb(100%, 100%, 100%)" fill-opacity="1" stroke-width="0.8" stroke-linecap="butt" stroke-linejoin="round" stroke="rgb(0%, 0%, 0%)" stroke-opacity="1" stroke-miterlimit="10" d="M 392 500 C 392 504.417969 395.582031 508 400 508 C 404.417969 508 408 504.417969 408 500 C 408 495.582031 404.417969 492 400 492 C 395.582031 492 392 495.582031 392 500 " transform="matrix(1, 0, 0, -1, -35, 557)"/>
<path fill="none" stroke-width="0.8" stroke-linecap="round" stroke-linejoin="round" stroke="rgb(0%, 0%, 0%)" stroke-opacity="1" stroke-miterlimit="10" d="M 400 508 L 400 516 " transform="matrix(1, 0, 0, -1, -35, 557)"/>
<path fill="none" stroke-width="0.8" stroke-linecap="round" stroke-linejoin="round" stroke="rgb(0%, 0%, 0%)" stroke-opacity="1" stroke-miterlimit="10" d="M 400 492 L 400 484 " transform="matrix(1, 0, 0, -1, -35, 557)"/>
<path fill="none" stroke-width="0.4" stroke-linecap="round" stroke-linejoin="round" stroke="rgb(0%, 0%, 0%)" stroke-opacity="1" stroke-miterlimit="10" d="M 402 503 L 398 503 " transform="matrix(1, 0, 0, -1, -35, 557)"/>
<path fill="none" stroke-width="0.4" stroke-linecap="round" stroke-linejoin="round" stroke="rgb(0%, 0%, 0%)" stroke-opacity="1" stroke-miterlimit="10" d="M 400 501 L 400 505 " transform="matrix(1, 0, 0, -1, -35, 557)"/>
<path fill="none" stroke-width="0.4" stroke-linecap="round" stroke-linejoin="round" stroke="rgb(0%, 0%, 0%)" stroke-opacity="1" stroke-miterlimit="10" d="M 401.800781 496 L 398.199219 496 " transform="matrix(1, 0, 0, -1, -35, 557)"/>
<path fill="none" stroke-width="0.8" stroke-linecap="round" stroke-linejoin="round" stroke="rgb(0%, 0%, 0%)" stroke-opacity="1" stroke-miterlimit="10" d="M 240 496 L 240 436 " transform="matrix(1, 0, 0, -1, -35, 557)"/>
<path fill-rule="evenodd" fill="rgb(0%, 0%, 0%)" fill-opacity="1" stroke-width="0.8" stroke-linecap="round" stroke-linejoin="round" stroke="rgb(0%, 0%, 0%)" stroke-opacity="1" stroke-miterlimit="10" d="M 240 436 L 241 439 L 239 439 Z M 240 436 " transform="matrix(1, 0, 0, -1, -35, 557)"/>
<path fill="none" stroke-width="0.8" stroke-linecap="round" stroke-linejoin="round" stroke="rgb(0%, 0%, 0%)" stroke-opacity="1" stroke-miterlimit="10" d="M 256 496 L 256 436 " transform="matrix(1, 0, 0, -1, -35, 557)"/>
<path fill-rule="evenodd" fill="rgb(0%, 0%, 0%)" fill-opacity="1" stroke-width="0.8" stroke-linecap="round" stroke-linejoin="round" stroke="rgb(0%, 0%, 0%)" stroke-opacity="1" stroke-miterlimit="10" d="M 256 436 L 257 439 L 255 439 Z M 256 436 " transform="matrix(1, 0, 0, -1, -35, 557)"/>
<path fill-rule="evenodd" fill="rgb(100%, 100%, 100%)" fill-opacity="1" stroke-width="0.4" stroke-linecap="round" stroke-linejoin="round" stroke="rgb(0%, 0%, 0%)" stroke-opacity="1" stroke-miterlimit="10" d="M 259.992188 506 L 259.992188 494 L 236 494 L 236 506 Z M 259.992188 506 " transform="matrix(1, 0, 0, -1, -35, 557)"/>
<g clip-path="url(#clip-5)">
<g fill="rgb(0%, 0%, 0%)" fill-opacity="1">
<use xlink:href="#glyph-3-0" x="203.136476" y="58.693"/>
<use xlink:href="#glyph-3-1" x="207.908561" y="58.693"/>
<use xlink:href="#glyph-3-2" x="212.680646" y="58.693"/>
<use xlink:href="#glyph-3-3" x="216.06793" y="58.693"/>
<use xlink:href="#glyph-3-4" x="219.455214" y="58.693"/>
</g>
</g>
<path fill-rule="evenodd" fill="rgb(100%, 100%, 100%)" fill-opacity="1" stroke-width="0.4" stroke-linecap="round" stroke-linejoin="round" stroke="rgb(0%, 0%, 0%)" stroke-opacity="1" stroke-miterlimit="10" d="M 248 436 L 248 424 L 232 424 L 232 436 Z M 248 436 " transform="matrix(1, 0, 0, -1, -35, 557)"/>
<g clip-path="url(#clip-6)">
<g fill="rgb(0%, 0%, 0%)" fill-opacity="1">
<use xlink:href="#glyph-3-5" x="197.669128" y="128.693"/>
<use xlink:href="#glyph-3-6" x="202.550802" y="128.693"/>
<use xlink:href="#glyph-3-0" x="207.552027" y="128.693"/>
</g>
</g>
<path fill-rule="evenodd" fill="rgb(100%, 100%, 100%)" fill-opacity="1" stroke-width="0.4" stroke-linecap="round" stroke-linejoin="round" stroke="rgb(0%, 0%, 0%)" stroke-opacity="1" stroke-miterlimit="10" d="M 278 436 L 278 420 L 250 420 L 250 436 Z M 278 436 " transform="matrix(1, 0, 0, -1, -35, 557)"/>
<g clip-path="url(#clip-7)">
<g fill="rgb(0%, 0%, 0%)" fill-opacity="1">
<use xlink:href="#glyph-3-7" x="218.96796" y="134.693"/>
<use xlink:href="#glyph-3-8" x="222.011534" y="134.693"/>
<use xlink:href="#glyph-3-9" x="226.494704" y="134.693"/>
<use xlink:href="#glyph-3-10" x="233.104889" y="134.693"/>
</g>
</g>
<path fill-rule="evenodd" fill="rgb(100%, 100%, 100%)" fill-opacity="1" stroke-width="0.4" stroke-linecap="round" stroke-linejoin="round" stroke="rgb(0%, 0%, 0%)" stroke-opacity="1" stroke-miterlimit="10" d="M 262 436 L 262 428 L 250 428 L 250 436 Z M 262 436 " transform="matrix(1, 0, 0, -1, -35, 557)"/>
<g clip-path="url(#clip-8)">
<g fill="rgb(0%, 0%, 0%)" fill-opacity="1">
<use xlink:href="#glyph-3-1" x="216.572413" y="126.693"/>
<use xlink:href="#glyph-3-11" x="221.344499" y="126.693"/>
</g>
</g>
<path fill="none" stroke-width="0.8" stroke-linecap="round" stroke-linejoin="round" stroke="rgb(0%, 0%, 0%)" stroke-opacity="1" stroke-miterlimit="10" d="M 108.019531 428 L 196 428 " transform="matrix(1, 0, 0, -1, -35, 557)"/>
<path fill-rule="evenodd" fill="rgb(0%, 0%, 0%)" fill-opacity="1" stroke-width="0.8" stroke-linecap="round" stroke-linejoin="round" stroke="rgb(0%, 0%, 0%)" stroke-opacity="1" stroke-miterlimit="10" d="M 196 428 L 193 429 L 193 427 Z M 196 428 " transform="matrix(1, 0, 0, -1, -35, 557)"/>
<path fill-rule="evenodd" fill="rgb(100%, 100%, 100%)" fill-opacity="1" stroke-width="0.4" stroke-linecap="round" stroke-linejoin="round" stroke="rgb(0%, 0%, 0%)" stroke-opacity="1" stroke-miterlimit="10" d="M 212 434 L 212 422 L 196 422 L 196 434 Z M 212 434 " transform="matrix(1, 0, 0, -1, -35, 557)"/>
<g clip-path="url(#clip-9)">
<g fill="rgb(0%, 0%, 0%)" fill-opacity="1">
<use xlink:href="#glyph-3-5" x="161.669128" y="130.693"/>
<use xlink:href="#glyph-3-6" x="166.550802" y="130.693"/>
<use xlink:href="#glyph-3-0" x="171.552027" y="130.693"/>
</g>
</g>
<path fill="none" stroke-width="0.8" stroke-linecap="round" stroke-linejoin="round" stroke="rgb(0%, 0%, 0%)" stroke-opacity="1" stroke-miterlimit="10" d="M 108 412 L 108 408 " transform="matrix(1, 0, 0, -1, -35, 557)"/>
<path fill="none" stroke-width="0.8" stroke-linecap="round" stroke-linejoin="round" stroke="rgb(0%, 0%, 0%)" stroke-opacity="1" stroke-miterlimit="10" d="M 104 408 L 112 408 L 108 404 Z M 104 408 " transform="matrix(1, 0, 0, -1, -35, 557)"/>
<path fill-rule="evenodd" fill="rgb(0%, 0%, 0%)" fill-opacity="1" d="M 74.21875 129 C 74.21875 127.398438 71.820312 127.398438 71.820312 129 C 71.820312 130.601562 74.21875 130.601562 74.21875 129 Z M 74.21875 129 "/>
<path fill-rule="evenodd" fill="rgb(0%, 0%, 0%)" fill-opacity="1" d="M 74.800781 13 C 74.800781 10.601562 71.199219 10.601562 71.199219 13 C 71.199219 15.398438 74.800781 15.398438 74.800781 13 Z M 74.800781 13 "/>
<path fill="none" stroke-width="0.8" stroke-linecap="round" stroke-linejoin="round" stroke="rgb(0%, 0%, 0%)" stroke-opacity="1" stroke-miterlimit="10" d="M 108 412 L 108 544 " transform="matrix(1, 0, 0, -1, -35, 557)"/>
<path fill-rule="evenodd" fill="rgb(100%, 100%, 100%)" fill-opacity="1" d="M 73.363281 102.96875 C 70.734375 103.433594 70.042969 99.492188 72.667969 99.03125 C 75.292969 98.566406 75.988281 102.507812 73.363281 102.96875 Z M 73.363281 102.96875 "/>
<path fill="none" stroke-width="0.8" stroke-linecap="round" stroke-linejoin="round" stroke="rgb(0%, 0%, 0%)" stroke-opacity="1" stroke-miterlimit="10" d="M 108.015625 454 C 105.347656 454 105.347656 458 108.015625 458 " transform="matrix(1, 0, 0, -1, -35, 557)"/>
<path fill="none" stroke-width="0.8" stroke-linecap="round" stroke-linejoin="round" stroke="rgb(0%, 0%, 0%)" stroke-opacity="1" stroke-miterlimit="10" d="M 106.015625 456 L 110.015625 456 " transform="matrix(1, 0, 0, -1, -35, 557)"/>
<path fill-rule="evenodd" fill="rgb(100%, 100%, 100%)" fill-opacity="1" d="M 75 133 L 71 133 L 71 141 L 75 141 Z M 75 133 "/>
<path fill="none" stroke-width="0.8" stroke-linecap="round" stroke-linejoin="round" stroke="rgb(0%, 0%, 0%)" stroke-opacity="1" stroke-miterlimit="10" d="M 108 423.601562 L 106 423 L 110 421.800781 L 106 420.601562 L 110 419.398438 L 106 418.199219 L 110 417 L 108 416.398438 " transform="matrix(1, 0, 0, -1, -35, 557)"/>
<path fill="none" stroke-width="0.8" stroke-linecap="round" stroke-linejoin="round" stroke="rgb(0%, 0%, 0%)" stroke-opacity="1" stroke-miterlimit="10" d="M 108 423.601562 L 108 426 " transform="matrix(1, 0, 0, -1, -35, 557)"/>
<path fill="none" stroke-width="0.8" stroke-linecap="round" stroke-linejoin="round" stroke="rgb(0%, 0%, 0%)" stroke-opacity="1" stroke-miterlimit="10" d="M 108 416.398438 L 108 414 " transform="matrix(1, 0, 0, -1, -35, 557)"/>
<path fill="none" stroke-width="0.8" stroke-linecap="round" stroke-linejoin="round" stroke="rgb(0%, 0%, 0%)" stroke-opacity="1" stroke-miterlimit="10" d="M 108 415.199219 L 108 415.199219 " transform="matrix(1, 0, 0, -1, -35, 557)"/>
<path fill-rule="evenodd" fill="rgb(100%, 100%, 100%)" fill-opacity="1" d="M 75 117 L 71 117 L 71 125 L 75 125 Z M 75 117 "/>
<path fill="none" stroke-width="0.8" stroke-linecap="round" stroke-linejoin="round" stroke="rgb(0%, 0%, 0%)" stroke-opacity="1" stroke-miterlimit="10" d="M 108 439.601562 L 106 439 L 110 437.800781 L 106 436.601562 L 110 435.398438 L 106 434.199219 L 110 433 L 108 432.398438 " transform="matrix(1, 0, 0, -1, -35, 557)"/>
<path fill="none" stroke-width="0.8" stroke-linecap="round" stroke-linejoin="round" stroke="rgb(0%, 0%, 0%)" stroke-opacity="1" stroke-miterlimit="10" d="M 108 439.601562 L 108 442 " transform="matrix(1, 0, 0, -1, -35, 557)"/>
<path fill="none" stroke-width="0.8" stroke-linecap="round" stroke-linejoin="round" stroke="rgb(0%, 0%, 0%)" stroke-opacity="1" stroke-miterlimit="10" d="M 108 432.398438 L 108 430 " transform="matrix(1, 0, 0, -1, -35, 557)"/>
<path fill="none" stroke-width="0.8" stroke-linecap="round" stroke-linejoin="round" stroke="rgb(0%, 0%, 0%)" stroke-opacity="1" stroke-miterlimit="10" d="M 108 431.199219 L 108 431.199219 " transform="matrix(1, 0, 0, -1, -35, 557)"/>
<path fill-rule="evenodd" fill="rgb(0%, 0%, 0%)" fill-opacity="1" d="M 318.800781 13 C 318.800781 10.601562 315.199219 10.601562 315.199219 13 C 315.199219 15.398438 318.800781 15.398438 318.800781 13 Z M 318.800781 13 "/>
<path fill="none" stroke-width="0.8" stroke-linecap="round" stroke-linejoin="round" stroke="rgb(0%, 0%, 0%)" stroke-opacity="1" stroke-miterlimit="10" d="M 352 396 L 352 392 " transform="matrix(1, 0, 0, -1, -35, 557)"/>
<path fill="none" stroke-width="0.8" stroke-linecap="round" stroke-linejoin="round" stroke="rgb(0%, 0%, 0%)" stroke-opacity="1" stroke-miterlimit="10" d="M 348 392 L 356 392 L 352 388 Z M 348 392 " transform="matrix(1, 0, 0, -1, -35, 557)"/>
<path fill-rule="evenodd" fill="rgb(0%, 0%, 0%)" fill-opacity="1" d="M 318.21875 145 C 318.21875 143.398438 315.820312 143.398438 315.820312 145 C 315.820312 146.601562 318.21875 146.601562 318.21875 145 Z M 318.21875 145 "/>
<path fill="none" stroke-width="0.8" stroke-linecap="round" stroke-linejoin="round" stroke="rgb(0%, 0%, 0%)" stroke-opacity="1" stroke-miterlimit="10" d="M 352 544 L 352 396 " transform="matrix(1, 0, 0, -1, -35, 557)"/>
<path fill="none" stroke-width="0.8" stroke-linecap="round" stroke-linejoin="round" stroke="rgb(0%, 0%, 0%)" stroke-opacity="1" stroke-miterlimit="10" d="M 352 412 L 280 412 " transform="matrix(1, 0, 0, -1, -35, 557)"/>
<path fill-rule="evenodd" fill="rgb(0%, 0%, 0%)" fill-opacity="1" stroke-width="0.8" stroke-linecap="round" stroke-linejoin="round" stroke="rgb(0%, 0%, 0%)" stroke-opacity="1" stroke-miterlimit="10" d="M 280 412 L 283 411 L 283 413 Z M 280 412 " transform="matrix(1, 0, 0, -1, -35, 557)"/>
<path fill-rule="evenodd" fill="rgb(100%, 100%, 100%)" fill-opacity="1" stroke-width="0.4" stroke-linecap="round" stroke-linejoin="round" stroke="rgb(0%, 0%, 0%)" stroke-opacity="1" stroke-miterlimit="10" d="M 280 418 L 280 406 L 264 406 L 264 418 Z M 280 418 " transform="matrix(1, 0, 0, -1, -35, 557)"/>
<g clip-path="url(#clip-10)">
<g fill="rgb(0%, 0%, 0%)" fill-opacity="1">
<use xlink:href="#glyph-3-5" x="229.669128" y="146.693"/>
<use xlink:href="#glyph-3-6" x="234.550802" y="146.693"/>
<use xlink:href="#glyph-3-0" x="239.552027" y="146.693"/>
</g>
</g>
<path fill-rule="evenodd" fill="rgb(100%, 100%, 100%)" fill-opacity="1" stroke-width="0.4" stroke-linecap="round" stroke-linejoin="round" stroke="rgb(0%, 0%, 0%)" stroke-opacity="1" stroke-miterlimit="10" d="M 280 402 L 280 390 L 264 390 L 264 402 Z M 280 402 " transform="matrix(1, 0, 0, -1, -35, 557)"/>
<g clip-path="url(#clip-11)">
<g fill="rgb(0%, 0%, 0%)" fill-opacity="1">
<use xlink:href="#glyph-3-5" x="229.669128" y="162.693"/>
<use xlink:href="#glyph-3-6" x="234.550802" y="162.693"/>
<use xlink:href="#glyph-3-0" x="239.552027" y="162.693"/>
</g>
</g>
<path fill-rule="evenodd" fill="rgb(100%, 100%, 100%)" fill-opacity="1" stroke-width="0.4" stroke-linecap="round" stroke-linejoin="round" stroke="rgb(0%, 0%, 0%)" stroke-opacity="1" stroke-miterlimit="10" d="M 212 402 L 212 390 L 196 390 L 196 402 Z M 212 402 " transform="matrix(1, 0, 0, -1, -35, 557)"/>
<g clip-path="url(#clip-12)">
<g fill="rgb(0%, 0%, 0%)" fill-opacity="1">
<use xlink:href="#glyph-3-5" x="161.669128" y="162.693"/>
<use xlink:href="#glyph-3-6" x="166.550802" y="162.693"/>
<use xlink:href="#glyph-3-0" x="171.552027" y="162.693"/>
</g>
</g>
<path fill="none" stroke-width="0.8" stroke-linecap="round" stroke-linejoin="round" stroke="rgb(0%, 0%, 0%)" stroke-opacity="1" stroke-miterlimit="10" d="M 88 536 L 88 396 L 196 396 " transform="matrix(1, 0, 0, -1, -35, 557)"/>
<path fill-rule="evenodd" fill="rgb(0%, 0%, 0%)" fill-opacity="1" stroke-width="0.8" stroke-linecap="round" stroke-linejoin="round" stroke="rgb(0%, 0%, 0%)" stroke-opacity="1" stroke-miterlimit="10" d="M 196 396 L 193 397 L 193 395 Z M 196 396 " transform="matrix(1, 0, 0, -1, -35, 557)"/>
<path fill="none" stroke-width="0.8" stroke-linecap="round" stroke-linejoin="round" stroke="rgb(0%, 0%, 0%)" stroke-opacity="1" stroke-miterlimit="10" d="M 372 536 L 372 396 L 280 396 " transform="matrix(1, 0, 0, -1, -35, 557)"/>
<path fill-rule="evenodd" fill="rgb(0%, 0%, 0%)" fill-opacity="1" stroke-width="0.8" stroke-linecap="round" stroke-linejoin="round" stroke="rgb(0%, 0%, 0%)" stroke-opacity="1" stroke-miterlimit="10" d="M 280 396 L 283 395 L 283 397 Z M 280 396 " transform="matrix(1, 0, 0, -1, -35, 557)"/>
<path fill-rule="evenodd" fill="rgb(100%, 100%, 100%)" fill-opacity="1" d="M 53.363281 102.96875 C 50.734375 103.433594 50.042969 99.492188 52.667969 99.03125 C 55.292969 98.566406 55.988281 102.507812 53.363281 102.96875 Z M 53.363281 102.96875 "/>
<path fill="none" stroke-width="0.8" stroke-linecap="round" stroke-linejoin="round" stroke="rgb(0%, 0%, 0%)" stroke-opacity="1" stroke-miterlimit="10" d="M 88.015625 454 C 85.347656 454 85.347656 458 88.015625 458 " transform="matrix(1, 0, 0, -1, -35, 557)"/>
<path fill="none" stroke-width="0.8" stroke-linecap="round" stroke-linejoin="round" stroke="rgb(0%, 0%, 0%)" stroke-opacity="1" stroke-miterlimit="10" d="M 86.015625 456 L 90.015625 456 " transform="matrix(1, 0, 0, -1, -35, 557)"/>
<path fill-rule="evenodd" fill="rgb(100%, 100%, 100%)" fill-opacity="1" d="M 317.363281 102.96875 C 314.734375 103.433594 314.042969 99.492188 316.667969 99.03125 C 319.292969 98.566406 319.988281 102.507812 317.363281 102.96875 Z M 317.363281 102.96875 "/>
<path fill="none" stroke-width="0.8" stroke-linecap="round" stroke-linejoin="round" stroke="rgb(0%, 0%, 0%)" stroke-opacity="1" stroke-miterlimit="10" d="M 352.015625 454 C 349.347656 454 349.347656 458 352.015625 458 " transform="matrix(1, 0, 0, -1, -35, 557)"/>
<path fill="none" stroke-width="0.8" stroke-linecap="round" stroke-linejoin="round" stroke="rgb(0%, 0%, 0%)" stroke-opacity="1" stroke-miterlimit="10" d="M 350.015625 456 L 354.015625 456 " transform="matrix(1, 0, 0, -1, -35, 557)"/>
<path fill-rule="evenodd" fill="rgb(100%, 100%, 100%)" fill-opacity="1" d="M 337.363281 102.96875 C 334.734375 103.433594 334.042969 99.492188 336.667969 99.03125 C 339.292969 98.566406 339.988281 102.507812 337.363281 102.96875 Z M 337.363281 102.96875 "/>
<path fill="none" stroke-width="0.8" stroke-linecap="round" stroke-linejoin="round" stroke="rgb(0%, 0%, 0%)" stroke-opacity="1" stroke-miterlimit="10" d="M 372.015625 454 C 369.347656 454 369.347656 458 372.015625 458 " transform="matrix(1, 0, 0, -1, -35, 557)"/>
<path fill="none" stroke-width="0.8" stroke-linecap="round" stroke-linejoin="round" stroke="rgb(0%, 0%, 0%)" stroke-opacity="1" stroke-miterlimit="10" d="M 370.015625 456 L 374.015625 456 " transform="matrix(1, 0, 0, -1, -35, 557)"/>
<path fill-rule="evenodd" fill="rgb(100%, 100%, 100%)" fill-opacity="1" d="M 315.046875 161.347656 C 314.582031 158.71875 318.519531 158.027344 318.984375 160.652344 C 319.449219 163.277344 315.507812 163.972656 315.046875 161.347656 Z M 315.046875 161.347656 "/>
<path fill="none" stroke-width="0.8" stroke-linecap="round" stroke-linejoin="round" stroke="rgb(0%, 0%, 0%)" stroke-opacity="1" stroke-miterlimit="10" d="M 350.015625 396 C 350.015625 398.667969 354.015625 398.667969 354.015625 396 " transform="matrix(1, 0, 0, -1, -35, 557)"/>
<path fill="none" stroke-width="0.8" stroke-linecap="round" stroke-linejoin="round" stroke="rgb(0%, 0%, 0%)" stroke-opacity="1" stroke-miterlimit="10" d="M 352.015625 398 L 352.015625 394 " transform="matrix(1, 0, 0, -1, -35, 557)"/>
<path fill-rule="evenodd" fill="rgb(100%, 100%, 100%)" fill-opacity="1" d="M 319 149 L 315 149 L 315 157 L 319 157 Z M 319 149 "/>
<path fill="none" stroke-width="0.8" stroke-linecap="round" stroke-linejoin="round" stroke="rgb(0%, 0%, 0%)" stroke-opacity="1" stroke-miterlimit="10" d="M 352 407.601562 L 350 407 L 354 405.800781 L 350 404.601562 L 354 403.398438 L 350 402.199219 L 354 401 L 352 400.398438 " transform="matrix(1, 0, 0, -1, -35, 557)"/>
<path fill="none" stroke-width="0.8" stroke-linecap="round" stroke-linejoin="round" stroke="rgb(0%, 0%, 0%)" stroke-opacity="1" stroke-miterlimit="10" d="M 352 407.601562 L 352 410 " transform="matrix(1, 0, 0, -1, -35, 557)"/>
<path fill="none" stroke-width="0.8" stroke-linecap="round" stroke-linejoin="round" stroke="rgb(0%, 0%, 0%)" stroke-opacity="1" stroke-miterlimit="10" d="M 352 400.398438 L 352 398 " transform="matrix(1, 0, 0, -1, -35, 557)"/>
<path fill="none" stroke-width="0.8" stroke-linecap="round" stroke-linejoin="round" stroke="rgb(0%, 0%, 0%)" stroke-opacity="1" stroke-miterlimit="10" d="M 352 399.199219 L 352 399.199219 " transform="matrix(1, 0, 0, -1, -35, 557)"/>
<path fill-rule="evenodd" fill="rgb(100%, 100%, 100%)" fill-opacity="1" d="M 319 133 L 315 133 L 315 141 L 319 141 Z M 319 133 "/>
<path fill="none" stroke-width="0.8" stroke-linecap="round" stroke-linejoin="round" stroke="rgb(0%, 0%, 0%)" stroke-opacity="1" stroke-miterlimit="10" d="M 352 423.601562 L 350 423 L 354 421.800781 L 350 420.601562 L 354 419.398438 L 350 418.199219 L 354 417 L 352 416.398438 " transform="matrix(1, 0, 0, -1, -35, 557)"/>
<path fill="none" stroke-width="0.8" stroke-linecap="round" stroke-linejoin="round" stroke="rgb(0%, 0%, 0%)" stroke-opacity="1" stroke-miterlimit="10" d="M 352 423.601562 L 352 426 " transform="matrix(1, 0, 0, -1, -35, 557)"/>
<path fill="none" stroke-width="0.8" stroke-linecap="round" stroke-linejoin="round" stroke="rgb(0%, 0%, 0%)" stroke-opacity="1" stroke-miterlimit="10" d="M 352 416.398438 L 352 414 " transform="matrix(1, 0, 0, -1, -35, 557)"/>
<path fill="none" stroke-width="0.8" stroke-linecap="round" stroke-linejoin="round" stroke="rgb(0%, 0%, 0%)" stroke-opacity="1" stroke-miterlimit="10" d="M 352 415.199219 L 352 415.199219 " transform="matrix(1, 0, 0, -1, -35, 557)"/>
<path fill-rule="evenodd" fill="rgb(100%, 100%, 100%)" fill-opacity="1" stroke-width="0.4" stroke-linecap="round" stroke-linejoin="round" stroke="rgb(0%, 0%, 0%)" stroke-opacity="1" stroke-miterlimit="10" d="M 100 552 L 100 536 L 76 536 L 76 552 Z M 100 552 " transform="matrix(1, 0, 0, -1, -35, 557)"/>
<g clip-path="url(#clip-13)">
<g fill="rgb(0%, 0%, 0%)" fill-opacity="1">
<use xlink:href="#glyph-3-5" x="46.3845" y="12.026"/>
<use xlink:href="#glyph-3-0" x="51.091829" y="12.026"/>
<use xlink:href="#glyph-3-12" x="55.863914" y="12.026"/>
</g>
</g>
<g clip-path="url(#clip-14)">
<g fill="rgb(0%, 0%, 0%)" fill-opacity="1">
<use xlink:href="#glyph-4-0" x="44.5195" y="17.272"/>
<use xlink:href="#glyph-4-1" x="47.906784" y="17.272"/>
<use xlink:href="#glyph-4-2" x="51.294068" y="17.272"/>
<use xlink:href="#glyph-4-3" x="54.681352" y="17.272"/>
<use xlink:href="#glyph-4-4" x="58.068636" y="17.272"/>
</g>
</g>
<path fill-rule="evenodd" fill="rgb(100%, 100%, 100%)" fill-opacity="1" stroke-width="0.4" stroke-linecap="round" stroke-linejoin="round" stroke="rgb(0%, 0%, 0%)" stroke-opacity="1" stroke-miterlimit="10" d="M 384 552 L 384 536 L 360 536 L 360 552 Z M 384 552 " transform="matrix(1, 0, 0, -1, -35, 557)"/>
<g clip-path="url(#clip-15)">
<g fill="rgb(0%, 0%, 0%)" fill-opacity="1">
<use xlink:href="#glyph-3-5" x="330.3845" y="12.026"/>
<use xlink:href="#glyph-3-0" x="335.091829" y="12.026"/>
<use xlink:href="#glyph-3-12" x="339.863914" y="12.026"/>
</g>
</g>
<g clip-path="url(#clip-16)">
<g fill="rgb(0%, 0%, 0%)" fill-opacity="1">
<use xlink:href="#glyph-4-0" x="328.5195" y="17.272"/>
<use xlink:href="#glyph-4-1" x="331.906784" y="17.272"/>
<use xlink:href="#glyph-4-2" x="335.294068" y="17.272"/>
<use xlink:href="#glyph-4-3" x="338.681352" y="17.272"/>
<use xlink:href="#glyph-4-4" x="342.068636" y="17.272"/>
</g>
</g>
<path fill-rule="evenodd" fill="rgb(100%, 100%, 100%)" fill-opacity="1" d="M 205.363281 102.96875 C 202.734375 103.433594 202.042969 99.492188 204.667969 99.03125 C 207.292969 98.566406 207.988281 102.507812 205.363281 102.96875 Z M 205.363281 102.96875 "/>
<path fill="none" stroke-width="0.8" stroke-linecap="round" stroke-linejoin="round" stroke="rgb(0%, 0%, 0%)" stroke-opacity="1" stroke-miterlimit="10" d="M 240.015625 454 C 237.347656 454 237.347656 458 240.015625 458 " transform="matrix(1, 0, 0, -1, -35, 557)"/>
<path fill="none" stroke-width="0.8" stroke-linecap="round" stroke-linejoin="round" stroke="rgb(0%, 0%, 0%)" stroke-opacity="1" stroke-miterlimit="10" d="M 238.015625 456 L 242.015625 456 " transform="matrix(1, 0, 0, -1, -35, 557)"/>
<path fill-rule="evenodd" fill="rgb(100%, 100%, 100%)" fill-opacity="1" d="M 221.363281 102.96875 C 218.734375 103.433594 218.042969 99.492188 220.667969 99.03125 C 223.292969 98.566406 223.988281 102.507812 221.363281 102.96875 Z M 221.363281 102.96875 "/>
<path fill="none" stroke-width="0.8" stroke-linecap="round" stroke-linejoin="round" stroke="rgb(0%, 0%, 0%)" stroke-opacity="1" stroke-miterlimit="10" d="M 256.015625 454 C 253.347656 454 253.347656 458 256.015625 458 " transform="matrix(1, 0, 0, -1, -35, 557)"/>
<path fill="none" stroke-width="0.8" stroke-linecap="round" stroke-linejoin="round" stroke="rgb(0%, 0%, 0%)" stroke-opacity="1" stroke-miterlimit="10" d="M 254.015625 456 L 258.015625 456 " transform="matrix(1, 0, 0, -1, -35, 557)"/>
</svg>
