<?xml version="1.0" encoding="UTF-8"?>
<svg xmlns="http://www.w3.org/2000/svg" xmlns:xlink="http://www.w3.org/1999/xlink" width="1570" height="690" viewBox="0 0 314 138">
<defs>
<g>
<g id="glyph-0-0">
<path d="M -3.15625 -2.265625 L -3.15625 -3.953125 C -3.15625 -5.140625 -3.953125 -6.21875 -4.953125 -6.21875 C -5.9375 -6.21875 -6.8125 -5.234375 -6.8125 -3.875 L -6.8125 -0.34375 L -6.5 -0.34375 L -6.5 -0.59375 C -6.5 -1.359375 -6.390625 -1.375 -6.03125 -1.375 L -0.78125 -1.375 C -0.421875 -1.375 -0.3125 -1.359375 -0.3125 -0.59375 L -0.3125 -0.34375 L 0 -0.34375 C -0.03125 -0.703125 -0.03125 -1.4375 -0.03125 -1.8125 C -0.03125 -2.1875 -0.03125 -2.9375 0 -3.296875 L -0.3125 -3.296875 L -0.3125 -3.046875 C -0.3125 -2.28125 -0.421875 -2.265625 -0.78125 -2.265625 Z M -3.40625 -2.234375 L -6.09375 -2.234375 C -6.4375 -2.234375 -6.5 -2.25 -6.5 -2.71875 L -6.5 -3.609375 C -6.5 -5.1875 -5.4375 -5.1875 -4.953125 -5.1875 C -4.484375 -5.1875 -3.40625 -5.1875 -3.40625 -3.609375 Z M -3.40625 -2.234375 "/>
</g>
<g id="glyph-0-1">
<path d="M -2.140625 -4.6875 C -3.40625 -4.6875 -4.46875 -3.703125 -4.46875 -2.5 C -4.46875 -1.25 -3.375 -0.28125 -2.140625 -0.28125 C -0.84375 -0.28125 0.109375 -1.3125 0.109375 -2.484375 C 0.109375 -3.6875 -0.875 -4.6875 -2.140625 -4.6875 Z M -0.140625 -2.5 C -0.140625 -2.0625 -0.34375 -1.625 -0.8125 -1.359375 C -1.25 -1.109375 -1.859375 -1.109375 -2.21875 -1.109375 C -2.609375 -1.109375 -3.140625 -1.109375 -3.578125 -1.34375 C -4.03125 -1.609375 -4.25 -2.078125 -4.25 -2.484375 C -4.25 -2.921875 -4.03125 -3.34375 -3.59375 -3.609375 C -3.171875 -3.875 -2.59375 -3.875 -2.21875 -3.875 C -1.859375 -3.875 -1.3125 -3.875 -0.875 -3.65625 C -0.421875 -3.421875 -0.140625 -2.984375 -0.140625 -2.5 Z M -0.140625 -2.5 "/>
</g>
<g id="glyph-0-2">
<path d="M -3.3125 -1.671875 L -4.40625 -1.671875 L -4.296875 -0.28125 L -3.984375 -0.28125 C -3.984375 -0.984375 -3.921875 -1.0625 -3.421875 -1.0625 L -0.75 -1.0625 C -0.3125 -1.0625 -0.3125 -0.953125 -0.3125 -0.28125 L 0 -0.28125 C -0.015625 -0.671875 -0.03125 -1.140625 -0.03125 -1.421875 C -0.03125 -1.8125 -0.03125 -2.28125 0 -2.6875 L -0.3125 -2.6875 L -0.3125 -2.46875 C -0.3125 -1.734375 -0.421875 -1.71875 -0.78125 -1.71875 L -2.3125 -1.71875 C -3.296875 -1.71875 -4.1875 -2.140625 -4.1875 -2.890625 C -4.1875 -2.953125 -4.1875 -2.984375 -4.171875 -3 C -4.171875 -2.96875 -4.046875 -2.765625 -3.78125 -2.765625 C -3.515625 -2.765625 -3.359375 -2.984375 -3.359375 -3.203125 C -3.359375 -3.375 -3.484375 -3.625 -3.796875 -3.625 C -4.109375 -3.625 -4.40625 -3.3125 -4.40625 -2.890625 C -4.40625 -2.15625 -3.734375 -1.796875 -3.3125 -1.671875 Z M -3.3125 -1.671875 "/>
</g>
<g id="glyph-0-3">
<path d="M -3.984375 -1.71875 L -3.984375 -3.15625 L -4.296875 -3.15625 L -4.296875 -1.71875 L -6.125 -1.71875 L -6.125 -1.46875 C -5.3125 -1.46875 -4.25 -1.171875 -4.203125 -0.1875 L -3.984375 -0.1875 L -3.984375 -1.03125 L -1.234375 -1.03125 C -0.015625 -1.03125 0.109375 -1.96875 0.109375 -2.328125 C 0.109375 -3.03125 -0.59375 -3.3125 -1.234375 -3.3125 L -1.796875 -3.3125 L -1.796875 -3.0625 L -1.25 -3.0625 C -0.515625 -3.0625 -0.140625 -2.765625 -0.140625 -2.390625 C -0.140625 -1.71875 -1.046875 -1.71875 -1.21875 -1.71875 Z M -3.984375 -1.71875 "/>
</g>
<g id="glyph-0-4">
<path d="M -6.9375 -3.96875 C -7.0625 -3.921875 -7.140625 -3.890625 -7.140625 -3.734375 C -7.140625 -3.578125 -7.078125 -3.546875 -6.9375 -3.5 L -0.984375 -1.4375 C -0.46875 -1.25 -0.3125 -0.859375 -0.3125 -0.3125 L 0 -0.3125 C -0.015625 -0.546875 -0.03125 -0.984375 -0.03125 -1.328125 C -0.03125 -1.640625 -0.015625 -2.15625 0 -2.484375 L -0.3125 -2.484375 C -0.3125 -1.984375 -0.5625 -1.734375 -0.8125 -1.734375 C -0.84375 -1.734375 -0.953125 -1.75 -0.96875 -1.75 L -2.265625 -2.21875 L -2.265625 -4.671875 L -0.75 -5.203125 C -0.703125 -5.21875 -0.640625 -5.234375 -0.609375 -5.234375 C -0.3125 -5.234375 -0.3125 -4.671875 -0.3125 -4.40625 L 0 -4.40625 C -0.03125 -4.765625 -0.03125 -5.46875 -0.03125 -5.84375 C -0.03125 -6.265625 -0.015625 -6.734375 0 -7.140625 L -0.3125 -7.140625 L -0.3125 -6.96875 C -0.3125 -6.375 -0.375 -6.234375 -0.703125 -6.125 Z M -5.828125 -3.4375 L -2.578125 -4.5625 L -2.578125 -2.328125 Z M -5.828125 -3.4375 "/>
</g>
<g id="glyph-0-5">
<path d="M -3.65625 -2.21875 L -6.09375 -2.21875 C -6.4375 -2.21875 -6.5 -2.234375 -6.5 -2.703125 L -6.5 -3.9375 C -6.5 -4.90625 -5.65625 -5.25 -5.125 -5.25 C -4.484375 -5.25 -3.65625 -4.765625 -3.65625 -3.65625 Z M -3.5625 -4.5625 C -3.75 -5.53125 -4.390625 -6.21875 -5.125 -6.21875 C -5.984375 -6.21875 -6.8125 -5.296875 -6.8125 -4 L -6.8125 -0.359375 L -6.5 -0.359375 L -6.5 -0.59375 C -6.5 -1.359375 -6.390625 -1.390625 -6.03125 -1.390625 L -0.78125 -1.390625 C -0.421875 -1.390625 -0.3125 -1.359375 -0.3125 -0.59375 L -0.3125 -0.359375 L 0 -0.359375 L 0 -4.265625 C 0 -5.59375 -0.890625 -6.484375 -1.828125 -6.484375 C -2.6875 -6.484375 -3.4375 -5.671875 -3.5625 -4.5625 Z M -0.3125 -3.953125 L -0.3125 -2.703125 C -0.3125 -2.234375 -0.375 -2.21875 -0.703125 -2.21875 L -3.421875 -2.21875 L -3.421875 -4.09375 C -3.421875 -5.078125 -2.5 -5.5 -1.828125 -5.5 C -1.125 -5.5 -0.3125 -4.96875 -0.3125 -3.953125 Z M -0.3125 -3.953125 "/>
</g>
<g id="glyph-1-0">
<path d="M 4.9375 -5.421875 L 0.34375 -5.421875 L 0.34375 -5.15625 L 0.53125 -5.15625 C 1.140625 -5.15625 1.15625 -5.0625 1.15625 -4.765625 L 1.15625 -0.640625 C 1.15625 -0.34375 1.140625 -0.265625 0.53125 -0.265625 L 0.34375 -0.265625 L 0.34375 0 C 1.03125 -0.03125 1.046875 -0.03125 1.578125 -0.03125 C 1.953125 -0.03125 2.53125 -0.03125 2.890625 0 L 2.890625 -0.265625 L 2.640625 -0.265625 C 1.890625 -0.265625 1.890625 -0.375 1.890625 -0.65625 L 1.890625 -2.578125 L 2.625 -2.578125 C 3.40625 -2.578125 3.5 -2.328125 3.5 -1.65625 L 3.75 -1.65625 L 3.75 -3.78125 L 3.5 -3.78125 C 3.5 -3.09375 3.40625 -2.84375 2.625 -2.84375 L 1.890625 -2.84375 L 1.890625 -4.828125 C 1.890625 -5.09375 1.90625 -5.15625 2.265625 -5.15625 L 3.328125 -5.15625 C 4.625 -5.15625 4.78125 -4.65625 4.921875 -3.609375 L 5.15625 -3.609375 Z M 4.9375 -5.421875 "/>
</g>
<g id="glyph-1-1">
<path d="M 1.546875 -4.90625 C 1.546875 -5.140625 1.375 -5.359375 1.109375 -5.359375 C 0.875 -5.359375 0.671875 -5.171875 0.671875 -4.921875 C 0.671875 -4.640625 0.90625 -4.46875 1.109375 -4.46875 C 1.390625 -4.46875 1.546875 -4.703125 1.546875 -4.90625 Z M 0.359375 -3.421875 L 0.359375 -3.15625 C 0.875 -3.15625 0.9375 -3.109375 0.9375 -2.71875 L 0.9375 -0.625 C 0.9375 -0.265625 0.84375 -0.265625 0.328125 -0.265625 L 0.328125 0 C 0.640625 -0.03125 1.09375 -0.03125 1.21875 -0.03125 C 1.3125 -0.03125 1.796875 -0.03125 2.078125 0 L 2.078125 -0.265625 C 1.546875 -0.265625 1.515625 -0.296875 1.515625 -0.609375 L 1.515625 -3.515625 Z M 0.359375 -3.421875 "/>
</g>
<g id="glyph-1-2">
<path d="M 1.515625 -5.53125 L 0.328125 -5.4375 L 0.328125 -5.171875 C 0.875 -5.171875 0.9375 -5.125 0.9375 -4.734375 L 0.9375 -0.625 C 0.9375 -0.265625 0.84375 -0.265625 0.328125 -0.265625 L 0.328125 0 C 0.640625 -0.03125 1.09375 -0.03125 1.234375 -0.03125 C 1.390625 -0.03125 1.8125 -0.03125 2.125 0 L 2.125 -0.265625 C 1.625 -0.265625 1.515625 -0.265625 1.515625 -0.625 Z M 1.515625 -5.53125 "/>
</g>
<g id="glyph-1-3">
<path d="M 1.484375 -3.171875 L 2.671875 -3.171875 L 2.671875 -3.4375 L 1.484375 -3.4375 L 1.484375 -4.90625 L 1.234375 -4.90625 C 1.234375 -4.171875 0.90625 -3.421875 0.15625 -3.390625 L 0.15625 -3.171875 L 0.875 -3.171875 L 0.875 -1 C 0.875 -0.0625 1.59375 0.078125 1.953125 0.078125 C 2.5 0.078125 2.8125 -0.390625 2.8125 -1 L 2.8125 -1.4375 L 2.5625 -1.4375 L 2.5625 -1.015625 C 2.5625 -0.46875 2.3125 -0.171875 2.015625 -0.171875 C 1.484375 -0.171875 1.484375 -0.859375 1.484375 -0.984375 Z M 1.484375 -3.171875 "/>
</g>
<g id="glyph-1-4">
<path d="M 3.296875 -1.8125 C 3.46875 -1.8125 3.515625 -1.8125 3.515625 -2 C 3.515625 -2.703125 3.125 -3.546875 2 -3.546875 C 1.015625 -3.546875 0.234375 -2.734375 0.234375 -1.75 C 0.234375 -0.71875 1.09375 0.078125 2.109375 0.078125 C 3.109375 0.078125 3.515625 -0.765625 3.515625 -0.953125 C 3.515625 -0.984375 3.484375 -1.0625 3.390625 -1.0625 C 3.296875 -1.0625 3.28125 -1.015625 3.265625 -0.96875 C 2.984375 -0.1875 2.296875 -0.171875 2.15625 -0.171875 C 1.796875 -0.171875 1.421875 -0.328125 1.1875 -0.703125 C 0.953125 -1.0625 0.953125 -1.578125 0.953125 -1.8125 Z M 0.953125 -2.03125 C 1.03125 -3.140625 1.703125 -3.328125 2 -3.328125 C 2.9375 -3.328125 2.96875 -2.203125 2.96875 -2.03125 Z M 0.953125 -2.03125 "/>
</g>
<g id="glyph-1-5">
<path d="M 1.46875 -1.8125 C 1.46875 -2.421875 1.71875 -3.28125 2.484375 -3.296875 C 2.4375 -3.265625 2.34375 -3.203125 2.34375 -3.015625 C 2.34375 -2.765625 2.546875 -2.65625 2.703125 -2.65625 C 2.890625 -2.65625 3.0625 -2.78125 3.0625 -3.015625 C 3.0625 -3.296875 2.8125 -3.515625 2.453125 -3.515625 C 1.9375 -3.515625 1.578125 -3.125 1.421875 -2.671875 L 1.40625 -2.671875 L 1.40625 -3.515625 L 0.28125 -3.421875 L 0.28125 -3.15625 C 0.828125 -3.15625 0.890625 -3.109375 0.890625 -2.71875 L 0.890625 -0.625 C 0.890625 -0.265625 0.78125 -0.265625 0.28125 -0.265625 L 0.28125 0 C 0.59375 -0.03125 1.03125 -0.03125 1.21875 -0.03125 C 1.6875 -0.03125 1.703125 -0.03125 2.21875 0 L 2.21875 -0.265625 L 2.0625 -0.265625 C 1.484375 -0.265625 1.46875 -0.34375 1.46875 -0.640625 Z M 1.46875 -1.8125 "/>
</g>
<g id="glyph-2-0">
<path d="M 1.359375 -0.78125 C 1.359375 -0.421875 1.328125 -0.3125 0.5625 -0.3125 L 0.328125 -0.3125 L 0.328125 0 L 6.078125 0 L 6.5 -2.578125 L 6.25 -2.578125 C 6 -1.03125 5.765625 -0.3125 4.0625 -0.3125 L 2.734375 -0.3125 C 2.265625 -0.3125 2.25 -0.375 2.25 -0.703125 L 2.25 -3.375 L 3.140625 -3.375 C 4.109375 -3.375 4.21875 -3.046875 4.21875 -2.203125 L 4.46875 -2.203125 L 4.46875 -4.84375 L 4.21875 -4.84375 C 4.21875 -3.984375 4.109375 -3.671875 3.140625 -3.671875 L 2.25 -3.671875 L 2.25 -6.078125 C 2.25 -6.40625 2.265625 -6.46875 2.734375 -6.46875 L 4.015625 -6.46875 C 5.546875 -6.46875 5.8125 -5.921875 5.96875 -4.53125 L 6.21875 -4.53125 L 5.9375 -6.78125 L 0.328125 -6.78125 L 0.328125 -6.46875 L 0.5625 -6.46875 C 1.328125 -6.46875 1.359375 -6.359375 1.359375 -6 Z M 1.359375 -0.78125 "/>
</g>
<g id="glyph-2-1">
<path d="M 5.796875 -2.578125 L 5.546875 -2.578125 C 5.4375 -1.5625 5.296875 -0.3125 3.546875 -0.3125 L 2.734375 -0.3125 C 2.265625 -0.3125 2.25 -0.375 2.25 -0.703125 L 2.25 -6.015625 C 2.25 -6.359375 2.25 -6.5 3.1875 -6.5 L 3.515625 -6.5 L 3.515625 -6.8125 C 3.15625 -6.78125 2.25 -6.78125 1.84375 -6.78125 C 1.453125 -6.78125 0.671875 -6.78125 0.328125 -6.8125 L 0.328125 -6.5 L 0.5625 -6.5 C 1.328125 -6.5 1.359375 -6.390625 1.359375 -6.03125 L 1.359375 -0.78125 C 1.359375 -0.421875 1.328125 -0.3125 0.5625 -0.3125 L 0.328125 -0.3125 L 0.328125 0 L 5.515625 0 Z M 5.796875 -2.578125 "/>
</g>
<g id="glyph-2-2">
<path d="M 6.1875 -5.828125 C 6.328125 -6.203125 6.59375 -6.484375 7.28125 -6.5 L 7.28125 -6.8125 C 6.96875 -6.78125 6.5625 -6.78125 6.3125 -6.78125 C 6.015625 -6.78125 5.4375 -6.796875 5.171875 -6.8125 L 5.171875 -6.5 C 5.6875 -6.484375 5.90625 -6.234375 5.90625 -6 C 5.90625 -5.921875 5.875 -5.859375 5.859375 -5.796875 L 4.03125 -1 L 2.125 -6.03125 C 2.0625 -6.171875 2.0625 -6.1875 2.0625 -6.203125 C 2.0625 -6.5 2.625 -6.5 2.875 -6.5 L 2.875 -6.8125 C 2.515625 -6.78125 1.828125 -6.78125 1.453125 -6.78125 C 0.984375 -6.78125 0.546875 -6.796875 0.1875 -6.8125 L 0.1875 -6.5 C 0.84375 -6.5 1.03125 -6.5 1.171875 -6.125 L 3.484375 0 C 3.546875 0.1875 3.59375 0.21875 3.734375 0.21875 C 3.890625 0.21875 3.921875 0.171875 3.96875 0.03125 Z M 6.1875 -5.828125 "/>
</g>
<g id="glyph-2-3">
<path d="M 0.5625 -3.40625 C 0.5625 -1.34375 2.171875 0.21875 4.03125 0.21875 C 5.65625 0.21875 6.625 -1.171875 6.625 -2.328125 C 6.625 -2.421875 6.625 -2.5 6.5 -2.5 C 6.390625 -2.5 6.390625 -2.4375 6.375 -2.328125 C 6.296875 -0.90625 5.234375 -0.09375 4.140625 -0.09375 C 3.53125 -0.09375 1.578125 -0.421875 1.578125 -3.40625 C 1.578125 -6.375 3.53125 -6.71875 4.140625 -6.71875 C 5.21875 -6.71875 6.109375 -5.8125 6.3125 -4.359375 C 6.328125 -4.21875 6.328125 -4.1875 6.46875 -4.1875 C 6.625 -4.1875 6.625 -4.21875 6.625 -4.421875 L 6.625 -6.78125 C 6.625 -6.953125 6.625 -7.03125 6.515625 -7.03125 C 6.484375 -7.03125 6.4375 -7.03125 6.359375 -6.90625 L 5.859375 -6.171875 C 5.5 -6.53125 4.984375 -7.03125 4.03125 -7.03125 C 2.15625 -7.03125 0.5625 -5.4375 0.5625 -3.40625 Z M 0.5625 -3.40625 "/>
</g>
<g id="glyph-2-4">
<path d="M 4.6875 -2.140625 C 4.6875 -3.40625 3.703125 -4.46875 2.5 -4.46875 C 1.25 -4.46875 0.28125 -3.375 0.28125 -2.140625 C 0.28125 -0.84375 1.3125 0.109375 2.484375 0.109375 C 3.6875 0.109375 4.6875 -0.875 4.6875 -2.140625 Z M 2.5 -0.140625 C 2.0625 -0.140625 1.625 -0.34375 1.359375 -0.8125 C 1.109375 -1.25 1.109375 -1.859375 1.109375 -2.21875 C 1.109375 -2.609375 1.109375 -3.140625 1.34375 -3.578125 C 1.609375 -4.03125 2.078125 -4.25 2.484375 -4.25 C 2.921875 -4.25 3.34375 -4.03125 3.609375 -3.59375 C 3.875 -3.171875 3.875 -2.59375 3.875 -2.21875 C 3.875 -1.859375 3.875 -1.3125 3.65625 -0.875 C 3.421875 -0.421875 2.984375 -0.140625 2.5 -0.140625 Z M 2.5 -0.140625 "/>
</g>
<g id="glyph-2-5">
<path d="M 1.09375 -3.421875 L 1.09375 -0.75 C 1.09375 -0.3125 0.984375 -0.3125 0.3125 -0.3125 L 0.3125 0 C 0.671875 -0.015625 1.171875 -0.03125 1.453125 -0.03125 C 1.703125 -0.03125 2.21875 -0.015625 2.5625 0 L 2.5625 -0.3125 C 1.890625 -0.3125 1.78125 -0.3125 1.78125 -0.75 L 1.78125 -2.59375 C 1.78125 -3.625 2.5 -4.1875 3.125 -4.1875 C 3.765625 -4.1875 3.875 -3.65625 3.875 -3.078125 L 3.875 -0.75 C 3.875 -0.3125 3.765625 -0.3125 3.09375 -0.3125 L 3.09375 0 C 3.4375 -0.015625 3.953125 -0.03125 4.21875 -0.03125 C 4.46875 -0.03125 5 -0.015625 5.328125 0 L 5.328125 -0.3125 C 4.8125 -0.3125 4.5625 -0.3125 4.5625 -0.609375 L 4.5625 -2.515625 C 4.5625 -3.375 4.5625 -3.671875 4.25 -4.03125 C 4.109375 -4.203125 3.78125 -4.40625 3.203125 -4.40625 C 2.46875 -4.40625 2 -3.984375 1.71875 -3.359375 L 1.71875 -4.40625 L 0.3125 -4.296875 L 0.3125 -3.984375 C 1.015625 -3.984375 1.09375 -3.921875 1.09375 -3.421875 Z M 1.09375 -3.421875 "/>
</g>
<g id="glyph-2-6">
<path d="M 4.140625 -3.3125 C 4.234375 -3.546875 4.40625 -3.984375 5.0625 -3.984375 L 5.0625 -4.296875 C 4.828125 -4.28125 4.546875 -4.265625 4.3125 -4.265625 C 4.078125 -4.265625 3.625 -4.28125 3.453125 -4.296875 L 3.453125 -3.984375 C 3.8125 -3.984375 3.921875 -3.75 3.921875 -3.5625 C 3.921875 -3.46875 3.90625 -3.421875 3.875 -3.3125 L 2.84375 -0.78125 L 1.734375 -3.5625 C 1.671875 -3.6875 1.671875 -3.703125 1.671875 -3.734375 C 1.671875 -3.984375 2.0625 -3.984375 2.25 -3.984375 L 2.25 -4.296875 C 1.9375 -4.28125 1.390625 -4.265625 1.15625 -4.265625 C 0.890625 -4.265625 0.484375 -4.28125 0.1875 -4.296875 L 0.1875 -3.984375 C 0.8125 -3.984375 0.859375 -3.921875 0.984375 -3.625 L 2.421875 -0.078125 C 2.484375 0.0625 2.5 0.109375 2.625 0.109375 C 2.765625 0.109375 2.796875 0.015625 2.84375 -0.078125 Z M 4.140625 -3.3125 "/>
</g>
<g id="glyph-2-7">
<path d="M 1.109375 -2.515625 C 1.171875 -4 2.015625 -4.25 2.359375 -4.25 C 3.375 -4.25 3.484375 -2.90625 3.484375 -2.515625 Z M 1.109375 -2.296875 L 3.890625 -2.296875 C 4.109375 -2.296875 4.140625 -2.296875 4.140625 -2.515625 C 4.140625 -3.5 3.59375 -4.46875 2.359375 -4.46875 C 1.203125 -4.46875 0.28125 -3.4375 0.28125 -2.1875 C 0.28125 -0.859375 1.328125 0.109375 2.46875 0.109375 C 3.6875 0.109375 4.140625 -1 4.140625 -1.1875 C 4.140625 -1.28125 4.0625 -1.3125 4 -1.3125 C 3.921875 -1.3125 3.890625 -1.25 3.875 -1.171875 C 3.53125 -0.140625 2.625 -0.140625 2.53125 -0.140625 C 2.03125 -0.140625 1.640625 -0.4375 1.40625 -0.8125 C 1.109375 -1.28125 1.109375 -1.9375 1.109375 -2.296875 Z M 1.109375 -2.296875 "/>
</g>
<g id="glyph-2-8">
<path d="M 1.671875 -3.3125 L 1.671875 -4.40625 L 0.28125 -4.296875 L 0.28125 -3.984375 C 0.984375 -3.984375 1.0625 -3.921875 1.0625 -3.421875 L 1.0625 -0.75 C 1.0625 -0.3125 0.953125 -0.3125 0.28125 -0.3125 L 0.28125 0 C 0.671875 -0.015625 1.140625 -0.03125 1.421875 -0.03125 C 1.8125 -0.03125 2.28125 -0.03125 2.6875 0 L 2.6875 -0.3125 L 2.46875 -0.3125 C 1.734375 -0.3125 1.71875 -0.421875 1.71875 -0.78125 L 1.71875 -2.3125 C 1.71875 -3.296875 2.140625 -4.1875 2.890625 -4.1875 C 2.953125 -4.1875 2.984375 -4.1875 3 -4.171875 C 2.96875 -4.171875 2.765625 -4.046875 2.765625 -3.78125 C 2.765625 -3.515625 2.984375 -3.359375 3.203125 -3.359375 C 3.375 -3.359375 3.625 -3.484375 3.625 -3.796875 C 3.625 -4.109375 3.3125 -4.40625 2.890625 -4.40625 C 2.15625 -4.40625 1.796875 -3.734375 1.671875 -3.3125 Z M 1.671875 -3.3125 "/>
</g>
<g id="glyph-2-9">
<path d="M 1.71875 -3.984375 L 3.15625 -3.984375 L 3.15625 -4.296875 L 1.71875 -4.296875 L 1.71875 -6.125 L 1.46875 -6.125 C 1.46875 -5.3125 1.171875 -4.25 0.1875 -4.203125 L 0.1875 -3.984375 L 1.03125 -3.984375 L 1.03125 -1.234375 C 1.03125 -0.015625 1.96875 0.109375 2.328125 0.109375 C 3.03125 0.109375 3.3125 -0.59375 3.3125 -1.234375 L 3.3125 -1.796875 L 3.0625 -1.796875 L 3.0625 -1.25 C 3.0625 -0.515625 2.765625 -0.140625 2.390625 -0.140625 C 1.71875 -0.140625 1.71875 -1.046875 1.71875 -1.21875 Z M 1.71875 -3.984375 "/>
</g>
</g>
<clipPath id="clip-0">
<path clip-rule="nonzero" d="M 6.191406 50 L 13 50 L 13 80 L 6.191406 80 Z M 6.191406 50 "/>
</clipPath>
<clipPath id="clip-1">
<path clip-rule="nonzero" d="M 71 82.230469 L 91.300781 82.230469 L 91.300781 87.765625 L 71 87.765625 Z M 71 82.230469 "/>
</clipPath>
<clipPath id="clip-2">
<path clip-rule="nonzero" d="M 223 82.230469 L 243.300781 82.230469 L 243.300781 87.765625 L 223 87.765625 Z M 223 82.230469 "/>
</clipPath>
<clipPath id="clip-3">
<path clip-rule="nonzero" d="M 124.179688 125 L 189.824219 125 L 189.824219 131.808594 L 124.179688 131.808594 Z M 124.179688 125 "/>
</clipPath>
<clipPath id="clip-4">
<path clip-rule="nonzero" d="M 301 50.179688 L 307.808594 50.179688 L 307.808594 79.820312 L 301 79.820312 Z M 301 50.179688 "/>
</clipPath>
</defs>
<path fill-rule="evenodd" fill="rgb(100%, 100%, 100%)" fill-opacity="1" d="M 1 1 L 1 137 L 313 137 L 313 1 Z M 1 1 "/>
<path fill="none" stroke-width="0.4" stroke-linecap="round" stroke-linejoin="round" stroke="rgb(0%, 0%, 0%)" stroke-opacity="1" stroke-dasharray="4" stroke-miterlimit="10" d="M 104 564 L 104 448 L 320 448 L 320 564 Z M 104 564 " transform="matrix(1, 0, 0, -1, -55, 569)"/>
<path fill="none" stroke-width="0.8" stroke-linecap="round" stroke-linejoin="round" stroke="rgb(0%, 0%, 0%)" stroke-opacity="1" stroke-miterlimit="10" d="M 324 460 L 344 460 L 344 547.996094 L 324 547.996094 " transform="matrix(1, 0, 0, -1, -55, 569)"/>
<path fill-rule="evenodd" fill="rgb(100%, 100%, 100%)" fill-opacity="1" d="M 270.5 20.996094 C 270.5 18.996094 267.5 18.996094 267.5 20.996094 C 267.5 22.996094 270.5 22.996094 270.5 20.996094 Z M 270.5 20.996094 "/>
<path fill-rule="evenodd" fill="rgb(0%, 0%, 0%)" fill-opacity="1" d="M 270.800781 20.996094 C 270.800781 18.597656 267.199219 18.597656 267.199219 20.996094 C 267.199219 23.394531 270.800781 23.394531 270.800781 20.996094 Z M 270.199219 20.996094 C 270.199219 19.394531 267.800781 19.394531 267.800781 20.996094 C 267.800781 22.597656 270.199219 22.597656 270.199219 20.996094 Z M 270.199219 20.996094 "/>
<path fill-rule="evenodd" fill="rgb(100%, 100%, 100%)" fill-opacity="1" d="M 270.5 109 C 270.5 107 267.5 107 267.5 109 C 267.5 111 270.5 111 270.5 109 Z M 270.5 109 "/>
<path fill-rule="evenodd" fill="rgb(0%, 0%, 0%)" fill-opacity="1" d="M 270.800781 109 C 270.800781 106.601562 267.199219 106.601562 267.199219 109 C 267.199219 111.402344 270.800781 111.402344 270.800781 109 Z M 270.199219 109 C 270.199219 107.402344 267.800781 107.402344 267.800781 109 C 267.800781 110.601562 270.199219 110.601562 270.199219 109 Z M 270.199219 109 "/>
<path fill="none" stroke-width="0.8" stroke-linecap="round" stroke-linejoin="round" stroke="rgb(0%, 0%, 0%)" stroke-opacity="1" stroke-miterlimit="10" d="M 107.996094 548 L 316.003906 548 " transform="matrix(1, 0, 0, -1, -55, 569)"/>
<path fill="none" stroke-width="0.8" stroke-linecap="round" stroke-linejoin="round" stroke="rgb(0%, 0%, 0%)" stroke-opacity="1" stroke-miterlimit="10" d="M 107.996094 460.003906 L 316.003906 460.003906 " transform="matrix(1, 0, 0, -1, -55, 569)"/>
<path fill-rule="evenodd" fill="rgb(100%, 100%, 100%)" fill-opacity="1" d="M 54.5 21 C 54.5 19 51.5 19 51.5 21 C 51.5 23 54.5 23 54.5 21 Z M 54.5 21 "/>
<path fill-rule="evenodd" fill="rgb(0%, 0%, 0%)" fill-opacity="1" d="M 54.800781 21 C 54.800781 18.597656 51.199219 18.597656 51.199219 21 C 51.199219 23.398438 54.800781 23.398438 54.800781 21 Z M 54.199219 21 C 54.199219 19.398438 51.800781 19.398438 51.800781 21 C 51.800781 22.597656 54.199219 22.597656 54.199219 21 Z M 54.199219 21 "/>
<path fill-rule="evenodd" fill="rgb(100%, 100%, 100%)" fill-opacity="1" d="M 54.5 109 C 54.5 107 51.5 107 51.5 109 C 51.5 111 54.5 111 54.5 109 Z M 54.5 109 "/>
<path fill-rule="evenodd" fill="rgb(0%, 0%, 0%)" fill-opacity="1" d="M 54.800781 109 C 54.800781 106.597656 51.199219 106.597656 51.199219 109 C 51.199219 111.398438 54.800781 111.398438 54.800781 109 Z M 54.199219 109 C 54.199219 107.398438 51.800781 107.398438 51.800781 109 C 51.800781 110.597656 54.199219 110.597656 54.199219 109 Z M 54.199219 109 "/>
<path fill-rule="evenodd" fill="rgb(100%, 100%, 100%)" fill-opacity="1" d="M 262.5 21 C 262.5 19 259.5 19 259.5 21 C 259.5 23 262.5 23 262.5 21 Z M 262.5 21 "/>
<path fill-rule="evenodd" fill="rgb(0%, 0%, 0%)" fill-opacity="1" d="M 262.800781 21 C 262.800781 18.597656 259.199219 18.597656 259.199219 21 C 259.199219 23.398438 262.800781 23.398438 262.800781 21 Z M 262.199219 21 C 262.199219 19.398438 259.800781 19.398438 259.800781 21 C 259.800781 22.597656 262.199219 22.597656 262.199219 21 Z M 262.199219 21 "/>
<path fill-rule="evenodd" fill="rgb(100%, 100%, 100%)" fill-opacity="1" d="M 262.5 109 C 262.5 107 259.5 107 259.5 109 C 259.5 111 262.5 111 262.5 109 Z M 262.5 109 "/>
<path fill-rule="evenodd" fill="rgb(0%, 0%, 0%)" fill-opacity="1" d="M 262.800781 109 C 262.800781 106.597656 259.199219 106.597656 259.199219 109 C 259.199219 111.398438 262.800781 111.398438 262.800781 109 Z M 262.199219 109 C 262.199219 107.398438 259.800781 107.398438 259.800781 109 C 259.800781 110.597656 262.199219 110.597656 262.199219 109 Z M 262.199219 109 "/>
<g clip-path="url(#clip-0)">
<g fill="rgb(0%, 0%, 0%)" fill-opacity="1">
<use xlink:href="#glyph-0-0" x="13" y="80.027"/>
<use xlink:href="#glyph-0-1" x="13" y="73.531385"/>
<use xlink:href="#glyph-0-2" x="13" y="68.550085"/>
<use xlink:href="#glyph-0-3" x="13" y="64.654708"/>
<use xlink:href="#glyph-0-4" x="13" y="57.471674"/>
</g>
</g>
<path fill="none" stroke-width="0.8" stroke-linecap="round" stroke-linejoin="round" stroke="rgb(0%, 0%, 0%)" stroke-opacity="1" stroke-miterlimit="10" d="M 180 504 L 244 504 " transform="matrix(1, 0, 0, -1, -55, 569)"/>
<path fill-rule="evenodd" fill="rgb(100%, 100%, 100%)" fill-opacity="1" d="M 173.011719 60.988281 L 141.011719 60.988281 L 141.011719 68.988281 L 173.011719 68.988281 Z M 173.011719 60.988281 "/>
<path fill="none" stroke-width="0.8" stroke-linecap="round" stroke-linejoin="round" stroke="rgb(0%, 0%, 0%)" stroke-opacity="1" stroke-miterlimit="10" d="M 221.609375 508.796875 C 218.410156 508.796875 216.808594 506.398438 216.808594 503.996094 " transform="matrix(1, 0, 0, -1, -55, 569)"/>
<path fill="none" stroke-width="0.8" stroke-linecap="round" stroke-linejoin="round" stroke="rgb(0%, 0%, 0%)" stroke-opacity="1" stroke-miterlimit="10" d="M 216.808594 503.996094 C 216.808594 501.863281 217.34375 500.796875 218.410156 500.796875 " transform="matrix(1, 0, 0, -1, -55, 569)"/>
<path fill="none" stroke-width="0.8" stroke-linecap="round" stroke-linejoin="round" stroke="rgb(0%, 0%, 0%)" stroke-opacity="1" stroke-miterlimit="10" d="M 218.410156 500.796875 C 219.476562 500.796875 220.007812 501.863281 220.007812 503.996094 " transform="matrix(1, 0, 0, -1, -55, 569)"/>
<path fill="none" stroke-width="0.8" stroke-linecap="round" stroke-linejoin="round" stroke="rgb(0%, 0%, 0%)" stroke-opacity="1" stroke-miterlimit="10" d="M 220.007812 503.996094 C 220.007812 506.398438 218.410156 508.796875 215.210938 508.796875 " transform="matrix(1, 0, 0, -1, -55, 569)"/>
<path fill="none" stroke-width="0.8" stroke-linecap="round" stroke-linejoin="round" stroke="rgb(0%, 0%, 0%)" stroke-opacity="1" stroke-miterlimit="10" d="M 215.210938 508.796875 C 212.011719 508.796875 210.410156 506.398438 210.410156 503.996094 " transform="matrix(1, 0, 0, -1, -55, 569)"/>
<path fill="none" stroke-width="0.8" stroke-linecap="round" stroke-linejoin="round" stroke="rgb(0%, 0%, 0%)" stroke-opacity="1" stroke-miterlimit="10" d="M 210.410156 503.996094 C 210.410156 501.863281 210.941406 500.796875 212.011719 500.796875 " transform="matrix(1, 0, 0, -1, -55, 569)"/>
<path fill="none" stroke-width="0.8" stroke-linecap="round" stroke-linejoin="round" stroke="rgb(0%, 0%, 0%)" stroke-opacity="1" stroke-miterlimit="10" d="M 212.011719 500.796875 C 213.078125 500.796875 213.609375 501.863281 213.609375 503.996094 " transform="matrix(1, 0, 0, -1, -55, 569)"/>
<path fill="none" stroke-width="0.8" stroke-linecap="round" stroke-linejoin="round" stroke="rgb(0%, 0%, 0%)" stroke-opacity="1" stroke-miterlimit="10" d="M 213.609375 503.996094 C 213.609375 506.398438 212.011719 508.796875 208.808594 508.796875 " transform="matrix(1, 0, 0, -1, -55, 569)"/>
<path fill="none" stroke-width="0.8" stroke-linecap="round" stroke-linejoin="round" stroke="rgb(0%, 0%, 0%)" stroke-opacity="1" stroke-miterlimit="10" d="M 208.808594 508.796875 C 205.609375 508.796875 204.011719 506.398438 204.011719 503.996094 " transform="matrix(1, 0, 0, -1, -55, 569)"/>
<path fill="none" stroke-width="0.8" stroke-linecap="round" stroke-linejoin="round" stroke="rgb(0%, 0%, 0%)" stroke-opacity="1" stroke-miterlimit="10" d="M 204.011719 503.996094 C 204.011719 501.863281 204.542969 500.796875 205.609375 500.796875 " transform="matrix(1, 0, 0, -1, -55, 569)"/>
<path fill="none" stroke-width="0.8" stroke-linecap="round" stroke-linejoin="round" stroke="rgb(0%, 0%, 0%)" stroke-opacity="1" stroke-miterlimit="10" d="M 205.609375 500.796875 C 206.675781 500.796875 207.210938 501.863281 207.210938 503.996094 " transform="matrix(1, 0, 0, -1, -55, 569)"/>
<path fill="none" stroke-width="0.8" stroke-linecap="round" stroke-linejoin="round" stroke="rgb(0%, 0%, 0%)" stroke-opacity="1" stroke-miterlimit="10" d="M 207.210938 503.996094 C 207.210938 506.398438 205.609375 508.796875 202.410156 508.796875 " transform="matrix(1, 0, 0, -1, -55, 569)"/>
<path fill="none" stroke-width="0.8" stroke-linecap="round" stroke-linejoin="round" stroke="rgb(0%, 0%, 0%)" stroke-opacity="1" stroke-miterlimit="10" d="M 226.410156 503.996094 C 226.410156 506.398438 224.808594 508.796875 221.609375 508.796875 " transform="matrix(1, 0, 0, -1, -55, 569)"/>
<path fill="none" stroke-width="0.8" stroke-linecap="round" stroke-linejoin="round" stroke="rgb(0%, 0%, 0%)" stroke-opacity="1" stroke-miterlimit="10" d="M 202.410156 508.796875 C 199.210938 508.796875 197.609375 506.398438 197.609375 503.996094 " transform="matrix(1, 0, 0, -1, -55, 569)"/>
<path fill="none" stroke-width="0.8" stroke-linecap="round" stroke-linejoin="round" stroke="rgb(0%, 0%, 0%)" stroke-opacity="1" stroke-miterlimit="10" d="M 226.410156 503.996094 L 228.007812 503.996094 " transform="matrix(1, 0, 0, -1, -55, 569)"/>
<path fill="none" stroke-width="0.8" stroke-linecap="round" stroke-linejoin="round" stroke="rgb(0%, 0%, 0%)" stroke-opacity="1" stroke-miterlimit="10" d="M 197.609375 503.996094 L 196.011719 503.996094 " transform="matrix(1, 0, 0, -1, -55, 569)"/>
<path fill-rule="evenodd" fill="rgb(0%, 0%, 0%)" fill-opacity="1" d="M 126.800781 65 C 126.800781 62.601562 123.199219 62.601562 123.199219 65 C 123.199219 67.398438 126.800781 67.398438 126.800781 65 Z M 126.800781 65 "/>
<path fill-rule="evenodd" fill="rgb(0%, 0%, 0%)" fill-opacity="1" d="M 190.800781 65 C 190.800781 62.601562 187.199219 62.601562 187.199219 65 C 187.199219 67.398438 190.800781 67.398438 190.800781 65 Z M 190.800781 65 "/>
<path fill-rule="evenodd" fill="rgb(100%, 100%, 100%)" fill-opacity="1" d="M 125 17 L 125 25 L 189 25 L 189 17 Z M 125 17 "/>
<path fill="none" stroke-width="0.8" stroke-linecap="round" stroke-linejoin="round" stroke="rgb(0%, 0%, 0%)" stroke-opacity="1" stroke-miterlimit="10" d="M 180 548 L 180 460 " transform="matrix(1, 0, 0, -1, -55, 569)"/>
<path fill-rule="evenodd" fill="rgb(100%, 100%, 100%)" fill-opacity="1" d="M 129.011719 57.015625 L 113.003906 57.015625 L 113.003906 33.015625 L 129.011719 33.015625 Z M 129.011719 57.015625 "/>
<path fill="none" stroke-width="0.8" stroke-linecap="round" stroke-linejoin="round" stroke="rgb(0%, 0%, 0%)" stroke-opacity="1" stroke-miterlimit="10" d="M 184.003906 528 L 192.007812 528 " transform="matrix(1, 0, 0, -1, -55, 569)"/>
<path fill-rule="evenodd" fill="rgb(0%, 0%, 0%)" fill-opacity="1" stroke-width="0.8" stroke-linecap="butt" stroke-linejoin="round" stroke="rgb(0%, 0%, 0%)" stroke-opacity="1" stroke-miterlimit="10" d="M 188.007812 528 L 192.007812 520 L 184.003906 520 L 188.007812 528 " transform="matrix(1, 0, 0, -1, -55, 569)"/>
<path fill="none" stroke-width="0.8" stroke-linecap="round" stroke-linejoin="round" stroke="rgb(0%, 0%, 0%)" stroke-opacity="1" stroke-miterlimit="10" d="M 188.007812 528 L 188.007812 536 " transform="matrix(1, 0, 0, -1, -55, 569)"/>
<path fill="none" stroke-width="0.8" stroke-linecap="round" stroke-linejoin="round" stroke="rgb(0%, 0%, 0%)" stroke-opacity="1" stroke-miterlimit="10" d="M 188.007812 520 L 188.007812 512 " transform="matrix(1, 0, 0, -1, -55, 569)"/>
<path fill="none" stroke-width="0.8" stroke-linecap="round" stroke-linejoin="round" stroke="rgb(0%, 0%, 0%)" stroke-opacity="1" stroke-miterlimit="10" d="M 188.007812 536 L 180.003906 536 " transform="matrix(1, 0, 0, -1, -55, 569)"/>
<path fill="none" stroke-width="0.8" stroke-linecap="round" stroke-linejoin="round" stroke="rgb(0%, 0%, 0%)" stroke-opacity="1" stroke-miterlimit="10" d="M 188.007812 512 L 180.003906 512 " transform="matrix(1, 0, 0, -1, -55, 569)"/>
<path fill="none" stroke-width="0.8" stroke-linecap="round" stroke-linejoin="round" stroke="rgb(0%, 0%, 0%)" stroke-opacity="1" stroke-miterlimit="10" d="M 180.003906 530.765625 L 180.003906 539.988281 " transform="matrix(1, 0, 0, -1, -55, 569)"/>
<path fill="none" stroke-width="0.8" stroke-linecap="round" stroke-linejoin="round" stroke="rgb(0%, 0%, 0%)" stroke-opacity="1" stroke-miterlimit="10" d="M 180.003906 508 L 180.003906 517.21875 " transform="matrix(1, 0, 0, -1, -55, 569)"/>
<path fill="none" stroke-width="0.8" stroke-linecap="round" stroke-linejoin="round" stroke="rgb(0%, 0%, 0%)" stroke-opacity="1" stroke-miterlimit="10" d="M 170.398438 524 L 164 524 " transform="matrix(1, 0, 0, -1, -55, 569)"/>
<path fill="none" stroke-width="1.2" stroke-linecap="round" stroke-linejoin="round" stroke="rgb(0%, 0%, 0%)" stroke-opacity="1" stroke-miterlimit="10" d="M 170.398438 530.765625 L 170.398438 517.214844 " transform="matrix(1, 0, 0, -1, -55, 569)"/>
<path fill="none" stroke-width="0.8" stroke-linecap="round" stroke-linejoin="round" stroke="rgb(0%, 0%, 0%)" stroke-opacity="1" stroke-miterlimit="10" d="M 173.601562 515.414062 L 173.601562 518.730469 " transform="matrix(1, 0, 0, -1, -55, 569)"/>
<path fill="none" stroke-width="0.8" stroke-linecap="round" stroke-linejoin="round" stroke="rgb(0%, 0%, 0%)" stroke-opacity="1" stroke-miterlimit="10" d="M 173.601562 529.175781 L 173.601562 532.636719 " transform="matrix(1, 0, 0, -1, -55, 569)"/>
<path fill="none" stroke-width="0.8" stroke-linecap="round" stroke-linejoin="round" stroke="rgb(0%, 0%, 0%)" stroke-opacity="1" stroke-miterlimit="10" d="M 180.003906 530.765625 L 173.601562 530.765625 " transform="matrix(1, 0, 0, -1, -55, 569)"/>
<path fill="none" stroke-width="0.8" stroke-linecap="round" stroke-linejoin="round" stroke="rgb(0%, 0%, 0%)" stroke-opacity="1" stroke-miterlimit="10" d="M 180.003906 523.988281 L 173.601562 523.988281 " transform="matrix(1, 0, 0, -1, -55, 569)"/>
<path fill="none" stroke-width="0.8" stroke-linecap="round" stroke-linejoin="round" stroke="rgb(0%, 0%, 0%)" stroke-opacity="1" stroke-miterlimit="10" d="M 173.632812 521.433594 L 173.632812 526.421875 " transform="matrix(1, 0, 0, -1, -55, 569)"/>
<path fill-rule="evenodd" fill="rgb(0%, 0%, 0%)" fill-opacity="1" stroke-width="0.8" stroke-linecap="round" stroke-linejoin="round" stroke="rgb(0%, 0%, 0%)" stroke-opacity="1" stroke-miterlimit="10" d="M 173.601562 523.996094 L 177.441406 525.578125 L 177.441406 522.410156 Z M 173.601562 523.996094 " transform="matrix(1, 0, 0, -1, -55, 569)"/>
<path fill="none" stroke-width="0.8" stroke-linecap="round" stroke-linejoin="round" stroke="rgb(0%, 0%, 0%)" stroke-opacity="1" stroke-miterlimit="10" d="M 173.601562 517.21875 L 180.003906 517.21875 " transform="matrix(1, 0, 0, -1, -55, 569)"/>
<path fill="none" stroke-width="0.8" stroke-linecap="round" stroke-linejoin="round" stroke="rgb(0%, 0%, 0%)" stroke-opacity="1" stroke-miterlimit="10" d="M 180.003906 523.988281 L 180.003906 517.210938 " transform="matrix(1, 0, 0, -1, -55, 569)"/>
<path fill-rule="evenodd" fill="rgb(100%, 100%, 100%)" fill-opacity="1" d="M 129.011719 97.015625 L 113.003906 97.015625 L 113.003906 73.015625 L 129.011719 73.015625 Z M 129.011719 97.015625 "/>
<path fill="none" stroke-width="0.8" stroke-linecap="round" stroke-linejoin="round" stroke="rgb(0%, 0%, 0%)" stroke-opacity="1" stroke-miterlimit="10" d="M 184.003906 488 L 192.007812 488 " transform="matrix(1, 0, 0, -1, -55, 569)"/>
<path fill-rule="evenodd" fill="rgb(0%, 0%, 0%)" fill-opacity="1" stroke-width="0.8" stroke-linecap="butt" stroke-linejoin="round" stroke="rgb(0%, 0%, 0%)" stroke-opacity="1" stroke-miterlimit="10" d="M 188.007812 488 L 192.007812 480 L 184.003906 480 L 188.007812 488 " transform="matrix(1, 0, 0, -1, -55, 569)"/>
<path fill="none" stroke-width="0.8" stroke-linecap="round" stroke-linejoin="round" stroke="rgb(0%, 0%, 0%)" stroke-opacity="1" stroke-miterlimit="10" d="M 188.007812 488 L 188.007812 496 " transform="matrix(1, 0, 0, -1, -55, 569)"/>
<path fill="none" stroke-width="0.8" stroke-linecap="round" stroke-linejoin="round" stroke="rgb(0%, 0%, 0%)" stroke-opacity="1" stroke-miterlimit="10" d="M 188.007812 480 L 188.007812 472 " transform="matrix(1, 0, 0, -1, -55, 569)"/>
<path fill="none" stroke-width="0.8" stroke-linecap="round" stroke-linejoin="round" stroke="rgb(0%, 0%, 0%)" stroke-opacity="1" stroke-miterlimit="10" d="M 188.007812 496 L 180.003906 496 " transform="matrix(1, 0, 0, -1, -55, 569)"/>
<path fill="none" stroke-width="0.8" stroke-linecap="round" stroke-linejoin="round" stroke="rgb(0%, 0%, 0%)" stroke-opacity="1" stroke-miterlimit="10" d="M 188.007812 472 L 180.003906 472 " transform="matrix(1, 0, 0, -1, -55, 569)"/>
<path fill="none" stroke-width="0.8" stroke-linecap="round" stroke-linejoin="round" stroke="rgb(0%, 0%, 0%)" stroke-opacity="1" stroke-miterlimit="10" d="M 180.003906 490.765625 L 180.003906 499.988281 " transform="matrix(1, 0, 0, -1, -55, 569)"/>
<path fill="none" stroke-width="0.8" stroke-linecap="round" stroke-linejoin="round" stroke="rgb(0%, 0%, 0%)" stroke-opacity="1" stroke-miterlimit="10" d="M 180.003906 468 L 180.003906 477.21875 " transform="matrix(1, 0, 0, -1, -55, 569)"/>
<path fill="none" stroke-width="0.8" stroke-linecap="round" stroke-linejoin="round" stroke="rgb(0%, 0%, 0%)" stroke-opacity="1" stroke-miterlimit="10" d="M 170.398438 484 L 164 484 " transform="matrix(1, 0, 0, -1, -55, 569)"/>
<path fill="none" stroke-width="1.2" stroke-linecap="round" stroke-linejoin="round" stroke="rgb(0%, 0%, 0%)" stroke-opacity="1" stroke-miterlimit="10" d="M 170.398438 490.765625 L 170.398438 477.214844 " transform="matrix(1, 0, 0, -1, -55, 569)"/>
<path fill="none" stroke-width="0.8" stroke-linecap="round" stroke-linejoin="round" stroke="rgb(0%, 0%, 0%)" stroke-opacity="1" stroke-miterlimit="10" d="M 173.601562 475.414062 L 173.601562 478.730469 " transform="matrix(1, 0, 0, -1, -55, 569)"/>
<path fill="none" stroke-width="0.8" stroke-linecap="round" stroke-linejoin="round" stroke="rgb(0%, 0%, 0%)" stroke-opacity="1" stroke-miterlimit="10" d="M 173.601562 489.175781 L 173.601562 492.636719 " transform="matrix(1, 0, 0, -1, -55, 569)"/>
<path fill="none" stroke-width="0.8" stroke-linecap="round" stroke-linejoin="round" stroke="rgb(0%, 0%, 0%)" stroke-opacity="1" stroke-miterlimit="10" d="M 180.003906 490.765625 L 173.601562 490.765625 " transform="matrix(1, 0, 0, -1, -55, 569)"/>
<path fill="none" stroke-width="0.8" stroke-linecap="round" stroke-linejoin="round" stroke="rgb(0%, 0%, 0%)" stroke-opacity="1" stroke-miterlimit="10" d="M 180.003906 483.988281 L 173.601562 483.988281 " transform="matrix(1, 0, 0, -1, -55, 569)"/>
<path fill="none" stroke-width="0.8" stroke-linecap="round" stroke-linejoin="round" stroke="rgb(0%, 0%, 0%)" stroke-opacity="1" stroke-miterlimit="10" d="M 173.632812 481.433594 L 173.632812 486.421875 " transform="matrix(1, 0, 0, -1, -55, 569)"/>
<path fill-rule="evenodd" fill="rgb(0%, 0%, 0%)" fill-opacity="1" stroke-width="0.8" stroke-linecap="round" stroke-linejoin="round" stroke="rgb(0%, 0%, 0%)" stroke-opacity="1" stroke-miterlimit="10" d="M 173.601562 483.996094 L 177.441406 485.578125 L 177.441406 482.410156 Z M 173.601562 483.996094 " transform="matrix(1, 0, 0, -1, -55, 569)"/>
<path fill="none" stroke-width="0.8" stroke-linecap="round" stroke-linejoin="round" stroke="rgb(0%, 0%, 0%)" stroke-opacity="1" stroke-miterlimit="10" d="M 173.601562 477.21875 L 180.003906 477.21875 " transform="matrix(1, 0, 0, -1, -55, 569)"/>
<path fill="none" stroke-width="0.8" stroke-linecap="round" stroke-linejoin="round" stroke="rgb(0%, 0%, 0%)" stroke-opacity="1" stroke-miterlimit="10" d="M 180.003906 483.988281 L 180.003906 477.210938 " transform="matrix(1, 0, 0, -1, -55, 569)"/>
<path fill="none" stroke-width="0.8" stroke-linecap="round" stroke-linejoin="round" stroke="rgb(0%, 0%, 0%)" stroke-opacity="1" stroke-miterlimit="10" d="M 244 548 L 244 460 " transform="matrix(1, 0, 0, -1, -55, 569)"/>
<path fill-rule="evenodd" fill="rgb(0%, 0%, 0%)" fill-opacity="1" d="M 126.800781 109 C 126.800781 106.601562 123.199219 106.601562 123.199219 109 C 123.199219 111.398438 126.800781 111.398438 126.800781 109 Z M 126.800781 109 "/>
<path fill-rule="evenodd" fill="rgb(0%, 0%, 0%)" fill-opacity="1" d="M 190.800781 109 C 190.800781 106.601562 187.199219 106.601562 187.199219 109 C 187.199219 111.398438 190.800781 111.398438 190.800781 109 Z M 190.800781 109 "/>
<path fill-rule="evenodd" fill="rgb(100%, 100%, 100%)" fill-opacity="1" stroke-width="0.4" stroke-linecap="round" stroke-linejoin="round" stroke="rgb(0%, 0%, 0%)" stroke-opacity="1" stroke-miterlimit="10" d="M 116.003906 456 L 116.003906 552 L 156.003906 552 L 156.003906 456 Z M 116.003906 456 " transform="matrix(1, 0, 0, -1, -55, 569)"/>
<g clip-path="url(#clip-1)">
<g fill="rgb(0%, 0%, 0%)" fill-opacity="1">
<use xlink:href="#glyph-1-0" x="70.716" y="87.764204"/>
<use xlink:href="#glyph-1-1" x="76.239279" y="87.764204"/>
<use xlink:href="#glyph-1-2" x="78.590459" y="87.764204"/>
<use xlink:href="#glyph-1-3" x="80.941638" y="87.764204"/>
<use xlink:href="#glyph-1-4" x="84.23329" y="87.764204"/>
<use xlink:href="#glyph-1-5" x="87.995177" y="87.764204"/>
</g>
</g>
<path fill-rule="evenodd" fill="rgb(100%, 100%, 100%)" fill-opacity="1" d="M 69.007812 50.5 L 77.007812 50.5 L 77.007812 71.5 L 69.007812 71.5 Z M 69.007812 50.5 "/>
<path fill="none" stroke-width="0.8" stroke-linecap="round" stroke-linejoin="round" stroke="rgb(0%, 0%, 0%)" stroke-opacity="1" stroke-miterlimit="10" d="M 123.207031 502 C 123.207031 505 125.609375 506.5 128.007812 506.5 " transform="matrix(1, 0, 0, -1, -55, 569)"/>
<path fill="none" stroke-width="0.8" stroke-linecap="round" stroke-linejoin="round" stroke="rgb(0%, 0%, 0%)" stroke-opacity="1" stroke-miterlimit="10" d="M 128.007812 506.5 C 130.140625 506.5 131.207031 506 131.207031 505 " transform="matrix(1, 0, 0, -1, -55, 569)"/>
<path fill="none" stroke-width="0.8" stroke-linecap="round" stroke-linejoin="round" stroke="rgb(0%, 0%, 0%)" stroke-opacity="1" stroke-miterlimit="10" d="M 131.207031 505 C 131.207031 504 130.140625 503.5 128.007812 503.5 " transform="matrix(1, 0, 0, -1, -55, 569)"/>
<path fill="none" stroke-width="0.8" stroke-linecap="round" stroke-linejoin="round" stroke="rgb(0%, 0%, 0%)" stroke-opacity="1" stroke-miterlimit="10" d="M 128.007812 503.5 C 125.609375 503.5 123.207031 505 123.207031 508 " transform="matrix(1, 0, 0, -1, -55, 569)"/>
<path fill="none" stroke-width="0.8" stroke-linecap="round" stroke-linejoin="round" stroke="rgb(0%, 0%, 0%)" stroke-opacity="1" stroke-miterlimit="10" d="M 123.207031 508 C 123.207031 511 125.609375 512.5 128.007812 512.5 " transform="matrix(1, 0, 0, -1, -55, 569)"/>
<path fill="none" stroke-width="0.8" stroke-linecap="round" stroke-linejoin="round" stroke="rgb(0%, 0%, 0%)" stroke-opacity="1" stroke-miterlimit="10" d="M 128.007812 512.5 C 130.140625 512.5 131.207031 512 131.207031 511 " transform="matrix(1, 0, 0, -1, -55, 569)"/>
<path fill="none" stroke-width="0.8" stroke-linecap="round" stroke-linejoin="round" stroke="rgb(0%, 0%, 0%)" stroke-opacity="1" stroke-miterlimit="10" d="M 131.207031 511 C 131.207031 510 130.140625 509.5 128.007812 509.5 " transform="matrix(1, 0, 0, -1, -55, 569)"/>
<path fill="none" stroke-width="0.8" stroke-linecap="round" stroke-linejoin="round" stroke="rgb(0%, 0%, 0%)" stroke-opacity="1" stroke-miterlimit="10" d="M 128.007812 509.5 C 125.609375 509.5 123.207031 511 123.207031 514 " transform="matrix(1, 0, 0, -1, -55, 569)"/>
<path fill="none" stroke-width="0.8" stroke-linecap="round" stroke-linejoin="round" stroke="rgb(0%, 0%, 0%)" stroke-opacity="1" stroke-miterlimit="10" d="M 123.207031 514 C 123.207031 517 125.609375 518.5 128.007812 518.5 " transform="matrix(1, 0, 0, -1, -55, 569)"/>
<path fill="none" stroke-width="0.8" stroke-linecap="round" stroke-linejoin="round" stroke="rgb(0%, 0%, 0%)" stroke-opacity="1" stroke-miterlimit="10" d="M 128.007812 497.5 C 125.609375 497.5 123.207031 499 123.207031 502 " transform="matrix(1, 0, 0, -1, -55, 569)"/>
<path fill="none" stroke-width="0.8" stroke-linecap="round" stroke-linejoin="round" stroke="rgb(0%, 0%, 0%)" stroke-opacity="1" stroke-miterlimit="10" d="M 128.007812 497.5 L 128.007812 496 " transform="matrix(1, 0, 0, -1, -55, 569)"/>
<path fill="none" stroke-width="0.8" stroke-linecap="round" stroke-linejoin="round" stroke="rgb(0%, 0%, 0%)" stroke-opacity="1" stroke-miterlimit="10" d="M 128.007812 518.5 L 128.007812 520 " transform="matrix(1, 0, 0, -1, -55, 569)"/>
<path fill="none" stroke-width="0.8" stroke-linecap="round" stroke-linejoin="round" stroke="rgb(0%, 0%, 0%)" stroke-opacity="1" stroke-miterlimit="10" d="M 144.007812 520 L 144.007812 496 " transform="matrix(1, 0, 0, -1, -55, 569)"/>
<path fill-rule="evenodd" fill="rgb(100%, 100%, 100%)" fill-opacity="1" d="M 83.152344 62.757812 L 83.152344 59.332031 L 95.039062 59.332031 L 95.039062 62.757812 Z M 83.152344 62.757812 "/>
<path fill="none" stroke-width="0.8" stroke-linecap="round" stroke-linejoin="round" stroke="rgb(0%, 0%, 0%)" stroke-opacity="1" stroke-miterlimit="10" d="M 144.007812 500 L 144.007812 505.753906 " transform="matrix(1, 0, 0, -1, -55, 569)"/>
<path fill="none" stroke-width="0.8" stroke-linecap="round" stroke-linejoin="round" stroke="rgb(0%, 0%, 0%)" stroke-opacity="1" stroke-miterlimit="10" d="M 144.007812 516 L 144.007812 510.195312 " transform="matrix(1, 0, 0, -1, -55, 569)"/>
<path fill="none" stroke-width="1.2" stroke-linecap="round" stroke-linejoin="round" stroke="rgb(0%, 0%, 0%)" stroke-opacity="1" stroke-miterlimit="10" d="M 138.152344 506.242188 L 150.023438 506.242188 " transform="matrix(1, 0, 0, -1, -55, 569)"/>
<path fill="none" stroke-width="1.2" stroke-linecap="round" stroke-linejoin="round" stroke="rgb(0%, 0%, 0%)" stroke-opacity="1" stroke-miterlimit="10" d="M 138.167969 509.667969 L 150.039062 509.667969 " transform="matrix(1, 0, 0, -1, -55, 569)"/>
<path fill-rule="evenodd" fill="rgb(100%, 100%, 100%)" fill-opacity="1" stroke-width="0.4" stroke-linecap="round" stroke-linejoin="round" stroke="rgb(0%, 0%, 0%)" stroke-opacity="1" stroke-miterlimit="10" d="M 268.003906 456 L 268.003906 552 L 308.003906 552 L 308.003906 456 Z M 268.003906 456 " transform="matrix(1, 0, 0, -1, -55, 569)"/>
<g clip-path="url(#clip-2)">
<g fill="rgb(0%, 0%, 0%)" fill-opacity="1">
<use xlink:href="#glyph-1-0" x="222.716" y="87.764204"/>
<use xlink:href="#glyph-1-1" x="228.239279" y="87.764204"/>
<use xlink:href="#glyph-1-2" x="230.590459" y="87.764204"/>
<use xlink:href="#glyph-1-3" x="232.941638" y="87.764204"/>
<use xlink:href="#glyph-1-4" x="236.23329" y="87.764204"/>
<use xlink:href="#glyph-1-5" x="239.995177" y="87.764204"/>
</g>
</g>
<path fill-rule="evenodd" fill="rgb(100%, 100%, 100%)" fill-opacity="1" d="M 221.007812 50.5 L 229.007812 50.5 L 229.007812 71.5 L 221.007812 71.5 Z M 221.007812 50.5 "/>
<path fill="none" stroke-width="0.8" stroke-linecap="round" stroke-linejoin="round" stroke="rgb(0%, 0%, 0%)" stroke-opacity="1" stroke-miterlimit="10" d="M 275.207031 502 C 275.207031 505 277.609375 506.5 280.007812 506.5 " transform="matrix(1, 0, 0, -1, -55, 569)"/>
<path fill="none" stroke-width="0.8" stroke-linecap="round" stroke-linejoin="round" stroke="rgb(0%, 0%, 0%)" stroke-opacity="1" stroke-miterlimit="10" d="M 280.007812 506.5 C 282.140625 506.5 283.207031 506 283.207031 505 " transform="matrix(1, 0, 0, -1, -55, 569)"/>
<path fill="none" stroke-width="0.8" stroke-linecap="round" stroke-linejoin="round" stroke="rgb(0%, 0%, 0%)" stroke-opacity="1" stroke-miterlimit="10" d="M 283.207031 505 C 283.207031 504 282.140625 503.5 280.007812 503.5 " transform="matrix(1, 0, 0, -1, -55, 569)"/>
<path fill="none" stroke-width="0.8" stroke-linecap="round" stroke-linejoin="round" stroke="rgb(0%, 0%, 0%)" stroke-opacity="1" stroke-miterlimit="10" d="M 280.007812 503.5 C 277.609375 503.5 275.207031 505 275.207031 508 " transform="matrix(1, 0, 0, -1, -55, 569)"/>
<path fill="none" stroke-width="0.8" stroke-linecap="round" stroke-linejoin="round" stroke="rgb(0%, 0%, 0%)" stroke-opacity="1" stroke-miterlimit="10" d="M 275.207031 508 C 275.207031 511 277.609375 512.5 280.007812 512.5 " transform="matrix(1, 0, 0, -1, -55, 569)"/>
<path fill="none" stroke-width="0.8" stroke-linecap="round" stroke-linejoin="round" stroke="rgb(0%, 0%, 0%)" stroke-opacity="1" stroke-miterlimit="10" d="M 280.007812 512.5 C 282.140625 512.5 283.207031 512 283.207031 511 " transform="matrix(1, 0, 0, -1, -55, 569)"/>
<path fill="none" stroke-width="0.8" stroke-linecap="round" stroke-linejoin="round" stroke="rgb(0%, 0%, 0%)" stroke-opacity="1" stroke-miterlimit="10" d="M 283.207031 511 C 283.207031 510 282.140625 509.5 280.007812 509.5 " transform="matrix(1, 0, 0, -1, -55, 569)"/>
<path fill="none" stroke-width="0.8" stroke-linecap="round" stroke-linejoin="round" stroke="rgb(0%, 0%, 0%)" stroke-opacity="1" stroke-miterlimit="10" d="M 280.007812 509.5 C 277.609375 509.5 275.207031 511 275.207031 514 " transform="matrix(1, 0, 0, -1, -55, 569)"/>
<path fill="none" stroke-width="0.8" stroke-linecap="round" stroke-linejoin="round" stroke="rgb(0%, 0%, 0%)" stroke-opacity="1" stroke-miterlimit="10" d="M 275.207031 514 C 275.207031 517 277.609375 518.5 280.007812 518.5 " transform="matrix(1, 0, 0, -1, -55, 569)"/>
<path fill="none" stroke-width="0.8" stroke-linecap="round" stroke-linejoin="round" stroke="rgb(0%, 0%, 0%)" stroke-opacity="1" stroke-miterlimit="10" d="M 280.007812 497.5 C 277.609375 497.5 275.207031 499 275.207031 502 " transform="matrix(1, 0, 0, -1, -55, 569)"/>
<path fill="none" stroke-width="0.8" stroke-linecap="round" stroke-linejoin="round" stroke="rgb(0%, 0%, 0%)" stroke-opacity="1" stroke-miterlimit="10" d="M 280.007812 497.5 L 280.007812 496 " transform="matrix(1, 0, 0, -1, -55, 569)"/>
<path fill="none" stroke-width="0.8" stroke-linecap="round" stroke-linejoin="round" stroke="rgb(0%, 0%, 0%)" stroke-opacity="1" stroke-miterlimit="10" d="M 280.007812 518.5 L 280.007812 520 " transform="matrix(1, 0, 0, -1, -55, 569)"/>
<path fill="none" stroke-width="0.8" stroke-linecap="round" stroke-linejoin="round" stroke="rgb(0%, 0%, 0%)" stroke-opacity="1" stroke-miterlimit="10" d="M 296.007812 520 L 296.007812 496 " transform="matrix(1, 0, 0, -1, -55, 569)"/>
<path fill-rule="evenodd" fill="rgb(100%, 100%, 100%)" fill-opacity="1" d="M 235.152344 62.757812 L 235.152344 59.332031 L 247.039062 59.332031 L 247.039062 62.757812 Z M 235.152344 62.757812 "/>
<path fill="none" stroke-width="0.8" stroke-linecap="round" stroke-linejoin="round" stroke="rgb(0%, 0%, 0%)" stroke-opacity="1" stroke-miterlimit="10" d="M 296.007812 500 L 296.007812 505.753906 " transform="matrix(1, 0, 0, -1, -55, 569)"/>
<path fill="none" stroke-width="0.8" stroke-linecap="round" stroke-linejoin="round" stroke="rgb(0%, 0%, 0%)" stroke-opacity="1" stroke-miterlimit="10" d="M 296.007812 516 L 296.007812 510.195312 " transform="matrix(1, 0, 0, -1, -55, 569)"/>
<path fill="none" stroke-width="1.2" stroke-linecap="round" stroke-linejoin="round" stroke="rgb(0%, 0%, 0%)" stroke-opacity="1" stroke-miterlimit="10" d="M 290.152344 506.242188 L 302.023438 506.242188 " transform="matrix(1, 0, 0, -1, -55, 569)"/>
<path fill="none" stroke-width="1.2" stroke-linecap="round" stroke-linejoin="round" stroke="rgb(0%, 0%, 0%)" stroke-opacity="1" stroke-miterlimit="10" d="M 290.167969 509.667969 L 302.039062 509.667969 " transform="matrix(1, 0, 0, -1, -55, 569)"/>
<path fill="none" stroke-width="0.8" stroke-linecap="round" stroke-linejoin="round" stroke="rgb(0%, 0%, 0%)" stroke-opacity="1" stroke-miterlimit="10" d="M 100 460 L 80 460 L 80 547.996094 L 100 547.996094 " transform="matrix(1, 0, 0, -1, -55, 569)"/>
<path fill-rule="evenodd" fill="rgb(100%, 100%, 100%)" fill-opacity="1" d="M 46.5 20.996094 C 46.5 18.996094 43.5 18.996094 43.5 20.996094 C 43.5 22.996094 46.5 22.996094 46.5 20.996094 Z M 46.5 20.996094 "/>
<path fill-rule="evenodd" fill="rgb(0%, 0%, 0%)" fill-opacity="1" d="M 46.800781 20.996094 C 46.800781 18.597656 43.199219 18.597656 43.199219 20.996094 C 43.199219 23.394531 46.800781 23.394531 46.800781 20.996094 Z M 46.199219 20.996094 C 46.199219 19.394531 43.800781 19.394531 43.800781 20.996094 C 43.800781 22.597656 46.199219 22.597656 46.199219 20.996094 Z M 46.199219 20.996094 "/>
<path fill-rule="evenodd" fill="rgb(100%, 100%, 100%)" fill-opacity="1" d="M 46.5 109 C 46.5 107 43.5 107 43.5 109 C 43.5 111 46.5 111 46.5 109 Z M 46.5 109 "/>
<path fill-rule="evenodd" fill="rgb(0%, 0%, 0%)" fill-opacity="1" d="M 46.800781 109 C 46.800781 106.601562 43.199219 106.601562 43.199219 109 C 43.199219 111.402344 46.800781 111.402344 46.800781 109 Z M 46.199219 109 C 46.199219 107.402344 43.800781 107.402344 43.800781 109 C 43.800781 110.601562 46.199219 110.601562 46.199219 109 Z M 46.199219 109 "/>
<g clip-path="url(#clip-3)">
<g fill="rgb(0%, 0%, 0%)" fill-opacity="1">
<use xlink:href="#glyph-2-0" x="124.1785" y="131.808"/>
<use xlink:href="#glyph-2-1" x="130.953068" y="131.808"/>
<use xlink:href="#glyph-2-2" x="136.073844" y="131.808"/>
<use xlink:href="#glyph-2-3" x="146.86334" y="131.808"/>
<use xlink:href="#glyph-2-4" x="154.056337" y="131.808"/>
<use xlink:href="#glyph-2-5" x="159.037637" y="131.808"/>
<use xlink:href="#glyph-2-6" x="164.287928" y="131.808"/>
<use xlink:href="#glyph-2-7" x="169.269228" y="131.808"/>
<use xlink:href="#glyph-2-8" x="173.692622" y="131.808"/>
<use xlink:href="#glyph-2-9" x="177.587999" y="131.808"/>
<use xlink:href="#glyph-2-7" x="181.453487" y="131.808"/>
<use xlink:href="#glyph-2-8" x="185.876882" y="131.808"/>
</g>
</g>
<path fill-rule="evenodd" fill="rgb(100%, 100%, 100%)" fill-opacity="1" d="M 193.011719 57.015625 L 177.003906 57.015625 L 177.003906 33.015625 L 193.011719 33.015625 Z M 193.011719 57.015625 "/>
<path fill="none" stroke-width="0.8" stroke-linecap="round" stroke-linejoin="round" stroke="rgb(0%, 0%, 0%)" stroke-opacity="1" stroke-miterlimit="10" d="M 248.003906 528 L 256.007812 528 " transform="matrix(1, 0, 0, -1, -55, 569)"/>
<path fill-rule="evenodd" fill="rgb(0%, 0%, 0%)" fill-opacity="1" stroke-width="0.8" stroke-linecap="butt" stroke-linejoin="round" stroke="rgb(0%, 0%, 0%)" stroke-opacity="1" stroke-miterlimit="10" d="M 252.007812 528 L 256.007812 520 L 248.003906 520 L 252.007812 528 " transform="matrix(1, 0, 0, -1, -55, 569)"/>
<path fill="none" stroke-width="0.8" stroke-linecap="round" stroke-linejoin="round" stroke="rgb(0%, 0%, 0%)" stroke-opacity="1" stroke-miterlimit="10" d="M 252.007812 528 L 252.007812 536 " transform="matrix(1, 0, 0, -1, -55, 569)"/>
<path fill="none" stroke-width="0.8" stroke-linecap="round" stroke-linejoin="round" stroke="rgb(0%, 0%, 0%)" stroke-opacity="1" stroke-miterlimit="10" d="M 252.007812 520 L 252.007812 512 " transform="matrix(1, 0, 0, -1, -55, 569)"/>
<path fill="none" stroke-width="0.8" stroke-linecap="round" stroke-linejoin="round" stroke="rgb(0%, 0%, 0%)" stroke-opacity="1" stroke-miterlimit="10" d="M 252.007812 536 L 244.003906 536 " transform="matrix(1, 0, 0, -1, -55, 569)"/>
<path fill="none" stroke-width="0.8" stroke-linecap="round" stroke-linejoin="round" stroke="rgb(0%, 0%, 0%)" stroke-opacity="1" stroke-miterlimit="10" d="M 252.007812 512 L 244.003906 512 " transform="matrix(1, 0, 0, -1, -55, 569)"/>
<path fill="none" stroke-width="0.8" stroke-linecap="round" stroke-linejoin="round" stroke="rgb(0%, 0%, 0%)" stroke-opacity="1" stroke-miterlimit="10" d="M 244.003906 530.765625 L 244.003906 539.988281 " transform="matrix(1, 0, 0, -1, -55, 569)"/>
<path fill="none" stroke-width="0.8" stroke-linecap="round" stroke-linejoin="round" stroke="rgb(0%, 0%, 0%)" stroke-opacity="1" stroke-miterlimit="10" d="M 244.003906 508 L 244.003906 517.21875 " transform="matrix(1, 0, 0, -1, -55, 569)"/>
<path fill="none" stroke-width="0.8" stroke-linecap="round" stroke-linejoin="round" stroke="rgb(0%, 0%, 0%)" stroke-opacity="1" stroke-miterlimit="10" d="M 234.398438 524 L 228 524 " transform="matrix(1, 0, 0, -1, -55, 569)"/>
<path fill="none" stroke-width="1.2" stroke-linecap="round" stroke-linejoin="round" stroke="rgb(0%, 0%, 0%)" stroke-opacity="1" stroke-miterlimit="10" d="M 234.398438 530.765625 L 234.398438 517.214844 " transform="matrix(1, 0, 0, -1, -55, 569)"/>
<path fill="none" stroke-width="0.8" stroke-linecap="round" stroke-linejoin="round" stroke="rgb(0%, 0%, 0%)" stroke-opacity="1" stroke-miterlimit="10" d="M 237.601562 515.414062 L 237.601562 518.730469 " transform="matrix(1, 0, 0, -1, -55, 569)"/>
<path fill="none" stroke-width="0.8" stroke-linecap="round" stroke-linejoin="round" stroke="rgb(0%, 0%, 0%)" stroke-opacity="1" stroke-miterlimit="10" d="M 237.601562 529.175781 L 237.601562 532.636719 " transform="matrix(1, 0, 0, -1, -55, 569)"/>
<path fill="none" stroke-width="0.8" stroke-linecap="round" stroke-linejoin="round" stroke="rgb(0%, 0%, 0%)" stroke-opacity="1" stroke-miterlimit="10" d="M 244.003906 530.765625 L 237.601562 530.765625 " transform="matrix(1, 0, 0, -1, -55, 569)"/>
<path fill="none" stroke-width="0.8" stroke-linecap="round" stroke-linejoin="round" stroke="rgb(0%, 0%, 0%)" stroke-opacity="1" stroke-miterlimit="10" d="M 244.003906 523.988281 L 237.601562 523.988281 " transform="matrix(1, 0, 0, -1, -55, 569)"/>
<path fill="none" stroke-width="0.8" stroke-linecap="round" stroke-linejoin="round" stroke="rgb(0%, 0%, 0%)" stroke-opacity="1" stroke-miterlimit="10" d="M 237.632812 521.433594 L 237.632812 526.421875 " transform="matrix(1, 0, 0, -1, -55, 569)"/>
<path fill-rule="evenodd" fill="rgb(0%, 0%, 0%)" fill-opacity="1" stroke-width="0.8" stroke-linecap="round" stroke-linejoin="round" stroke="rgb(0%, 0%, 0%)" stroke-opacity="1" stroke-miterlimit="10" d="M 237.601562 523.996094 L 241.441406 525.578125 L 241.441406 522.410156 Z M 237.601562 523.996094 " transform="matrix(1, 0, 0, -1, -55, 569)"/>
<path fill="none" stroke-width="0.8" stroke-linecap="round" stroke-linejoin="round" stroke="rgb(0%, 0%, 0%)" stroke-opacity="1" stroke-miterlimit="10" d="M 237.601562 517.21875 L 244.003906 517.21875 " transform="matrix(1, 0, 0, -1, -55, 569)"/>
<path fill="none" stroke-width="0.8" stroke-linecap="round" stroke-linejoin="round" stroke="rgb(0%, 0%, 0%)" stroke-opacity="1" stroke-miterlimit="10" d="M 244.003906 523.988281 L 244.003906 517.210938 " transform="matrix(1, 0, 0, -1, -55, 569)"/>
<path fill-rule="evenodd" fill="rgb(100%, 100%, 100%)" fill-opacity="1" d="M 193.011719 97.015625 L 177.003906 97.015625 L 177.003906 73.015625 L 193.011719 73.015625 Z M 193.011719 97.015625 "/>
<path fill="none" stroke-width="0.8" stroke-linecap="round" stroke-linejoin="round" stroke="rgb(0%, 0%, 0%)" stroke-opacity="1" stroke-miterlimit="10" d="M 248.003906 488 L 256.007812 488 " transform="matrix(1, 0, 0, -1, -55, 569)"/>
<path fill-rule="evenodd" fill="rgb(0%, 0%, 0%)" fill-opacity="1" stroke-width="0.8" stroke-linecap="butt" stroke-linejoin="round" stroke="rgb(0%, 0%, 0%)" stroke-opacity="1" stroke-miterlimit="10" d="M 252.007812 488 L 256.007812 480 L 248.003906 480 L 252.007812 488 " transform="matrix(1, 0, 0, -1, -55, 569)"/>
<path fill="none" stroke-width="0.8" stroke-linecap="round" stroke-linejoin="round" stroke="rgb(0%, 0%, 0%)" stroke-opacity="1" stroke-miterlimit="10" d="M 252.007812 488 L 252.007812 496 " transform="matrix(1, 0, 0, -1, -55, 569)"/>
<path fill="none" stroke-width="0.8" stroke-linecap="round" stroke-linejoin="round" stroke="rgb(0%, 0%, 0%)" stroke-opacity="1" stroke-miterlimit="10" d="M 252.007812 480 L 252.007812 472 " transform="matrix(1, 0, 0, -1, -55, 569)"/>
<path fill="none" stroke-width="0.8" stroke-linecap="round" stroke-linejoin="round" stroke="rgb(0%, 0%, 0%)" stroke-opacity="1" stroke-miterlimit="10" d="M 252.007812 496 L 244.003906 496 " transform="matrix(1, 0, 0, -1, -55, 569)"/>
<path fill="none" stroke-width="0.8" stroke-linecap="round" stroke-linejoin="round" stroke="rgb(0%, 0%, 0%)" stroke-opacity="1" stroke-miterlimit="10" d="M 252.007812 472 L 244.003906 472 " transform="matrix(1, 0, 0, -1, -55, 569)"/>
<path fill="none" stroke-width="0.8" stroke-linecap="round" stroke-linejoin="round" stroke="rgb(0%, 0%, 0%)" stroke-opacity="1" stroke-miterlimit="10" d="M 244.003906 490.765625 L 244.003906 499.988281 " transform="matrix(1, 0, 0, -1, -55, 569)"/>
<path fill="none" stroke-width="0.8" stroke-linecap="round" stroke-linejoin="round" stroke="rgb(0%, 0%, 0%)" stroke-opacity="1" stroke-miterlimit="10" d="M 244.003906 468 L 244.003906 477.21875 " transform="matrix(1, 0, 0, -1, -55, 569)"/>
<path fill="none" stroke-width="0.8" stroke-linecap="round" stroke-linejoin="round" stroke="rgb(0%, 0%, 0%)" stroke-opacity="1" stroke-miterlimit="10" d="M 234.398438 484 L 228 484 " transform="matrix(1, 0, 0, -1, -55, 569)"/>
<path fill="none" stroke-width="1.2" stroke-linecap="round" stroke-linejoin="round" stroke="rgb(0%, 0%, 0%)" stroke-opacity="1" stroke-miterlimit="10" d="M 234.398438 490.765625 L 234.398438 477.214844 " transform="matrix(1, 0, 0, -1, -55, 569)"/>
<path fill="none" stroke-width="0.8" stroke-linecap="round" stroke-linejoin="round" stroke="rgb(0%, 0%, 0%)" stroke-opacity="1" stroke-miterlimit="10" d="M 237.601562 475.414062 L 237.601562 478.730469 " transform="matrix(1, 0, 0, -1, -55, 569)"/>
<path fill="none" stroke-width="0.8" stroke-linecap="round" stroke-linejoin="round" stroke="rgb(0%, 0%, 0%)" stroke-opacity="1" stroke-miterlimit="10" d="M 237.601562 489.175781 L 237.601562 492.636719 " transform="matrix(1, 0, 0, -1, -55, 569)"/>
<path fill="none" stroke-width="0.8" stroke-linecap="round" stroke-linejoin="round" stroke="rgb(0%, 0%, 0%)" stroke-opacity="1" stroke-miterlimit="10" d="M 244.003906 490.765625 L 237.601562 490.765625 " transform="matrix(1, 0, 0, -1, -55, 569)"/>
<path fill="none" stroke-width="0.8" stroke-linecap="round" stroke-linejoin="round" stroke="rgb(0%, 0%, 0%)" stroke-opacity="1" stroke-miterlimit="10" d="M 244.003906 483.988281 L 237.601562 483.988281 " transform="matrix(1, 0, 0, -1, -55, 569)"/>
<path fill="none" stroke-width="0.8" stroke-linecap="round" stroke-linejoin="round" stroke="rgb(0%, 0%, 0%)" stroke-opacity="1" stroke-miterlimit="10" d="M 237.632812 481.433594 L 237.632812 486.421875 " transform="matrix(1, 0, 0, -1, -55, 569)"/>
<path fill-rule="evenodd" fill="rgb(0%, 0%, 0%)" fill-opacity="1" stroke-width="0.8" stroke-linecap="round" stroke-linejoin="round" stroke="rgb(0%, 0%, 0%)" stroke-opacity="1" stroke-miterlimit="10" d="M 237.601562 483.996094 L 241.441406 485.578125 L 241.441406 482.410156 Z M 237.601562 483.996094 " transform="matrix(1, 0, 0, -1, -55, 569)"/>
<path fill="none" stroke-width="0.8" stroke-linecap="round" stroke-linejoin="round" stroke="rgb(0%, 0%, 0%)" stroke-opacity="1" stroke-miterlimit="10" d="M 237.601562 477.21875 L 244.003906 477.21875 " transform="matrix(1, 0, 0, -1, -55, 569)"/>
<path fill="none" stroke-width="0.8" stroke-linecap="round" stroke-linejoin="round" stroke="rgb(0%, 0%, 0%)" stroke-opacity="1" stroke-miterlimit="10" d="M 244.003906 483.988281 L 244.003906 477.210938 " transform="matrix(1, 0, 0, -1, -55, 569)"/>
<path fill="none" stroke-width="0.8" stroke-linecap="butt" stroke-linejoin="round" stroke="rgb(0%, 0%, 0%)" stroke-opacity="1" stroke-miterlimit="10" d="M 80 488 L 80 488 " transform="matrix(1, 0, 0, -1, -55, 569)"/>
<path fill-rule="evenodd" fill="rgb(100%, 100%, 100%)" fill-opacity="1" stroke-width="0.8" stroke-linecap="butt" stroke-linejoin="round" stroke="rgb(0%, 0%, 0%)" stroke-opacity="1" stroke-miterlimit="10" d="M 88 504 C 88 508.417969 84.417969 512 80 512 C 75.582031 512 72 508.417969 72 504 C 72 499.582031 75.582031 496 80 496 C 84.417969 496 88 499.582031 88 504 " transform="matrix(1, 0, 0, -1, -55, 569)"/>
<path fill="none" stroke-width="0.8" stroke-linecap="round" stroke-linejoin="round" stroke="rgb(0%, 0%, 0%)" stroke-opacity="1" stroke-miterlimit="10" d="M 80 512 L 80 520 " transform="matrix(1, 0, 0, -1, -55, 569)"/>
<path fill="none" stroke-width="0.8" stroke-linecap="round" stroke-linejoin="round" stroke="rgb(0%, 0%, 0%)" stroke-opacity="1" stroke-miterlimit="10" d="M 80 496 L 80 488 " transform="matrix(1, 0, 0, -1, -55, 569)"/>
<path fill="none" stroke-width="0.4" stroke-linecap="round" stroke-linejoin="round" stroke="rgb(0%, 0%, 0%)" stroke-opacity="1" stroke-miterlimit="10" d="M 78 507 L 82 507 " transform="matrix(1, 0, 0, -1, -55, 569)"/>
<path fill="none" stroke-width="0.4" stroke-linecap="round" stroke-linejoin="round" stroke="rgb(0%, 0%, 0%)" stroke-opacity="1" stroke-miterlimit="10" d="M 80 505 L 80 509 " transform="matrix(1, 0, 0, -1, -55, 569)"/>
<path fill="none" stroke-width="0.4" stroke-linecap="round" stroke-linejoin="round" stroke="rgb(0%, 0%, 0%)" stroke-opacity="1" stroke-miterlimit="10" d="M 78.199219 500 L 81.800781 500 " transform="matrix(1, 0, 0, -1, -55, 569)"/>
<g clip-path="url(#clip-4)">
<g fill="rgb(0%, 0%, 0%)" fill-opacity="1">
<use xlink:href="#glyph-0-0" x="307.808" y="79.8195"/>
<use xlink:href="#glyph-0-1" x="307.808" y="73.323885"/>
<use xlink:href="#glyph-0-2" x="307.808" y="68.342585"/>
<use xlink:href="#glyph-0-3" x="307.808" y="64.447208"/>
<use xlink:href="#glyph-0-5" x="307.808" y="57.264174"/>
</g>
</g>
<path fill="none" stroke-width="0.8" stroke-linecap="butt" stroke-linejoin="round" stroke="rgb(0%, 0%, 0%)" stroke-opacity="1" stroke-miterlimit="10" d="M 344 488 L 344 488 " transform="matrix(1, 0, 0, -1, -55, 569)"/>
<path fill-rule="evenodd" fill="rgb(100%, 100%, 100%)" fill-opacity="1" stroke-width="0.8" stroke-linecap="butt" stroke-linejoin="round" stroke="rgb(0%, 0%, 0%)" stroke-opacity="1" stroke-miterlimit="10" d="M 336 504 C 336 508.417969 339.582031 512 344 512 C 348.417969 512 352 508.417969 352 504 C 352 499.582031 348.417969 496 344 496 C 339.582031 496 336 499.582031 336 504 " transform="matrix(1, 0, 0, -1, -55, 569)"/>
<path fill="none" stroke-width="0.8" stroke-linecap="round" stroke-linejoin="round" stroke="rgb(0%, 0%, 0%)" stroke-opacity="1" stroke-miterlimit="10" d="M 344 512 L 344 520 " transform="matrix(1, 0, 0, -1, -55, 569)"/>
<path fill="none" stroke-width="0.8" stroke-linecap="round" stroke-linejoin="round" stroke="rgb(0%, 0%, 0%)" stroke-opacity="1" stroke-miterlimit="10" d="M 344 496 L 344 488 " transform="matrix(1, 0, 0, -1, -55, 569)"/>
<path fill="none" stroke-width="0.4" stroke-linecap="round" stroke-linejoin="round" stroke="rgb(0%, 0%, 0%)" stroke-opacity="1" stroke-miterlimit="10" d="M 346 507 L 342 507 " transform="matrix(1, 0, 0, -1, -55, 569)"/>
<path fill="none" stroke-width="0.4" stroke-linecap="round" stroke-linejoin="round" stroke="rgb(0%, 0%, 0%)" stroke-opacity="1" stroke-miterlimit="10" d="M 344 505 L 344 509 " transform="matrix(1, 0, 0, -1, -55, 569)"/>
<path fill="none" stroke-width="0.4" stroke-linecap="round" stroke-linejoin="round" stroke="rgb(0%, 0%, 0%)" stroke-opacity="1" stroke-miterlimit="10" d="M 345.800781 500 L 342.199219 500 " transform="matrix(1, 0, 0, -1, -55, 569)"/>
</svg>
